<?xml version="1.0" encoding="utf-8"?>
<!-- Generator: Adobe Illustrator 19.1.1, SVG Export Plug-In . SVG Version: 6.00 Build 0)  -->
<svg version="1.1" id="Layer_1" xmlns="http://www.w3.org/2000/svg" xmlns:xlink="http://www.w3.org/1999/xlink" x="0px" y="0px"
	 viewBox="0 0 340 130" style="enable-background:new 0 0 340 130;" xml:space="preserve">
<style type="text/css">
	.st0{fill:#214497;}
	.st1{fill:#422768;}
	.st2{fill:#1079BF;}
	.st3{fill:#696A6C;}
	.st4{fill:#FFFFFF;}
	.st5{fill:none;}
	.st6{fill:#264797;}
	.st7{font-family:'BPGSuperSquare';}
	.st8{font-size:17.8627px;}
	.st9{fill:none;stroke:#264797;stroke-width:0.5;stroke-miterlimit:10;}
</style>
<g>
	<path class="st0" d="M95.5,77.5v-7.9c3.4,1,5.9,4.1,5.9,7.8l1.4-1.6c-0.7-3.8-3.6-6.9-7.3-7.8V66L94,65.4v2.4c-0.3,0-0.5,0-0.8,0
		c-0.3,0-0.5,0-0.8,0V66l-1.6-0.6v2.7c-4.3,1.1-7.5,4.9-7.5,9.5c0,3.5,1.8,6.5,4.5,8.3h-3.2l-1.3,1.6h16.5l1.3-1.6h-8.7
		c-4.3-0.3-7.6-3.9-7.6-8.3c0-3.8,2.5-6.9,5.9-8v7.3l1.6,0.6v-8.2c0.3,0,0.5,0,0.8,0c0.3,0,0.5,0,0.8,0v7.6L95.5,77.5z"/>
	<path class="st0" d="M9.2,12.8L9.2,12.8l0-0.1c0,0,0,0,0,0c0,0,0,0,0-0.1v-0.1l0.5-0.1c0-0.1,0-0.2,0-0.3l-0.5,0
		c0-0.2-0.1-0.4-0.2-0.6l0.5-0.3c0-0.1-0.1-0.2-0.1-0.3l-0.5,0.1c-0.1-0.2-0.2-0.4-0.3-0.6L8.9,10C8.8,9.9,8.8,9.8,8.7,9.7L8.2,10
		c0,0,0,0,0,0l0,0L8,9.7l0,0C7.9,9.7,7.8,9.6,7.8,9.6L8,9.1C7.9,9,7.8,8.9,7.8,8.9L7.4,9.3C7.2,9.2,7,9.1,6.8,9l0.1-0.5
		c-0.1,0-0.2-0.1-0.3-0.1L6.4,8.8C6.2,8.8,5.9,8.7,5.7,8.7L5.7,8.2c-0.1,0-0.2,0-0.3,0L5.3,8.7H5.1v0c-0.2,0-0.4,0-0.6,0.1L4.4,8.3
		c-0.1,0-0.2,0-0.3,0.1l0.1,0.5C3.9,8.9,3.7,9,3.5,9.1L3.2,8.7C3.1,8.7,3,8.8,2.9,8.8l0.2,0.5C3,9.5,2.8,9.6,2.7,9.7l0,0l0,0
		L2.2,9.4C2.1,9.5,2,9.6,2,9.7l0.3,0.4c-0.1,0.2-0.3,0.4-0.4,0.5l-0.5-0.2c0,0.1-0.1,0.2-0.1,0.3L1.7,11c-0.1,0.2-0.2,0.4-0.2,0.6
		l-0.5,0c0,0.1,0,0.2-0.1,0.3l0.5,0.2c0,0.1,0,0.2,0,0.3h0v0.1c0,0,0,0,0,0c0,0,0,0,0,0.1v0.1l-0.5,0.1c0,0.1,0,0.2,0,0.3l0.5,0
		c0,0.2,0.1,0.4,0.2,0.6l-0.5,0.3c0,0.1,0.1,0.2,0.1,0.3l0.5-0.1c0.1,0.2,0.2,0.4,0.3,0.6l-0.4,0.4c0.1,0.1,0.1,0.2,0.2,0.2l0.5-0.3
		c0,0,0,0,0,0l0,0l0.2,0.2l0,0c0.1,0.1,0.1,0.1,0.2,0.2l-0.2,0.5c0.1,0.1,0.2,0.1,0.2,0.2L3.2,16c0.2,0.1,0.4,0.2,0.6,0.3l-0.1,0.5
		c0.1,0,0.2,0.1,0.3,0.1l0.2-0.5c0.2,0.1,0.4,0.1,0.7,0.1L5,17.1c0.1,0,0.2,0,0.3,0l0.1-0.5h0.1v0c0.2,0,0.4,0,0.6-0.1L6.2,17
		c0.1,0,0.2,0,0.3-0.1l-0.1-0.5c0.2-0.1,0.4-0.2,0.6-0.3l0.3,0.4c0.1,0,0.2-0.1,0.3-0.2l-0.2-0.5c0.2-0.1,0.3-0.2,0.5-0.4l0,0l0,0
		l0.4,0.3c0.1-0.1,0.1-0.1,0.2-0.2l-0.3-0.4c0.1-0.2,0.3-0.4,0.4-0.5l0.5,0.2c0-0.1,0.1-0.2,0.1-0.3l-0.4-0.3
		C9,14,9.1,13.8,9.1,13.6l0.5,0c0-0.1,0-0.2,0.1-0.3l-0.5-0.2C9.2,13,9.2,12.9,9.2,12.8z M8.8,12.5H6.9c0-0.3-0.2-0.6-0.4-0.9
		l1.3-1.3C8.4,10.8,8.8,11.6,8.8,12.5z M5.3,13.8c-0.6,0-1.1-0.5-1.1-1.1c0-0.6,0.5-1.1,1.1-1.1s1.1,0.5,1.1,1.1
		C6.4,13.2,5.9,13.8,5.3,13.8z M7.7,10l-1.3,1.3C6.1,11.2,5.8,11,5.5,11V9.1C6.3,9.2,7.1,9.5,7.7,10z M5.1,9.1V11
		c-0.3,0-0.6,0.2-0.9,0.4L3,10C3.5,9.5,4.3,9.2,5.1,9.1z M2.7,10.3l1.3,1.3c-0.2,0.2-0.3,0.5-0.4,0.9H1.8
		C1.8,11.6,2.2,10.8,2.7,10.3z M1.8,12.8h1.9c0,0.3,0.2,0.6,0.4,0.9L2.7,15C2.2,14.4,1.8,13.6,1.8,12.8z M3,15.2l1.3-1.3
		c0.2,0.2,0.5,0.3,0.9,0.4v1.9C4.3,16.1,3.5,15.7,3,15.2z M5.5,16.1v-1.9c0.3,0,0.6-0.2,0.9-0.4l1.3,1.3C7.1,15.7,6.3,16.1,5.5,16.1
		z M7.9,15l-1.3-1.3c0.2-0.2,0.3-0.5,0.4-0.9h1.9C8.8,13.6,8.4,14.4,7.9,15z"/>
	<path class="st0" d="M47.7,80.2L47.7,80.2l0-0.1c0,0,0,0,0,0c0,0,0,0,0-0.1v-0.1l0.5-0.1c0-0.1,0-0.2,0-0.3l-0.5,0
		c0-0.2-0.1-0.4-0.2-0.7l0.5-0.3c0-0.1-0.1-0.2-0.1-0.3l-0.5,0.1c-0.1-0.2-0.2-0.4-0.3-0.6l0.4-0.4c-0.1-0.1-0.1-0.2-0.2-0.2
		l-0.5,0.3c0,0,0,0,0,0l0,0l-0.2-0.2l0,0c-0.1-0.1-0.1-0.1-0.2-0.2l0.3-0.5c-0.1-0.1-0.2-0.1-0.3-0.2l-0.4,0.4
		c-0.2-0.1-0.4-0.2-0.6-0.3l0.1-0.5c-0.1,0-0.2-0.1-0.3-0.1l-0.3,0.5c-0.2-0.1-0.4-0.1-0.7-0.1l-0.1-0.5c-0.1,0-0.2,0-0.3,0L43.7,76
		h-0.1v0c-0.2,0-0.4,0-0.6,0.1l-0.2-0.5c-0.1,0-0.2,0-0.3,0.1l0.1,0.5c-0.2,0.1-0.4,0.2-0.6,0.3L41.6,76c-0.1,0-0.2,0.1-0.3,0.2
		l0.2,0.5c-0.2,0.1-0.3,0.2-0.5,0.4l0,0l0,0l-0.4-0.3c-0.1,0.1-0.1,0.1-0.2,0.2l0.3,0.4c-0.1,0.2-0.3,0.4-0.4,0.6l-0.5-0.2
		c0,0.1-0.1,0.2-0.1,0.3l0.4,0.3c-0.1,0.2-0.2,0.4-0.2,0.6l-0.5,0c0,0.1,0,0.2-0.1,0.3l0.5,0.2c0,0.1,0,0.2,0,0.4h0V80c0,0,0,0,0,0
		c0,0,0,0,0,0.1v0.1l-0.5,0.1c0,0.1,0,0.2,0,0.3l0.5,0c0,0.2,0.1,0.4,0.2,0.7l-0.5,0.3c0,0.1,0.1,0.2,0.1,0.3l0.5-0.1
		c0.1,0.2,0.2,0.4,0.3,0.6l-0.4,0.4c0.1,0.1,0.1,0.2,0.2,0.2l0.5-0.3c0,0,0,0,0,0.1l0,0l0.2,0.2l0,0c0.1,0.1,0.1,0.1,0.2,0.2
		L41,83.6c0.1,0.1,0.2,0.1,0.3,0.2l0.4-0.4c0.2,0.1,0.4,0.2,0.6,0.3l-0.1,0.5c0.1,0,0.2,0.1,0.3,0.1l0.3-0.5
		c0.2,0.1,0.4,0.1,0.7,0.1l0.1,0.5c0.1,0,0.2,0,0.3,0l0.1-0.5h0.1v0c0.2,0,0.4,0,0.6-0.1l0.2,0.5c0.1,0,0.2,0,0.3-0.1l-0.1-0.5
		c0.2-0.1,0.4-0.2,0.6-0.3l0.3,0.4c0.1,0,0.2-0.1,0.3-0.2l-0.2-0.5c0.2-0.1,0.3-0.3,0.5-0.4l0,0l0,0l0.4,0.3
		c0.1-0.1,0.1-0.1,0.2-0.2l-0.3-0.4c0.1-0.2,0.3-0.4,0.4-0.6l0.5,0.2c0.1-0.1,0.1-0.2,0.1-0.3l-0.4-0.3c0.1-0.2,0.2-0.4,0.2-0.6
		l0.5,0c0-0.1,0-0.2,0.1-0.3l-0.5-0.2C47.7,80.4,47.7,80.3,47.7,80.2z M47.3,79.9h-1.9c0-0.3-0.2-0.6-0.4-0.9l1.4-1.4
		C46.9,78.2,47.2,79,47.3,79.9z M43.7,81.2c-0.6,0-1.1-0.5-1.1-1.1s0.5-1.1,1.1-1.1c0.6,0,1.1,0.5,1.1,1.1S44.4,81.2,43.7,81.2z
		 M46.1,77.4l-1.4,1.4c-0.2-0.2-0.5-0.3-0.9-0.4v-1.9C44.7,76.5,45.5,76.9,46.1,77.4z M43.6,76.5v1.9c-0.3,0-0.6,0.2-0.9,0.4
		l-1.4-1.4C41.9,76.9,42.7,76.5,43.6,76.5z M41.1,77.6l1.4,1.4c-0.2,0.2-0.3,0.5-0.4,0.9h-1.9C40.2,79,40.6,78.2,41.1,77.6z
		 M40.2,80.2h1.9c0,0.3,0.2,0.6,0.4,0.9l-1.4,1.4C40.6,81.8,40.2,81,40.2,80.2z M41.3,82.6l1.4-1.4c0.2,0.2,0.5,0.3,0.9,0.4v1.9
		C42.7,83.5,41.9,83.2,41.3,82.6z M43.9,83.6v-1.9c0.3,0,0.6-0.2,0.9-0.4l1.4,1.4C45.5,83.2,44.7,83.5,43.9,83.6z M46.3,82.4
		L45,81.1c0.2-0.2,0.3-0.5,0.4-0.9h1.9C47.2,81,46.9,81.8,46.3,82.4z"/>
	<path class="st0" d="M171.9,89.2L171.9,89.2l0-0.1c0,0,0,0,0,0c0,0,0,0,0-0.1v-0.1l0.6-0.2c0-0.1,0-0.2,0-0.4l-0.7,0
		c0-0.3-0.1-0.5-0.2-0.8l0.6-0.3c0-0.1-0.1-0.2-0.1-0.3l-0.6,0.2c-0.1-0.2-0.3-0.5-0.4-0.7l0.5-0.5c-0.1-0.1-0.1-0.2-0.2-0.3
		l-0.6,0.3c0,0,0,0-0.1-0.1l0,0l-0.3-0.3l0,0c-0.1-0.1-0.2-0.2-0.3-0.2l0.3-0.6c-0.1-0.1-0.2-0.1-0.3-0.2l-0.5,0.5
		c-0.2-0.1-0.5-0.3-0.7-0.4l0.1-0.6c-0.1,0-0.2-0.1-0.3-0.1l-0.3,0.6c-0.3-0.1-0.5-0.1-0.8-0.2l-0.1-0.7c-0.1,0-0.2,0-0.4,0
		l-0.1,0.6H167v0c-0.2,0-0.5,0-0.7,0.1l-0.2-0.6c-0.1,0-0.2,0.1-0.4,0.1l0.1,0.7c-0.3,0.1-0.5,0.2-0.8,0.3l-0.4-0.5
		c-0.1,0.1-0.2,0.1-0.3,0.2l0.2,0.6c-0.2,0.1-0.4,0.3-0.6,0.5l0,0l0,0l-0.5-0.4c-0.1,0.1-0.2,0.2-0.3,0.3l0.4,0.5
		c-0.2,0.2-0.3,0.4-0.5,0.7l-0.6-0.2c-0.1,0.1-0.1,0.2-0.2,0.3l0.5,0.4c-0.1,0.2-0.2,0.5-0.3,0.8l-0.7,0c0,0.1-0.1,0.2-0.1,0.4
		l0.6,0.2c0,0.1,0,0.3,0,0.4h0V89c0,0,0,0,0,0c0,0,0,0,0,0.1v0.1l-0.6,0.2c0,0.1,0,0.2,0,0.4l0.7,0c0,0.3,0.1,0.5,0.2,0.8l-0.6,0.3
		c0,0.1,0.1,0.2,0.1,0.3l0.6-0.2c0.1,0.2,0.3,0.5,0.4,0.7l-0.5,0.5c0.1,0.1,0.1,0.2,0.2,0.3l0.6-0.3c0,0,0,0,0.1,0.1l0,0l0.3,0.3
		l0,0c0.1,0.1,0.2,0.2,0.3,0.2l-0.3,0.6c0.1,0.1,0.2,0.1,0.3,0.2l0.5-0.5c0.2,0.1,0.5,0.3,0.7,0.4l-0.1,0.6c0.1,0,0.2,0.1,0.3,0.1
		l0.3-0.6c0.3,0.1,0.5,0.1,0.8,0.2l0.1,0.7c0.1,0,0.2,0,0.4,0l0.1-0.6h0.1v0c0.2,0,0.5,0,0.7-0.1l0.2,0.6c0.1,0,0.2-0.1,0.4-0.1
		l-0.1-0.7c0.3-0.1,0.5-0.2,0.8-0.3l0.4,0.5c0.1-0.1,0.2-0.1,0.3-0.2l-0.2-0.6c0.2-0.1,0.4-0.3,0.6-0.5l0,0l0,0l0.5,0.4
		c0.1-0.1,0.2-0.2,0.3-0.3l-0.4-0.5c0.2-0.2,0.3-0.4,0.5-0.7l0.6,0.2c0.1-0.1,0.1-0.2,0.2-0.3l-0.5-0.4c0.1-0.2,0.2-0.5,0.3-0.8
		l0.7,0c0-0.1,0.1-0.2,0.1-0.4l-0.6-0.2C171.9,89.5,171.9,89.4,171.9,89.2z M171.4,88.8h-2.3c0-0.4-0.2-0.8-0.4-1l1.6-1.6
		C171,86.9,171.4,87.8,171.4,88.8z M167.2,90.4c-0.8,0-1.4-0.6-1.4-1.4c0-0.8,0.6-1.4,1.4-1.4c0.8,0,1.4,0.6,1.4,1.4
		C168.5,89.8,167.9,90.4,167.2,90.4z M170,85.9l-1.6,1.6c-0.3-0.2-0.7-0.4-1-0.4v-2.3C168.4,84.8,169.3,85.2,170,85.9z M167,84.8
		v2.3c-0.4,0-0.8,0.2-1,0.4l-1.6-1.6C165,85.2,165.9,84.8,167,84.8z M164,86.2l1.6,1.6c-0.2,0.3-0.4,0.6-0.4,1h-2.3
		C163,87.8,163.4,86.9,164,86.2z M162.9,89.2h2.3c0,0.4,0.2,0.8,0.4,1l-1.6,1.6C163.4,91.2,163,90.3,162.9,89.2z M164.3,92.2
		l1.6-1.6c0.3,0.2,0.7,0.4,1,0.4v2.3C165.9,93.2,165,92.8,164.3,92.2z M167.4,93.3V91c0.4,0,0.8-0.2,1-0.4l1.6,1.6
		C169.3,92.8,168.4,93.2,167.4,93.3z M170.3,91.9l-1.6-1.6c0.2-0.3,0.4-0.7,0.4-1h2.3C171.4,90.3,171,91.2,170.3,91.9z"/>
	<path class="st0" d="M47.2,51.5L47.2,51.5L47.2,51.5c0-0.1,0-0.1,0-0.1c0,0,0,0,0,0v-0.1l0.4-0.1c0-0.1,0-0.1,0-0.2l-0.4,0
		c0-0.2-0.1-0.3-0.1-0.5l0.3-0.2c0-0.1-0.1-0.1-0.1-0.2L47,50.1c-0.1-0.1-0.2-0.3-0.2-0.4l0.3-0.3c0-0.1-0.1-0.1-0.1-0.2l-0.3,0.2
		c0,0,0,0,0,0l0,0l-0.2-0.2l0,0c-0.1,0-0.1-0.1-0.2-0.1l0.2-0.4c-0.1,0-0.1-0.1-0.2-0.1l-0.3,0.3c-0.1-0.1-0.3-0.2-0.4-0.2l0.1-0.4
		c-0.1,0-0.1-0.1-0.2-0.1l-0.2,0.4c-0.2,0-0.3-0.1-0.5-0.1l0-0.4c-0.1,0-0.1,0-0.2,0l-0.1,0.4h-0.1v0c-0.1,0-0.3,0-0.4,0l-0.2-0.4
		c-0.1,0-0.1,0-0.2,0.1l0,0.4c-0.2,0-0.3,0.1-0.5,0.2l-0.2-0.3c-0.1,0-0.1,0.1-0.2,0.1l0.2,0.4c-0.1,0.1-0.3,0.2-0.4,0.3l0,0l0,0
		L42,49c-0.1,0.1-0.1,0.1-0.2,0.2l0.3,0.3c-0.1,0.1-0.2,0.3-0.3,0.4l-0.4-0.1c0,0.1-0.1,0.1-0.1,0.2l0.3,0.2
		c-0.1,0.1-0.1,0.3-0.2,0.5l-0.4,0c0,0.1,0,0.1,0,0.2l0.4,0.1c0,0.1,0,0.2,0,0.3h0v0.1c0,0,0,0,0,0c0,0,0,0,0,0v0.1l-0.4,0.1
		c0,0.1,0,0.1,0,0.2l0.4,0c0,0.2,0.1,0.3,0.1,0.5l-0.3,0.2c0,0.1,0.1,0.1,0.1,0.2l0.4-0.1c0.1,0.1,0.2,0.3,0.2,0.4l-0.3,0.3
		c0,0.1,0.1,0.1,0.1,0.2l0.3-0.2c0,0,0,0,0,0l0,0l0.2,0.2l0,0c0,0,0.1,0.1,0.2,0.1L42.4,54c0.1,0,0.1,0.1,0.2,0.1l0.3-0.3
		c0.1,0.1,0.3,0.2,0.4,0.2l-0.1,0.4c0.1,0,0.1,0.1,0.2,0.1l0.2-0.4c0.2,0,0.3,0.1,0.5,0.1l0,0.4c0.1,0,0.1,0,0.2,0l0.1-0.4h0.1v0
		c0.1,0,0.3,0,0.4,0l0.1,0.4c0.1,0,0.1,0,0.2-0.1l0-0.4c0.2,0,0.3-0.1,0.5-0.2l0.2,0.3c0.1,0,0.1-0.1,0.2-0.1l-0.2-0.4
		c0.1-0.1,0.3-0.2,0.4-0.3l0,0l0,0l0.3,0.2c0.1-0.1,0.1-0.1,0.2-0.2l-0.2-0.3c0.1-0.1,0.2-0.3,0.3-0.4l0.4,0.1
		c0-0.1,0.1-0.1,0.1-0.2L47,52.5c0.1-0.1,0.1-0.3,0.2-0.5l0.4,0c0-0.1,0-0.1,0-0.2l-0.4-0.1C47.2,51.7,47.2,51.6,47.2,51.5z
		 M46.9,51.3h-1.4c0-0.2-0.1-0.5-0.3-0.6l1-1C46.6,50.1,46.9,50.6,46.9,51.3z M44.3,52.2c-0.5,0-0.8-0.4-0.8-0.8
		c0-0.5,0.4-0.8,0.8-0.8c0.5,0,0.8,0.4,0.8,0.8C45.2,51.8,44.8,52.2,44.3,52.2z M46.1,49.5l-1,1c-0.2-0.1-0.4-0.2-0.6-0.3v-1.4
		C45.1,48.8,45.7,49.1,46.1,49.5z M44.2,48.8v1.4c-0.2,0-0.5,0.1-0.6,0.3l-1-1C43,49.1,43.6,48.8,44.2,48.8z M42.4,49.6l1,1
		c-0.1,0.2-0.2,0.4-0.3,0.6h-1.4C41.8,50.6,42,50.1,42.4,49.6z M41.8,51.5h1.4c0,0.2,0.1,0.5,0.3,0.6l-1,1
		C42,52.7,41.8,52.1,41.8,51.5z M42.6,53.3l1-1c0.2,0.1,0.4,0.2,0.6,0.3V54C43.6,53.9,43,53.7,42.6,53.3z M44.5,54v-1.4
		c0.2,0,0.5-0.1,0.6-0.3l1,1C45.7,53.7,45.1,53.9,44.5,54z M46.2,53.1l-1-1c0.1-0.2,0.2-0.4,0.3-0.6h1.4
		C46.9,52.1,46.6,52.7,46.2,53.1z"/>
	<path class="st0" d="M96,40.5L96,40.5L96,40.5c0-0.1,0-0.1,0-0.1c0,0,0,0,0,0v-0.1l0.4-0.1c0-0.1,0-0.1,0-0.2l-0.4,0
		c0-0.2-0.1-0.3-0.1-0.5l0.3-0.2c0-0.1-0.1-0.1-0.1-0.2l-0.4,0.1c-0.1-0.1-0.2-0.3-0.2-0.4l0.3-0.3c0-0.1-0.1-0.1-0.1-0.2l-0.3,0.2
		c0,0,0,0,0,0l0,0L95,38.2l0,0c-0.1,0-0.1-0.1-0.2-0.1l0.2-0.4c-0.1,0-0.1-0.1-0.2-0.1l-0.3,0.3c-0.1-0.1-0.3-0.2-0.4-0.2l0.1-0.4
		c-0.1,0-0.1-0.1-0.2-0.1l-0.2,0.4c-0.2,0-0.3-0.1-0.5-0.1l0-0.4c-0.1,0-0.1,0-0.2,0L93,37.5H93v0c-0.1,0-0.3,0-0.4,0l-0.1-0.4
		c-0.1,0-0.1,0-0.2,0.1l0,0.4c-0.2,0-0.3,0.1-0.5,0.2l-0.2-0.3c-0.1,0-0.1,0.1-0.2,0.1l0.1,0.4c-0.1,0.1-0.2,0.2-0.4,0.3l0,0l0,0
		L90.8,38c-0.1,0.1-0.1,0.1-0.2,0.2l0.2,0.3c-0.1,0.1-0.2,0.3-0.3,0.4l-0.4-0.1c0,0.1-0.1,0.1-0.1,0.2l0.3,0.2
		c-0.1,0.1-0.1,0.3-0.2,0.5l-0.4,0c0,0.1,0,0.1,0,0.2l0.4,0.1c0,0.1,0,0.2,0,0.3h0v0.1c0,0,0,0,0,0c0,0,0,0,0,0v0.1l-0.4,0.1
		c0,0.1,0,0.1,0,0.2l0.4,0c0,0.2,0.1,0.3,0.1,0.5L90,41.5c0,0.1,0.1,0.1,0.1,0.2l0.4-0.1c0.1,0.1,0.2,0.3,0.2,0.4l-0.3,0.3
		c0,0.1,0.1,0.1,0.1,0.2l0.3-0.2c0,0,0,0,0,0l0,0l0.2,0.2l0,0c0.1,0,0.1,0.1,0.2,0.1L91.1,43c0.1,0,0.1,0.1,0.2,0.1l0.3-0.3
		c0.1,0.1,0.3,0.2,0.4,0.2l-0.1,0.4c0.1,0,0.1,0.1,0.2,0.1l0.2-0.4c0.2,0,0.3,0.1,0.5,0.1l0,0.4c0.1,0,0.1,0,0.2,0l0.1-0.4h0.1l0,0
		c0.1,0,0.3,0,0.4,0l0.2,0.4c0.1,0,0.1,0,0.2-0.1l0-0.4c0.2,0,0.3-0.1,0.5-0.2l0.2,0.3c0.1,0,0.1-0.1,0.2-0.1l-0.2-0.4
		c0.1-0.1,0.3-0.2,0.4-0.3l0,0l0,0l0.3,0.2c0.1-0.1,0.1-0.1,0.2-0.2l-0.2-0.3c0.1-0.1,0.2-0.3,0.3-0.4l0.4,0.1
		c0-0.1,0.1-0.1,0.1-0.2l-0.3-0.2c0.1-0.1,0.1-0.3,0.2-0.5l0.4,0c0-0.1,0-0.1,0-0.2l-0.4-0.1C95.9,40.6,96,40.6,96,40.5z M95.6,40.2
		h-1.4c0-0.2-0.1-0.5-0.3-0.6l1-1C95.4,39,95.6,39.6,95.6,40.2z M93.1,41.2c-0.5,0-0.8-0.4-0.8-0.8c0-0.5,0.4-0.8,0.8-0.8
		c0.5,0,0.8,0.4,0.8,0.8C93.9,40.8,93.5,41.2,93.1,41.2z M94.8,38.4l-1,1c-0.2-0.1-0.4-0.2-0.6-0.3v-1.4
		C93.8,37.8,94.4,38.1,94.8,38.4z M93,37.8v1.4c-0.2,0-0.5,0.1-0.6,0.3l-1-1C91.8,38.1,92.3,37.8,93,37.8z M91.2,38.6l1,1
		c-0.1,0.2-0.2,0.4-0.3,0.6h-1.4C90.5,39.6,90.8,39,91.2,38.6z M90.5,40.5h1.4c0,0.2,0.1,0.5,0.3,0.6l-1,1
		C90.8,41.7,90.5,41.1,90.5,40.5z M91.3,42.3l1-1c0.2,0.1,0.4,0.2,0.6,0.3v1.4C92.3,42.9,91.8,42.6,91.3,42.3z M93.2,42.9v-1.4
		c0.2,0,0.5-0.1,0.6-0.3l1,1C94.4,42.6,93.8,42.9,93.2,42.9z M95,42.1l-1-1c0.1-0.2,0.2-0.4,0.3-0.6h1.4
		C95.6,41.1,95.4,41.7,95,42.1z"/>
	<path class="st0" d="M73,28L73,28l0-0.1c0,0,0,0,0,0c0,0,0,0,0,0v-0.1l0.5-0.1c0-0.1,0-0.2,0-0.3l-0.5,0c0-0.2-0.1-0.4-0.1-0.6
		l0.4-0.2c0-0.1-0.1-0.2-0.1-0.3l-0.5,0.1c-0.1-0.2-0.2-0.4-0.3-0.5l0.3-0.4c-0.1-0.1-0.1-0.1-0.2-0.2l-0.4,0.2c0,0,0,0,0,0l0,0
		l-0.2-0.2l0,0c-0.1-0.1-0.1-0.1-0.2-0.2l0.2-0.4c-0.1-0.1-0.1-0.1-0.2-0.2l-0.3,0.4c-0.2-0.1-0.3-0.2-0.5-0.3l0.1-0.5
		c-0.1,0-0.2-0.1-0.3-0.1l-0.2,0.4c-0.2-0.1-0.4-0.1-0.6-0.1l0-0.5c-0.1,0-0.2,0-0.3,0l-0.1,0.5h-0.1v0c-0.2,0-0.3,0-0.5,0.1
		L68.7,24c-0.1,0-0.2,0-0.3,0.1l0,0.5c-0.2,0.1-0.4,0.1-0.6,0.2l-0.3-0.4c-0.1,0-0.2,0.1-0.2,0.1l0.2,0.5c-0.2,0.1-0.3,0.2-0.4,0.4
		l0,0l0,0L66.7,25c-0.1,0.1-0.1,0.1-0.2,0.2l0.3,0.4c-0.1,0.2-0.2,0.3-0.3,0.5L66,25.9c0,0.1-0.1,0.2-0.1,0.2l0.4,0.3
		c-0.1,0.2-0.1,0.4-0.2,0.6l-0.5,0c0,0.1,0,0.2-0.1,0.3l0.5,0.2c0,0.1,0,0.2,0,0.3h0v0.1c0,0,0,0,0,0c0,0,0,0,0,0V28l-0.5,0.1
		c0,0.1,0,0.2,0,0.3l0.5,0c0,0.2,0.1,0.4,0.1,0.6l-0.4,0.2c0,0.1,0.1,0.2,0.1,0.3l0.5-0.1c0.1,0.2,0.2,0.4,0.3,0.5l-0.3,0.4
		c0.1,0.1,0.1,0.1,0.2,0.2l0.4-0.2c0,0,0,0,0,0l0,0l0.2,0.2l0,0c0.1,0.1,0.1,0.1,0.2,0.2l-0.2,0.4c0.1,0.1,0.1,0.1,0.2,0.2l0.3-0.4
		c0.2,0.1,0.3,0.2,0.5,0.3l-0.1,0.5c0.1,0,0.2,0.1,0.3,0.1l0.2-0.4c0.2,0.1,0.4,0.1,0.6,0.1l0,0.5c0.1,0,0.2,0,0.3,0l0.1-0.5h0.1v0
		c0.2,0,0.3,0,0.5-0.1l0.2,0.5c0.1,0,0.2,0,0.3-0.1l0-0.5c0.2-0.1,0.4-0.1,0.6-0.2l0.3,0.4c0.1,0,0.2-0.1,0.2-0.1l-0.2-0.5
		c0.2-0.1,0.3-0.2,0.4-0.3l0,0l0,0l0.4,0.3c0.1-0.1,0.1-0.1,0.2-0.2l-0.3-0.4c0.1-0.2,0.2-0.3,0.3-0.5l0.5,0.2
		c0-0.1,0.1-0.2,0.1-0.2l-0.4-0.3c0.1-0.2,0.1-0.4,0.2-0.6l0.5,0c0-0.1,0-0.2,0.1-0.3L73,28.4C73,28.3,73,28.2,73,28z M72.7,27.8
		h-1.7c0-0.3-0.1-0.6-0.3-0.8l1.2-1.2C72.3,26.3,72.6,27,72.7,27.8z M69.5,28.9c-0.6,0-1-0.5-1-1c0-0.6,0.5-1,1-1c0.6,0,1,0.5,1,1
		C70.5,28.5,70.1,28.9,69.5,28.9z M71.6,25.6l-1.2,1.2c-0.2-0.2-0.5-0.3-0.8-0.3v-1.7C70.4,24.8,71.1,25.1,71.6,25.6z M69.3,24.7
		v1.7c-0.3,0-0.6,0.1-0.8,0.3l-1.2-1.2C67.9,25.1,68.6,24.8,69.3,24.7z M67.2,25.8l1.2,1.2c-0.2,0.2-0.3,0.5-0.3,0.8h-1.7
		C66.4,27,66.7,26.3,67.2,25.8z M66.3,28H68c0,0.3,0.1,0.6,0.3,0.8L67.2,30C66.7,29.5,66.4,28.8,66.3,28z M67.4,30.2l1.2-1.2
		c0.2,0.2,0.5,0.3,0.8,0.3v1.7C68.6,31,67.9,30.7,67.4,30.2z M69.6,31.1v-1.7c0.3,0,0.6-0.1,0.8-0.3l1.2,1.2
		C71.1,30.7,70.4,31,69.6,31.1z M71.8,30l-1.2-1.2c0.2-0.2,0.3-0.5,0.3-0.8h1.7C72.6,28.8,72.3,29.5,71.8,30z"/>
	<path class="st0" d="M146.4,53L146.4,53l0-0.2c0,0,0,0,0-0.1c0,0,0-0.1,0-0.1v-0.2l1-0.2c0-0.2,0-0.4-0.1-0.6l-1,0
		c-0.1-0.4-0.2-0.8-0.3-1.2l0.9-0.5c-0.1-0.2-0.1-0.4-0.2-0.5l-1,0.3c-0.2-0.4-0.4-0.8-0.6-1.1l0.7-0.8c-0.1-0.2-0.2-0.3-0.4-0.5
		l-0.9,0.5c0,0-0.1-0.1-0.1-0.1l0,0l-0.4-0.4l0,0c-0.1-0.1-0.3-0.2-0.4-0.4l0.5-0.9c-0.2-0.1-0.3-0.2-0.5-0.3l-0.7,0.8
		c-0.4-0.2-0.7-0.4-1.1-0.6l0.2-1c-0.2-0.1-0.4-0.1-0.6-0.2l-0.5,0.9c-0.4-0.1-0.8-0.2-1.3-0.2l-0.1-1c-0.2,0-0.4,0-0.6,0l-0.2,1
		h-0.2v0c-0.4,0-0.7,0.1-1.1,0.1l-0.4-1c-0.2,0-0.4,0.1-0.6,0.1l0.1,1c-0.4,0.1-0.8,0.3-1.2,0.5l-0.6-0.8c-0.2,0.1-0.3,0.2-0.5,0.3
		l0.4,1c-0.3,0.2-0.7,0.5-1,0.8l0,0l-0.1,0.1l-0.9-0.6c-0.1,0.1-0.3,0.3-0.4,0.4l0.7,0.8c-0.3,0.3-0.5,0.7-0.7,1l-1-0.3
		c-0.1,0.2-0.2,0.3-0.3,0.5l0.9,0.6c-0.2,0.4-0.3,0.8-0.4,1.2l-1,0c0,0.2-0.1,0.4-0.1,0.6l1,0.3c0,0.2,0,0.4-0.1,0.7h0v0.2
		c0,0,0,0,0,0.1c0,0,0,0.1,0,0.1V53l-1,0.2c0,0.2,0,0.4,0.1,0.6l1,0c0.1,0.4,0.2,0.8,0.3,1.2l-0.9,0.5c0.1,0.2,0.1,0.4,0.2,0.5
		l1-0.3c0.2,0.4,0.4,0.8,0.6,1.1l-0.7,0.8c0.1,0.2,0.2,0.3,0.4,0.5l0.9-0.5c0,0,0.1,0.1,0.1,0.1l0,0l0.4,0.4l0,0
		c0.1,0.1,0.3,0.2,0.4,0.4l-0.5,0.9c0.2,0.1,0.3,0.2,0.5,0.3l0.7-0.8c0.4,0.2,0.7,0.4,1.1,0.6l-0.2,1c0.2,0.1,0.4,0.1,0.5,0.2
		l0.5-0.9c0.4,0.1,0.8,0.2,1.3,0.2l0.1,1c0.2,0,0.4,0,0.6,0l0.2-1h0.2v0c0.4,0,0.7-0.1,1.1-0.1l0.4,1c0.2,0,0.4-0.1,0.6-0.1l-0.1-1
		c0.4-0.1,0.8-0.3,1.2-0.5l0.6,0.8c0.2-0.1,0.3-0.2,0.5-0.3l-0.4-1c0.3-0.2,0.7-0.5,1-0.8l0,0l0.1-0.1l0.9,0.6
		c0.1-0.1,0.3-0.3,0.4-0.4l-0.7-0.8c0.3-0.3,0.5-0.7,0.7-1l1,0.3c0.1-0.2,0.2-0.3,0.3-0.5l-0.9-0.6c0.2-0.4,0.3-0.8,0.4-1.2l1,0
		c0-0.2,0.1-0.4,0.1-0.6l-1-0.3C146.3,53.4,146.3,53.2,146.4,53z M145.5,52.4h-3.7c-0.1-0.6-0.3-1.2-0.7-1.7l2.6-2.6
		C144.8,49.3,145.5,50.7,145.5,52.4z M138.8,54.9c-1.2,0-2.2-1-2.2-2.2c0-1.2,1-2.2,2.2-2.2c1.2,0,2.2,1,2.2,2.2
		C141,53.9,140,54.9,138.8,54.9z M143.3,47.7l-2.6,2.6c-0.5-0.4-1-0.6-1.7-0.7v-3.7C140.7,46,142.2,46.7,143.3,47.7z M138.5,45.9
		v3.7c-0.6,0.1-1.2,0.3-1.7,0.7l-2.6-2.6C135.4,46.7,136.9,46,138.5,45.9z M133.8,48.1l2.6,2.6c-0.4,0.5-0.6,1-0.7,1.7H132
		C132.1,50.7,132.8,49.3,133.8,48.1z M132,53h3.7c0.1,0.6,0.3,1.2,0.7,1.7l-2.6,2.6C132.8,56.1,132.1,54.6,132,53z M134.2,57.7
		l2.6-2.6c0.5,0.4,1,0.6,1.7,0.7v3.7C136.9,59.4,135.4,58.7,134.2,57.7z M139.1,59.4v-3.7c0.6-0.1,1.2-0.3,1.7-0.7l2.6,2.6
		C142.2,58.7,140.7,59.4,139.1,59.4z M143.8,57.2l-2.6-2.6c0.4-0.5,0.6-1,0.7-1.7h3.7C145.5,54.6,144.8,56.1,143.8,57.2z"/>
	<path class="st0" d="M115.3,90.4L115.3,90.4L115.3,90.4c0-0.1,0-0.1,0-0.1c0,0,0,0,0,0v-0.1l0.4-0.1c0-0.1,0-0.2,0-0.2l-0.4,0
		c0-0.2-0.1-0.3-0.1-0.5l0.4-0.2c0-0.1-0.1-0.1-0.1-0.2L115,89c-0.1-0.2-0.2-0.3-0.3-0.4l0.3-0.3c0-0.1-0.1-0.1-0.1-0.2l-0.4,0.2
		c0,0,0,0,0,0l0,0l-0.2-0.2l0,0c-0.1,0-0.1-0.1-0.2-0.1l0.2-0.4c-0.1,0-0.1-0.1-0.2-0.1l-0.3,0.3c-0.1-0.1-0.3-0.2-0.4-0.2l0.1-0.4
		c-0.1,0-0.1-0.1-0.2-0.1l-0.2,0.4c-0.2,0-0.3-0.1-0.5-0.1l0-0.4c-0.1,0-0.2,0-0.2,0l-0.1,0.4h-0.1v0c-0.1,0-0.3,0-0.4,0l-0.2-0.4
		c-0.1,0-0.1,0-0.2,0.1l0,0.4c-0.2,0.1-0.3,0.1-0.5,0.2l-0.3-0.3c-0.1,0-0.1,0.1-0.2,0.1l0.2,0.4c-0.1,0.1-0.3,0.2-0.4,0.3l0,0l0,0
		l-0.3-0.2c-0.1,0.1-0.1,0.1-0.2,0.2l0.3,0.3c-0.1,0.1-0.2,0.3-0.3,0.4l-0.4-0.1c0,0.1-0.1,0.1-0.1,0.2l0.3,0.2
		c-0.1,0.2-0.1,0.3-0.2,0.5l-0.4,0c0,0.1,0,0.1,0,0.2l0.4,0.1c0,0.1,0,0.2,0,0.3h0v0.1c0,0,0,0,0,0c0,0,0,0,0,0v0.1l-0.4,0.1
		c0,0.1,0,0.2,0,0.2l0.4,0c0,0.2,0.1,0.3,0.1,0.5l-0.4,0.2c0,0.1,0.1,0.1,0.1,0.2l0.4-0.1c0.1,0.2,0.2,0.3,0.3,0.4l-0.3,0.3
		c0,0.1,0.1,0.1,0.1,0.2l0.4-0.2c0,0,0,0,0,0l0,0l0.2,0.2l0,0c0.1,0,0.1,0.1,0.2,0.1l-0.2,0.4c0.1,0,0.1,0.1,0.2,0.1l0.3-0.3
		c0.1,0.1,0.3,0.2,0.4,0.2l-0.1,0.4c0.1,0,0.1,0.1,0.2,0.1l0.2-0.4c0.2,0,0.3,0.1,0.5,0.1l0,0.4c0.1,0,0.2,0,0.2,0l0.1-0.4h0.1v0
		c0.1,0,0.3,0,0.4,0l0.2,0.4c0.1,0,0.1,0,0.2-0.1l0-0.4c0.2-0.1,0.3-0.1,0.5-0.2l0.3,0.3c0.1,0,0.1-0.1,0.2-0.1l-0.2-0.4
		c0.1-0.1,0.3-0.2,0.4-0.3l0,0l0,0l0.3,0.2c0.1-0.1,0.1-0.1,0.2-0.2l-0.3-0.3c0.1-0.1,0.2-0.3,0.3-0.4l0.4,0.1
		c0-0.1,0.1-0.1,0.1-0.2l-0.3-0.2c0.1-0.2,0.1-0.3,0.2-0.5l0.4,0c0-0.1,0-0.1,0-0.2l-0.4-0.1C115.3,90.6,115.3,90.5,115.3,90.4z
		 M115,90.2h-1.4c0-0.2-0.1-0.5-0.3-0.7l1-1C114.7,89,114.9,89.5,115,90.2z M112.3,91.2c-0.5,0-0.9-0.4-0.9-0.9s0.4-0.9,0.9-0.9
		c0.5,0,0.9,0.4,0.9,0.9S112.8,91.2,112.3,91.2z M114.1,88.3l-1,1c-0.2-0.1-0.4-0.2-0.6-0.3v-1.4C113.1,87.7,113.7,87.9,114.1,88.3z
		 M112.2,87.7v1.4c-0.2,0-0.5,0.1-0.7,0.3l-1-1C111,87.9,111.6,87.7,112.2,87.7z M110.4,88.5l1,1c-0.1,0.2-0.2,0.4-0.3,0.7h-1.4
		C109.7,89.5,110,89,110.4,88.5z M109.7,90.4h1.4c0,0.2,0.1,0.5,0.3,0.7l-1,1C110,91.6,109.7,91.1,109.7,90.4z M110.5,92.3l1-1
		c0.2,0.1,0.4,0.2,0.7,0.3V93C111.6,92.9,111,92.7,110.5,92.3z M112.4,93v-1.4c0.2,0,0.5-0.1,0.6-0.3l1,1
		C113.7,92.7,113.1,92.9,112.4,93z M114.3,92.1l-1-1c0.1-0.2,0.2-0.4,0.3-0.7h1.4C114.9,91.1,114.7,91.6,114.3,92.1z"/>
	<path class="st0" d="M109.8,79.7L109.8,79.7l0-0.5c0-0.1,0-0.1,0-0.2c0-0.1,0-0.1,0-0.2l0-0.4l2.2-0.4c0-0.4,0-0.8-0.1-1.3
		l-2.3-0.2c-0.1-0.9-0.3-1.9-0.5-2.7l2-1c-0.1-0.4-0.3-0.8-0.4-1.2l-2.2,0.4c-0.4-0.9-0.8-1.7-1.3-2.5l1.7-1.6
		c-0.2-0.4-0.5-0.7-0.7-1l-2,1c-0.1-0.1-0.1-0.1-0.2-0.2l0,0l-0.9-1l0,0c-0.3-0.3-0.5-0.6-0.8-0.8l1.1-2c-0.3-0.3-0.7-0.5-1-0.8
		l-1.6,1.6c-0.8-0.5-1.6-1-2.4-1.4l0.5-2.2c-0.4-0.2-0.8-0.3-1.2-0.5l-1.1,2c-0.9-0.3-1.8-0.5-2.7-0.7l-0.1-2.3
		c-0.4-0.1-0.8-0.1-1.3-0.1L94,61.8l-0.5,0l0,0c-0.8,0-1.6,0-2.3,0.1l-0.7-2.2c-0.4,0.1-0.8,0.1-1.2,0.2l0.1,2.3
		c-0.9,0.2-1.8,0.5-2.6,0.9l-1.3-1.9c-0.4,0.2-0.8,0.4-1.1,0.6L85,64c-0.8,0.4-1.5,1-2.2,1.5l0,0l-0.1,0.1L81,64.2
		c-0.3,0.3-0.6,0.6-0.9,0.9l1.3,1.9c-0.6,0.7-1.2,1.4-1.7,2.2l-2.1-0.9c-0.2,0.4-0.4,0.7-0.6,1.1l1.8,1.4c-0.4,0.8-0.8,1.7-1,2.6
		l-2.3-0.2c-0.1,0.4-0.2,0.8-0.3,1.2l2.1,0.8c-0.1,0.5-0.1,1-0.2,1.4l0,0l0,0.5c0,0.1,0,0.1,0,0.2c0,0.1,0,0.1,0,0.2l0,0.4l-2.2,0.4
		c0,0.4,0,0.8,0.1,1.3l2.3,0.2c0.1,0.9,0.3,1.9,0.5,2.7l-2,1c0.1,0.4,0.3,0.8,0.4,1.2l2.2-0.4c0.4,0.9,0.8,1.7,1.3,2.5l-1.7,1.6
		c0.2,0.4,0.5,0.7,0.7,1l2-1c0.1,0.1,0.1,0.1,0.2,0.2l0,0l0.9,1l0,0c0.3,0.3,0.5,0.5,0.8,0.8l-1.1,2c0.3,0.3,0.7,0.5,1,0.8l1.6-1.6
		c0.8,0.5,1.6,1,2.4,1.4l-0.6,2.2c0.4,0.2,0.8,0.3,1.2,0.5l1.1-2c0.9,0.3,1.8,0.5,2.7,0.7l0.1,2.3c0.4,0.1,0.8,0.1,1.3,0.1l0.5-2.2
		l0.5,0l0,0c0.8,0,1.6,0,2.3-0.1l0.7,2.2c0.4-0.1,0.8-0.1,1.2-0.2l-0.1-2.3c0.9-0.2,1.8-0.5,2.6-0.9l1.3,1.9
		c0.4-0.2,0.8-0.4,1.1-0.6l-0.7-2.2c0.8-0.4,1.5-1,2.2-1.5l0,0l0.1-0.1l1.8,1.4c0.3-0.3,0.6-0.6,0.9-0.9l-1.3-1.9
		c0.6-0.7,1.2-1.4,1.7-2.2l2.1,0.9c0.2-0.4,0.4-0.7,0.6-1.1l-1.8-1.4c0.4-0.8,0.8-1.7,1-2.6l2.3,0.2c0.1-0.4,0.2-0.8,0.3-1.2
		l-2.1-0.8C109.6,80.7,109.7,80.2,109.8,79.7z M92.6,92.8c-8.1-0.4-14.3-7.3-13.8-15.4c0.4-8.1,7.3-14.3,15.4-13.8
		c8.1,0.4,14.3,7.3,13.8,15.4C107.6,87,100.7,93.2,92.6,92.8z"/>
	<g>
		<path class="st1" d="M163,69.6L163,69.6l0-0.2c0,0,0,0,0,0c0,0,0,0,0-0.1v-0.1l0.7-0.2c0-0.1,0-0.3,0-0.4l-0.7,0
			c0-0.3-0.1-0.6-0.2-0.8l0.6-0.4c0-0.1-0.1-0.2-0.1-0.4l-0.7,0.2c-0.1-0.3-0.3-0.5-0.4-0.7l0.5-0.5c-0.1-0.1-0.2-0.2-0.2-0.3
			l-0.6,0.4c0,0,0,0-0.1-0.1l0,0l-0.3-0.3l0,0c-0.1-0.1-0.2-0.2-0.3-0.2l0.3-0.6c-0.1-0.1-0.2-0.2-0.3-0.2l-0.5,0.5
			c-0.2-0.2-0.5-0.3-0.8-0.4L160,64c-0.1,0-0.2-0.1-0.4-0.1l-0.3,0.6c-0.3-0.1-0.6-0.1-0.8-0.2l-0.1-0.7c-0.1,0-0.3,0-0.4,0
			l-0.1,0.7h-0.1v0c-0.2,0-0.5,0-0.7,0.1l-0.3-0.7c-0.1,0-0.3,0.1-0.4,0.1l0.1,0.7c-0.3,0.1-0.5,0.2-0.8,0.3l-0.4-0.6
			c-0.1,0.1-0.2,0.1-0.3,0.2l0.3,0.7c-0.2,0.1-0.4,0.3-0.6,0.5l0,0l0,0l-0.6-0.4c-0.1,0.1-0.2,0.2-0.3,0.3l0.4,0.6
			c-0.2,0.2-0.4,0.5-0.5,0.7l-0.7-0.2c-0.1,0.1-0.1,0.2-0.2,0.3l0.6,0.4c-0.1,0.3-0.2,0.5-0.3,0.8l-0.7,0c0,0.1-0.1,0.3-0.1,0.4
			l0.7,0.2c0,0.1,0,0.3,0,0.4h0v0.2c0,0,0,0,0,0c0,0,0,0,0,0.1v0.1l-0.7,0.2c0,0.1,0,0.3,0,0.4l0.7,0c0,0.3,0.1,0.6,0.2,0.8
			l-0.6,0.4c0,0.1,0.1,0.2,0.1,0.4l0.7-0.2c0.1,0.3,0.3,0.5,0.4,0.7l-0.5,0.5c0.1,0.1,0.2,0.2,0.2,0.3l0.6-0.4c0,0,0,0,0.1,0.1l0,0
			l0.3,0.3l0,0c0.1,0.1,0.2,0.2,0.3,0.2l-0.3,0.6c0.1,0.1,0.2,0.2,0.3,0.2l0.5-0.5c0.2,0.2,0.5,0.3,0.8,0.4l-0.1,0.7
			c0.1,0,0.2,0.1,0.4,0.1l0.3-0.6c0.3,0.1,0.6,0.1,0.8,0.2l0.1,0.7c0.1,0,0.3,0,0.4,0l0.1-0.7h0.1v0c0.2,0,0.5,0,0.7-0.1l0.3,0.7
			c0.1,0,0.3-0.1,0.4-0.1l-0.1-0.7c0.3-0.1,0.5-0.2,0.8-0.3l0.4,0.6c0.1-0.1,0.2-0.1,0.3-0.2l-0.3-0.7c0.2-0.1,0.4-0.3,0.6-0.5l0,0
			l0,0l0.6,0.4c0.1-0.1,0.2-0.2,0.3-0.3l-0.4-0.5c0.2-0.2,0.4-0.5,0.5-0.7l0.7,0.2c0.1-0.1,0.1-0.2,0.2-0.3l-0.6-0.4
			c0.1-0.3,0.2-0.5,0.3-0.8l0.7,0c0-0.1,0.1-0.3,0.1-0.4L163,70C163,69.9,163,69.7,163,69.6z M162.5,69.1H160c0-0.4-0.2-0.8-0.5-1.1
			l1.7-1.7C162,67.1,162.4,68.1,162.5,69.1z M157.9,70.8c-0.8,0-1.5-0.7-1.5-1.5c0-0.8,0.7-1.5,1.5-1.5c0.8,0,1.5,0.7,1.5,1.5
			C159.4,70.2,158.7,70.8,157.9,70.8z M161,66l-1.7,1.7c-0.3-0.3-0.7-0.4-1.1-0.5v-2.5C159.2,64.9,160.2,65.3,161,66z M157.7,64.8
			v2.5c-0.4,0-0.8,0.2-1.1,0.5l-1.7-1.7C155.6,65.3,156.6,64.9,157.7,64.8z M154.6,66.3l1.7,1.7c-0.3,0.3-0.4,0.7-0.5,1.1h-2.5
			C153.4,68.1,153.9,67.1,154.6,66.3z M153.4,69.6h2.5c0,0.4,0.2,0.8,0.5,1.1l-1.7,1.7C153.9,71.7,153.4,70.7,153.4,69.6z
			 M154.9,72.7l1.7-1.7c0.3,0.3,0.7,0.4,1.1,0.5v2.5C156.6,73.8,155.6,73.4,154.9,72.7z M158.1,73.9v-2.5c0.4,0,0.8-0.2,1.1-0.5
			l1.7,1.7C160.2,73.4,159.2,73.8,158.1,73.9z M161.3,72.4l-1.7-1.7c0.3-0.3,0.4-0.7,0.5-1.1h2.5C162.4,70.7,162,71.7,161.3,72.4z"
			/>
		<path class="st1" d="M132.9,65.3L132.9,65.3l0-0.1c0,0,0,0,0,0c0,0,0,0,0,0V65l0.5-0.1c0-0.1,0-0.2,0-0.3l-0.5,0
			c0-0.2-0.1-0.4-0.1-0.6l0.4-0.3c0-0.1-0.1-0.2-0.1-0.3l-0.5,0.1c-0.1-0.2-0.2-0.4-0.3-0.5l0.4-0.4c-0.1-0.1-0.1-0.1-0.2-0.2
			l-0.4,0.3c0,0,0,0,0,0l0,0l-0.2-0.2l0,0c-0.1-0.1-0.1-0.1-0.2-0.2l0.2-0.5c-0.1-0.1-0.2-0.1-0.2-0.2l-0.3,0.4
			c-0.2-0.1-0.4-0.2-0.6-0.3l0.1-0.5c-0.1,0-0.2-0.1-0.3-0.1l-0.2,0.5c-0.2-0.1-0.4-0.1-0.6-0.1l0-0.5c-0.1,0-0.2,0-0.3,0l-0.1,0.5
			h-0.1v0c-0.2,0-0.3,0-0.5,0.1l-0.2-0.5c-0.1,0-0.2,0-0.3,0.1l0.1,0.5c-0.2,0.1-0.4,0.1-0.6,0.2l-0.3-0.4c-0.1,0-0.2,0.1-0.2,0.1
			l0.2,0.5c-0.2,0.1-0.3,0.2-0.5,0.4l0,0l0,0l-0.4-0.3c-0.1,0.1-0.1,0.1-0.2,0.2l0.3,0.4c-0.1,0.2-0.3,0.3-0.4,0.5l-0.5-0.2
			c0,0.1-0.1,0.2-0.1,0.3l0.4,0.3c-0.1,0.2-0.2,0.4-0.2,0.6l-0.5,0c0,0.1,0,0.2-0.1,0.3l0.5,0.2c0,0.1,0,0.2,0,0.3h0v0.1
			c0,0,0,0,0,0c0,0,0,0,0,0v0.1l-0.5,0.1c0,0.1,0,0.2,0,0.3l0.5,0c0,0.2,0.1,0.4,0.1,0.6l-0.4,0.3c0,0.1,0.1,0.2,0.1,0.3l0.5-0.1
			c0.1,0.2,0.2,0.4,0.3,0.5l-0.4,0.4c0.1,0.1,0.1,0.1,0.2,0.2l0.4-0.3c0,0,0,0,0,0l0,0l0.2,0.2l0,0c0.1,0.1,0.1,0.1,0.2,0.2
			l-0.2,0.5c0.1,0.1,0.2,0.1,0.2,0.2l0.3-0.4c0.2,0.1,0.4,0.2,0.6,0.3l-0.1,0.5c0.1,0,0.2,0.1,0.3,0.1l0.2-0.5
			c0.2,0.1,0.4,0.1,0.6,0.1l0,0.5c0.1,0,0.2,0,0.3,0l0.1-0.5h0.1v0c0.2,0,0.4,0,0.5-0.1l0.2,0.5c0.1,0,0.2,0,0.3-0.1l-0.1-0.5
			c0.2-0.1,0.4-0.1,0.6-0.2l0.3,0.4c0.1,0,0.2-0.1,0.2-0.1l-0.2-0.5c0.2-0.1,0.3-0.2,0.5-0.4l0,0l0,0l0.4,0.3
			c0.1-0.1,0.1-0.1,0.2-0.2l-0.3-0.4c0.1-0.2,0.3-0.3,0.4-0.5l0.5,0.2c0-0.1,0.1-0.2,0.1-0.3l-0.4-0.3c0.1-0.2,0.2-0.4,0.2-0.6
			l0.5,0c0-0.1,0-0.2,0.1-0.3l-0.5-0.2C132.9,65.5,132.9,65.4,132.9,65.3z M132.5,65h-1.8c0-0.3-0.2-0.6-0.3-0.8l1.3-1.3
			C132.2,63.5,132.5,64.2,132.5,65z M129.2,66.2c-0.6,0-1.1-0.5-1.1-1.1s0.5-1.1,1.1-1.1c0.6,0,1.1,0.5,1.1,1.1
			S129.8,66.2,129.2,66.2z M131.5,62.7l-1.3,1.3c-0.2-0.2-0.5-0.3-0.8-0.3v-1.8C130.2,61.9,130.9,62.2,131.5,62.7z M129.1,61.9v1.8
			c-0.3,0-0.6,0.2-0.8,0.3l-1.3-1.3C127.6,62.2,128.3,61.9,129.1,61.9z M126.8,63l1.3,1.3c-0.2,0.2-0.3,0.5-0.3,0.8H126
			C126,64.2,126.3,63.5,126.8,63z M126,65.3h1.8c0,0.3,0.2,0.6,0.3,0.8l-1.3,1.3C126.3,66.8,126,66.1,126,65.3z M127,67.6l1.3-1.3
			c0.2,0.2,0.5,0.3,0.8,0.3v1.8C128.3,68.4,127.6,68.1,127,67.6z M129.4,68.5v-1.8c0.3,0,0.6-0.2,0.8-0.3l1.3,1.3
			C130.9,68.1,130.2,68.4,129.4,68.5z M131.7,67.4l-1.3-1.3c0.2-0.2,0.3-0.5,0.3-0.8h1.8C132.5,66.1,132.2,66.8,131.7,67.4z"/>
		<path class="st1" d="M100.1,51.9L100.1,51.9l0-0.2c0,0,0,0,0-0.1c0,0,0-0.1,0-0.1v-0.2l0.8-0.2c0-0.2,0-0.3,0-0.5l-0.9,0
			c-0.1-0.4-0.1-0.7-0.3-1l0.7-0.4c-0.1-0.1-0.1-0.3-0.2-0.4l-0.8,0.2c-0.2-0.3-0.3-0.6-0.5-0.9l0.6-0.6c-0.1-0.1-0.2-0.3-0.3-0.4
			l-0.7,0.4c0,0,0-0.1-0.1-0.1l0,0L98.1,47l0,0c-0.1-0.1-0.2-0.2-0.3-0.3l0.4-0.8c-0.1-0.1-0.3-0.2-0.4-0.3l-0.6,0.6
			c-0.3-0.2-0.6-0.3-0.9-0.5l0.2-0.8c-0.1-0.1-0.3-0.1-0.5-0.2l-0.4,0.8c-0.3-0.1-0.7-0.2-1-0.2l-0.1-0.9c-0.2,0-0.3,0-0.5,0
			l-0.2,0.8h-0.2v0c-0.3,0-0.6,0-0.9,0.1l-0.3-0.8c-0.2,0-0.3,0.1-0.5,0.1l0.1,0.9c-0.3,0.1-0.7,0.2-1,0.4l-0.5-0.7
			c-0.1,0.1-0.3,0.2-0.4,0.2l0.3,0.8c-0.3,0.2-0.5,0.4-0.8,0.6l0,0l0,0l-0.7-0.5c-0.1,0.1-0.2,0.2-0.3,0.3l0.5,0.7
			c-0.2,0.3-0.4,0.6-0.6,0.9l-0.8-0.3c-0.1,0.1-0.2,0.3-0.2,0.4l0.7,0.5c-0.1,0.3-0.3,0.7-0.3,1l-0.9,0c0,0.2-0.1,0.3-0.1,0.5
			l0.8,0.3c0,0.2,0,0.4,0,0.5h0v0.2c0,0,0,0,0,0.1c0,0,0,0.1,0,0.1v0.2l-0.8,0.2c0,0.2,0,0.3,0,0.5l0.9,0c0.1,0.4,0.1,0.7,0.3,1
			L87.2,54c0.1,0.2,0.1,0.3,0.2,0.4l0.8-0.2c0.2,0.3,0.3,0.6,0.5,0.9l-0.6,0.6c0.1,0.1,0.2,0.3,0.3,0.4l0.7-0.4c0,0,0.1,0.1,0.1,0.1
			l0,0l0.4,0.4l0,0c0.1,0.1,0.2,0.2,0.3,0.3l-0.4,0.8c0.1,0.1,0.3,0.2,0.4,0.3l0.6-0.6c0.3,0.2,0.6,0.3,0.9,0.5l-0.2,0.8
			c0.1,0.1,0.3,0.1,0.5,0.2l0.4-0.8c0.3,0.1,0.7,0.2,1,0.2l0.1,0.9c0.2,0,0.3,0,0.5,0l0.2-0.8h0.2v0c0.3,0,0.6,0,0.9-0.1l0.3,0.8
			c0.2,0,0.3-0.1,0.5-0.1l-0.1-0.9c0.3-0.1,0.7-0.2,1-0.4l0.5,0.7c0.1-0.1,0.3-0.2,0.4-0.2l-0.3-0.8c0.3-0.2,0.5-0.4,0.8-0.6l0,0
			l0,0l0.7,0.5c0.1-0.1,0.2-0.2,0.3-0.3l-0.5-0.7c0.2-0.3,0.4-0.6,0.6-0.9L100,55c0.1-0.1,0.2-0.3,0.2-0.4l-0.7-0.5
			c0.1-0.3,0.3-0.7,0.3-1l0.9,0c0-0.2,0.1-0.3,0.1-0.5l-0.8-0.3C100,52.2,100,52,100.1,51.9z M99.4,51.4h-3c-0.1-0.5-0.3-1-0.6-1.4
			l2.1-2.1C98.8,48.8,99.3,50,99.4,51.4z M93.9,53.4c-1,0-1.8-0.8-1.8-1.8c0-1,0.8-1.8,1.8-1.8c1,0,1.8,0.8,1.8,1.8
			C95.6,52.6,94.8,53.4,93.9,53.4z M97.6,47.5l-2.1,2.1c-0.4-0.3-0.8-0.5-1.4-0.6v-3C95.4,46.1,96.7,46.7,97.6,47.5z M93.6,46.1v3
			c-0.5,0.1-1,0.3-1.4,0.6l-2.1-2.1C91,46.7,92.3,46.1,93.6,46.1z M89.8,47.9l2.1,2.1c-0.3,0.4-0.5,0.8-0.6,1.4h-3
			C88.4,50,88.9,48.8,89.8,47.9z M88.3,51.9h3c0.1,0.5,0.3,1,0.6,1.4l-2.1,2.1C88.9,54.4,88.4,53.2,88.3,51.9z M90.1,55.7l2.1-2.1
			c0.4,0.3,0.8,0.5,1.4,0.6v3C92.3,57.1,91,56.5,90.1,55.7z M94.1,57.1v-3c0.5-0.1,1-0.3,1.4-0.6l2.1,2.1
			C96.7,56.5,95.4,57.1,94.1,57.1z M97.9,55.3l-2.1-2.1c0.3-0.4,0.5-0.8,0.6-1.4h3C99.3,53.2,98.8,54.4,97.9,55.3z"/>
		<path class="st1" d="M22.8,17.9L22.8,17.9l0-0.2c0,0,0,0,0-0.1c0,0,0-0.1,0-0.1v-0.2l0.9-0.2c0-0.2,0-0.3,0-0.5l-0.9,0
			c-0.1-0.4-0.1-0.7-0.3-1.1l0.8-0.5c-0.1-0.2-0.1-0.3-0.2-0.5l-0.9,0.2c-0.2-0.3-0.4-0.7-0.6-1l0.6-0.7c-0.1-0.1-0.2-0.3-0.3-0.4
			l-0.8,0.5c0,0-0.1-0.1-0.1-0.1l0,0l-0.4-0.4l0,0c-0.1-0.1-0.2-0.2-0.4-0.3l0.4-0.8c-0.1-0.1-0.3-0.2-0.4-0.3L19.7,12
			c-0.3-0.2-0.6-0.4-1-0.5l0.2-0.9c-0.2-0.1-0.3-0.1-0.5-0.2L18,11.2c-0.4-0.1-0.7-0.2-1.1-0.2l-0.1-0.9c-0.2,0-0.3,0-0.5,0L16.1,11
			h-0.2v0c-0.3,0-0.6,0-0.9,0.1l-0.3-0.9c-0.2,0-0.3,0.1-0.5,0.1l0.1,0.9c-0.4,0.1-0.7,0.3-1,0.4L12.7,11c-0.2,0.1-0.3,0.2-0.4,0.3
			l0.3,0.8c-0.3,0.2-0.6,0.4-0.8,0.7l0,0l0,0l-0.7-0.5c-0.1,0.1-0.2,0.2-0.4,0.4l0.6,0.7c-0.2,0.3-0.5,0.6-0.6,0.9L9.6,14
			c-0.1,0.1-0.2,0.3-0.2,0.5l0.8,0.5C10,15.3,9.9,15.6,9.8,16l-0.9,0c0,0.2-0.1,0.3-0.1,0.5l0.9,0.3c0,0.2,0,0.4,0,0.6h0v0.2
			c0,0,0,0,0,0.1c0,0,0,0.1,0,0.1v0.2l-0.9,0.2c0,0.2,0,0.3,0.1,0.5l0.9,0c0.1,0.4,0.1,0.7,0.3,1.1l-0.8,0.5
			c0.1,0.2,0.1,0.3,0.2,0.5l0.9-0.2c0.2,0.3,0.4,0.7,0.6,1l-0.6,0.7c0.1,0.1,0.2,0.3,0.3,0.4l0.8-0.5c0,0,0.1,0.1,0.1,0.1l0,0
			l0.4,0.4l0,0c0.1,0.1,0.2,0.2,0.4,0.3l-0.4,0.8c0.1,0.1,0.3,0.2,0.4,0.3l0.6-0.7c0.3,0.2,0.7,0.4,1,0.5l-0.2,0.9
			c0.2,0.1,0.3,0.1,0.5,0.2l0.4-0.8c0.4,0.1,0.7,0.2,1.1,0.2l0.1,0.9c0.2,0,0.3,0,0.5,0l0.2-0.9h0.2v0c0.3,0,0.6,0,0.9-0.1l0.3,0.9
			c0.2,0,0.3-0.1,0.5-0.1L18.2,24c0.4-0.1,0.7-0.3,1-0.4l0.6,0.7c0.2-0.1,0.3-0.2,0.4-0.3l-0.3-0.8c0.3-0.2,0.6-0.4,0.8-0.7l0,0l0,0
			l0.7,0.5c0.1-0.1,0.2-0.2,0.4-0.4l-0.6-0.7c0.2-0.3,0.5-0.6,0.6-0.9l0.9,0.3c0.1-0.1,0.2-0.3,0.2-0.5l-0.8-0.5
			c0.2-0.3,0.3-0.7,0.4-1.1l0.9,0c0-0.2,0.1-0.3,0.1-0.5l-0.9-0.3C22.8,18.3,22.8,18.1,22.8,17.9z M22.1,17.3h-3.2
			c-0.1-0.5-0.3-1-0.6-1.4l2.3-2.3C21.5,14.6,22.1,15.9,22.1,17.3z M16.2,19.5c-1.1,0-1.9-0.9-1.9-1.9c0-1.1,0.9-1.9,1.9-1.9
			c1,0,1.9,0.9,1.9,1.9C18.1,18.7,17.3,19.5,16.2,19.5z M20.2,13.3l-2.3,2.3c-0.4-0.3-0.9-0.5-1.5-0.6v-3.2
			C17.9,11.8,19.2,12.4,20.2,13.3z M15.9,11.7v3.2c-0.5,0.1-1,0.3-1.5,0.6l-2.3-2.3C13.2,12.4,14.5,11.8,15.9,11.7z M11.8,13.6
			l2.3,2.3c-0.3,0.4-0.5,0.9-0.6,1.4h-3.2C10.4,15.9,10.9,14.6,11.8,13.6z M10.3,17.9h3.2c0.1,0.5,0.3,1,0.6,1.5l-2.3,2.3
			C10.9,20.6,10.4,19.3,10.3,17.9z M12.2,22l2.3-2.3c0.4,0.3,0.9,0.5,1.5,0.6v3.2C14.5,23.5,13.2,22.9,12.2,22z M16.5,23.5v-3.2
			c0.5-0.1,1-0.3,1.5-0.6l2.3,2.3C19.2,22.9,17.9,23.5,16.5,23.5z M20.6,21.6l-2.3-2.3c0.3-0.4,0.5-0.9,0.6-1.5h3.2
			C22.1,19.3,21.5,20.6,20.6,21.6z"/>
	</g>
	<g>
		<path class="st2" d="M87.4,42.5L87.4,42.5l0-0.3c0,0,0-0.1,0-0.1c0,0,0-0.1,0-0.1v-0.3l1.4-0.3c0-0.3,0-0.5-0.1-0.8l-1.4-0.1
			c-0.1-0.6-0.2-1.1-0.4-1.7l1.2-0.7c-0.1-0.2-0.2-0.5-0.3-0.7l-1.4,0.3c-0.2-0.5-0.5-1-0.9-1.5l1-1c-0.2-0.2-0.3-0.4-0.5-0.6
			l-1.2,0.7c0,0-0.1-0.1-0.1-0.1l0,0l-0.6-0.6l0,0c-0.2-0.2-0.4-0.3-0.5-0.5l0.6-1.2c-0.2-0.2-0.4-0.3-0.6-0.4l-1,1
			c-0.5-0.3-1-0.6-1.5-0.8l0.3-1.4c-0.2-0.1-0.5-0.2-0.7-0.3L80,32.3c-0.5-0.2-1.1-0.3-1.7-0.3l-0.1-1.4c-0.3,0-0.5,0-0.8,0
			l-0.3,1.4h-0.3v0c-0.5,0-1,0.1-1.4,0.2l-0.5-1.3c-0.3,0.1-0.5,0.1-0.8,0.2l0.1,1.4c-0.6,0.2-1.1,0.4-1.6,0.6l-0.9-1.1
			c-0.2,0.1-0.5,0.3-0.7,0.4l0.5,1.3c-0.5,0.3-0.9,0.6-1.3,1l0,0l-0.1,0.1l-1.1-0.8c-0.2,0.2-0.4,0.4-0.5,0.6l0.9,1.1
			c-0.4,0.4-0.7,0.9-1,1.4l-1.3-0.5c-0.1,0.2-0.2,0.5-0.4,0.7L68,38c-0.2,0.5-0.4,1.1-0.6,1.6L66,39.5c-0.1,0.3-0.1,0.5-0.1,0.8
			l1.3,0.5c0,0.3-0.1,0.6-0.1,0.9h0V42c0,0,0,0.1,0,0.1c0,0,0,0.1,0,0.1v0.3l-1.4,0.3c0,0.3,0,0.5,0.1,0.8l1.4,0.1
			c0.1,0.6,0.2,1.1,0.4,1.7L66.4,46c0.1,0.2,0.2,0.5,0.3,0.7l1.4-0.3c0.2,0.5,0.5,1,0.9,1.5l-1,1c0.2,0.2,0.3,0.4,0.5,0.6l1.2-0.7
			c0,0,0.1,0.1,0.1,0.1l0,0l0.6,0.6l0,0c0.2,0.2,0.4,0.3,0.5,0.5l-0.6,1.2c0.2,0.2,0.4,0.3,0.6,0.5l1-1c0.5,0.3,1,0.6,1.5,0.8
			l-0.3,1.4c0.2,0.1,0.5,0.2,0.7,0.3l0.6-1.3c0.5,0.2,1.1,0.3,1.7,0.3l0.1,1.4c0.3,0,0.5,0,0.8,0l0.3-1.4h0.3v0c0.5,0,1-0.1,1.4-0.2
			l0.5,1.3c0.3-0.1,0.5-0.1,0.8-0.2l-0.1-1.4c0.6-0.2,1.1-0.4,1.6-0.6l0.9,1.1c0.2-0.1,0.5-0.3,0.7-0.4l-0.5-1.3
			c0.4-0.3,0.9-0.6,1.3-1l0,0l0.1-0.1l1.1,0.8c0.2-0.2,0.4-0.4,0.5-0.6L85,48.6c0.4-0.4,0.7-0.9,1-1.4l1.3,0.5
			c0.1-0.2,0.2-0.5,0.4-0.7l-1.1-0.8c0.2-0.5,0.4-1.1,0.6-1.6l1.4,0.1c0.1-0.3,0.1-0.5,0.1-0.8l-1.3-0.5
			C87.3,43.1,87.4,42.8,87.4,42.5z M86.3,41.7h-4.9c-0.1-0.8-0.4-1.6-0.9-2.2l3.5-3.5C85.3,37.5,86.2,39.5,86.3,41.7z M77.3,45
			c-1.6,0-2.9-1.3-2.9-2.9c0-1.6,1.3-2.9,2.9-2.9c1.6,0,2.9,1.3,2.9,2.9C80.2,43.7,78.9,45,77.3,45z M83.3,35.4l-3.5,3.5
			c-0.6-0.5-1.4-0.8-2.2-0.9v-4.9C79.9,33.1,81.8,34,83.3,35.4z M76.8,33v4.9c-0.8,0.1-1.6,0.4-2.2,0.9l-3.5-3.5
			C72.7,34,74.7,33.1,76.8,33z M70.6,36l3.5,3.5c-0.5,0.6-0.8,1.4-0.9,2.2h-4.9C68.3,39.5,69.2,37.5,70.6,36z M68.2,42.5h4.9
			c0.1,0.8,0.4,1.6,0.9,2.2l-3.5,3.5C69.2,46.6,68.3,44.7,68.2,42.5z M71.2,48.7l3.5-3.5c0.6,0.5,1.4,0.8,2.2,0.9v4.9
			C74.7,51,72.7,50.1,71.2,48.7z M77.7,51.1v-4.9c0.8-0.1,1.6-0.4,2.2-0.9l3.5,3.5C81.8,50.1,79.9,51,77.7,51.1z M83.9,48.2
			l-3.5-3.5c0.5-0.6,0.8-1.4,0.9-2.2h4.9C86.2,44.7,85.3,46.6,83.9,48.2z"/>
		<path class="st2" d="M84.5,58.1L84.5,58.1l0-0.1c0,0,0,0,0,0c0,0,0,0,0-0.1v-0.1l0.5-0.1c0-0.1,0-0.2,0-0.3l-0.5,0
			c0-0.2-0.1-0.4-0.2-0.6l0.4-0.3c0-0.1-0.1-0.2-0.1-0.3l-0.5,0.1c-0.1-0.2-0.2-0.4-0.3-0.5l0.4-0.4c-0.1-0.1-0.1-0.1-0.2-0.2
			l-0.4,0.3c0,0,0,0,0,0l0,0l-0.2-0.2l0,0c-0.1-0.1-0.1-0.1-0.2-0.2l0.2-0.5c-0.1-0.1-0.2-0.1-0.2-0.2l-0.4,0.4
			c-0.2-0.1-0.4-0.2-0.6-0.3l0.1-0.5c-0.1,0-0.2-0.1-0.3-0.1l-0.2,0.5c-0.2-0.1-0.4-0.1-0.6-0.1l0-0.5c-0.1,0-0.2,0-0.3,0l-0.1,0.5
			h-0.1v0c-0.2,0-0.4,0-0.5,0.1l-0.2-0.5c-0.1,0-0.2,0-0.3,0.1l0.1,0.5c-0.2,0.1-0.4,0.1-0.6,0.2l-0.3-0.4c-0.1,0-0.2,0.1-0.2,0.1
			l0.2,0.5c-0.2,0.1-0.3,0.2-0.5,0.4l0,0l0,0L77.8,55c-0.1,0.1-0.1,0.1-0.2,0.2l0.3,0.4c-0.1,0.2-0.3,0.3-0.4,0.5l-0.5-0.2
			c0,0.1-0.1,0.2-0.1,0.3l0.4,0.3c-0.1,0.2-0.2,0.4-0.2,0.6l-0.5,0c0,0.1,0,0.2-0.1,0.3l0.5,0.2c0,0.1,0,0.2,0,0.3h0v0.1
			c0,0,0,0,0,0c0,0,0,0,0,0.1v0.1l-0.5,0.1c0,0.1,0,0.2,0,0.3l0.5,0c0,0.2,0.1,0.4,0.2,0.6l-0.4,0.3c0,0.1,0.1,0.2,0.1,0.3l0.5-0.1
			c0.1,0.2,0.2,0.4,0.3,0.5l-0.4,0.4c0.1,0.1,0.1,0.2,0.2,0.2l0.4-0.3c0,0,0,0,0,0l0,0l0.2,0.2l0,0c0.1,0.1,0.1,0.1,0.2,0.2
			l-0.2,0.5c0.1,0.1,0.2,0.1,0.2,0.2l0.4-0.4c0.2,0.1,0.4,0.2,0.6,0.3l-0.1,0.5c0.1,0,0.2,0.1,0.3,0.1l0.2-0.5
			c0.2,0.1,0.4,0.1,0.6,0.1l0,0.5c0.1,0,0.2,0,0.3,0l0.1-0.5h0.1v0c0.2,0,0.4,0,0.5-0.1l0.2,0.5c0.1,0,0.2,0,0.3-0.1l-0.1-0.5
			c0.2-0.1,0.4-0.1,0.6-0.2l0.3,0.4c0.1,0,0.2-0.1,0.2-0.1l-0.2-0.5c0.2-0.1,0.3-0.2,0.5-0.4l0,0l0,0l0.4,0.3
			c0.1-0.1,0.1-0.1,0.2-0.2l-0.3-0.4c0.1-0.2,0.3-0.3,0.4-0.5l0.5,0.2c0-0.1,0.1-0.2,0.1-0.3l-0.4-0.3c0.1-0.2,0.2-0.4,0.2-0.6
			l0.5,0c0-0.1,0-0.2,0.1-0.3l-0.5-0.2C84.5,58.3,84.5,58.2,84.5,58.1z M84.1,57.8h-1.8c0-0.3-0.2-0.6-0.3-0.8l1.3-1.3
			C83.7,56.3,84,57,84.1,57.8z M80.8,59c-0.6,0-1.1-0.5-1.1-1.1c0-0.6,0.5-1.1,1.1-1.1c0.6,0,1.1,0.5,1.1,1.1
			C81.8,58.6,81.4,59,80.8,59z M83,55.5l-1.3,1.3c-0.2-0.2-0.5-0.3-0.8-0.3v-1.8C81.7,54.7,82.4,55,83,55.5z M80.6,54.7v1.8
			c-0.3,0-0.6,0.2-0.8,0.3l-1.3-1.3C79.1,55,79.8,54.7,80.6,54.7z M78.3,55.7l1.3,1.3c-0.2,0.2-0.3,0.5-0.3,0.8h-1.8
			C77.5,57,77.8,56.3,78.3,55.7z M77.5,58.1h1.8c0,0.3,0.2,0.6,0.3,0.8l-1.3,1.3C77.8,59.6,77.5,58.9,77.5,58.1z M78.5,60.4l1.3-1.3
			c0.2,0.2,0.5,0.3,0.8,0.3v1.8C79.8,61.2,79.1,60.9,78.5,60.4z M80.9,61.3v-1.8c0.3,0,0.6-0.2,0.8-0.3l1.3,1.3
			C82.4,60.9,81.7,61.2,80.9,61.3z M83.2,60.2l-1.3-1.3c0.2-0.2,0.3-0.5,0.3-0.8h1.8C84,58.9,83.7,59.6,83.2,60.2z"/>
		<path class="st2" d="M161.2,83.8L161.2,83.8l0-0.2c0,0,0,0,0-0.1c0,0,0-0.1,0-0.1v-0.2l1-0.2c0-0.2,0-0.4-0.1-0.6l-1,0
			c-0.1-0.4-0.2-0.8-0.3-1.2l0.9-0.5c-0.1-0.2-0.1-0.3-0.2-0.5l-1,0.2c-0.2-0.4-0.4-0.7-0.6-1.1l0.7-0.7c-0.1-0.2-0.2-0.3-0.4-0.4
			l-0.9,0.5c0,0-0.1-0.1-0.1-0.1l0,0l-0.4-0.4l0,0c-0.1-0.1-0.3-0.2-0.4-0.3l0.5-0.9c-0.1-0.1-0.3-0.2-0.5-0.3l-0.7,0.7
			c-0.4-0.2-0.7-0.4-1.1-0.6l0.2-1c-0.2-0.1-0.4-0.1-0.5-0.2l-0.5,0.9c-0.4-0.1-0.8-0.2-1.2-0.2l-0.1-1c-0.2,0-0.4,0-0.6,0l-0.2,1
			h-0.2v0c-0.4,0-0.7,0-1,0.1l-0.4-0.9c-0.2,0-0.4,0.1-0.5,0.1l0.1,1c-0.4,0.1-0.8,0.3-1.2,0.5l-0.6-0.8c-0.2,0.1-0.3,0.2-0.5,0.3
			l0.4,0.9c-0.3,0.2-0.6,0.5-0.9,0.7l0,0l-0.1,0l-0.8-0.6c-0.1,0.1-0.3,0.3-0.4,0.4l0.6,0.8c-0.3,0.3-0.5,0.7-0.7,1l-1-0.3
			c-0.1,0.2-0.2,0.3-0.3,0.5l0.8,0.6c-0.2,0.4-0.3,0.8-0.4,1.2l-1-0.1c0,0.2-0.1,0.4-0.1,0.6l1,0.3c0,0.2,0,0.4-0.1,0.6h0v0.2
			c0,0,0,0,0,0.1c0,0,0,0.1,0,0.1v0.2l-1,0.2c0,0.2,0,0.4,0.1,0.6l1,0c0.1,0.4,0.2,0.8,0.3,1.2l-0.9,0.5c0.1,0.2,0.1,0.4,0.2,0.5
			l1-0.2c0.2,0.4,0.4,0.7,0.6,1.1l-0.7,0.7c0.1,0.2,0.2,0.3,0.4,0.4l0.9-0.5c0,0,0.1,0.1,0.1,0.1l0,0l0.4,0.4l0,0
			c0.1,0.1,0.3,0.2,0.4,0.3l-0.5,0.9c0.1,0.1,0.3,0.2,0.5,0.3l0.7-0.7c0.4,0.2,0.7,0.4,1.1,0.6l-0.2,1c0.2,0.1,0.4,0.1,0.5,0.2
			l0.5-0.9c0.4,0.1,0.8,0.2,1.2,0.2l0.1,1c0.2,0,0.4,0,0.6,0l0.2-1h0.2v0c0.4,0,0.7,0,1-0.1l0.4,0.9c0.2,0,0.4-0.1,0.5-0.1l-0.1-1
			c0.4-0.1,0.8-0.3,1.2-0.5l0.6,0.8c0.2-0.1,0.3-0.2,0.5-0.3l-0.4-0.9c0.3-0.2,0.6-0.5,0.9-0.7l0,0l0.1-0.1l0.8,0.6
			c0.1-0.1,0.3-0.3,0.4-0.4l-0.6-0.8c0.3-0.3,0.5-0.7,0.7-1l1,0.3c0.1-0.2,0.2-0.3,0.3-0.5l-0.8-0.6c0.2-0.4,0.3-0.8,0.4-1.2l1,0
			c0-0.2,0.1-0.4,0.1-0.6l-1-0.3C161.2,84.2,161.2,84,161.2,83.8z M160.4,83.2h-3.5c-0.1-0.6-0.3-1.2-0.7-1.6l2.5-2.5
			C159.7,80.2,160.3,81.6,160.4,83.2z M153.9,85.6c-1.2,0-2.1-0.9-2.1-2.1c0-1.2,0.9-2.1,2.1-2.1c1.2,0,2.1,0.9,2.1,2.1
			C156,84.6,155,85.6,153.9,85.6z M158.3,78.6l-2.5,2.5c-0.4-0.4-1-0.6-1.6-0.7v-3.5C155.7,77,157.2,77.6,158.3,78.6z M153.6,76.9
			v3.5c-0.6,0.1-1.2,0.3-1.6,0.7l-2.5-2.5C150.5,77.6,152,77,153.6,76.9z M149,79.1l2.5,2.5c-0.4,0.4-0.6,1-0.7,1.6h-3.5
			C147.4,81.6,148,80.2,149,79.1z M147.3,83.8h3.5c0.1,0.6,0.3,1.2,0.7,1.6l-2.5,2.5C148,86.8,147.4,85.3,147.3,83.8z M149.4,88.3
			l2.5-2.5c0.4,0.4,1,0.6,1.6,0.7V90C152,89.9,150.5,89.3,149.4,88.3z M154.2,90v-3.5c0.6-0.1,1.2-0.3,1.6-0.7l2.5,2.5
			C157.2,89.3,155.7,89.9,154.2,90z M158.7,87.9l-2.5-2.5c0.4-0.4,0.6-1,0.7-1.6h3.5C160.3,85.3,159.7,86.8,158.7,87.9z"/>
		<path class="st2" d="M38.2,23.3L38.2,23.3l0-0.2c0,0,0,0,0-0.1c0,0,0-0.1,0-0.1v-0.2l0.9-0.2c0-0.2,0-0.4-0.1-0.5l-1,0
			c-0.1-0.4-0.2-0.8-0.3-1.1l0.8-0.5c-0.1-0.2-0.1-0.3-0.2-0.5l-0.9,0.2c-0.2-0.4-0.4-0.7-0.6-1l0.7-0.7c-0.1-0.1-0.2-0.3-0.3-0.4
			l-0.8,0.5c0,0-0.1-0.1-0.1-0.1l0,0L36,18l0,0c-0.1-0.1-0.2-0.2-0.4-0.3l0.4-0.9c-0.1-0.1-0.3-0.2-0.4-0.3l-0.7,0.7
			c-0.3-0.2-0.7-0.4-1-0.5l0.2-0.9c-0.2-0.1-0.3-0.1-0.5-0.2l-0.4,0.9c-0.4-0.1-0.8-0.2-1.2-0.2l-0.1-1c-0.2,0-0.4,0-0.5,0l-0.2,0.9
			H31v0c-0.3,0-0.7,0-1,0.1l-0.4-0.9c-0.2,0-0.3,0.1-0.5,0.1l0.1,0.9c-0.4,0.1-0.7,0.3-1.1,0.4l-0.6-0.8c-0.2,0.1-0.3,0.2-0.5,0.3
			l0.4,0.9c-0.3,0.2-0.6,0.4-0.9,0.7l0,0l0,0l-0.8-0.6c-0.1,0.1-0.2,0.3-0.4,0.4l0.6,0.7c-0.3,0.3-0.5,0.6-0.7,1l-0.9-0.3
			c-0.1,0.2-0.2,0.3-0.2,0.5l0.8,0.6c-0.2,0.4-0.3,0.7-0.4,1.1l-1,0c0,0.2-0.1,0.3-0.1,0.5l0.9,0.3c0,0.2,0,0.4-0.1,0.6h0V23
			c0,0,0,0,0,0.1c0,0,0,0.1,0,0.1v0.2l-0.9,0.2c0,0.2,0,0.4,0.1,0.5l1,0c0.1,0.4,0.2,0.8,0.3,1.1l-0.8,0.5c0.1,0.2,0.1,0.3,0.2,0.5
			L25,26c0.2,0.4,0.4,0.7,0.6,1L25,27.7c0.1,0.1,0.2,0.3,0.3,0.4l0.8-0.5c0,0,0.1,0.1,0.1,0.1l0,0l0.4,0.4l0,0
			c0.1,0.1,0.2,0.2,0.4,0.3l-0.4,0.8c0.1,0.1,0.3,0.2,0.4,0.3l0.7-0.7c0.3,0.2,0.7,0.4,1,0.5l-0.2,0.9c0.2,0.1,0.3,0.1,0.5,0.2
			l0.4-0.9c0.4,0.1,0.8,0.2,1.2,0.2l0.1,0.9c0.2,0,0.4,0,0.5,0l0.2-0.9h0.2v0c0.3,0,0.7,0,1-0.1l0.4,0.9c0.2,0,0.3-0.1,0.5-0.1
			l-0.1-1c0.4-0.1,0.7-0.3,1.1-0.4L35,30c0.2-0.1,0.3-0.2,0.5-0.3l-0.4-0.9c0.3-0.2,0.6-0.4,0.9-0.7l0,0l0-0.1l0.8,0.6
			c0.1-0.1,0.2-0.3,0.4-0.4l-0.6-0.7c0.3-0.3,0.5-0.6,0.7-1l0.9,0.3c0.1-0.2,0.2-0.3,0.2-0.5l-0.8-0.5c0.2-0.4,0.3-0.7,0.4-1.1l1,0
			c0-0.2,0.1-0.3,0.1-0.5l-0.9-0.3C38.2,23.7,38.2,23.5,38.2,23.3z M37.4,22.8h-3.3c-0.1-0.6-0.3-1.1-0.6-1.5l2.4-2.4
			C36.8,19.9,37.4,21.3,37.4,22.8z M31.3,25c-1.1,0-2-0.9-2-2c0-1.1,0.9-2,2-2c1.1,0,2,0.9,2,2C33.3,24.1,32.4,25,31.3,25z
			 M35.4,18.5l-2.4,2.4c-0.4-0.3-0.9-0.6-1.5-0.6v-3.3C33.1,17,34.4,17.5,35.4,18.5z M31,16.9v3.3c-0.6,0.1-1.1,0.3-1.5,0.6
			l-2.4-2.4C28.2,17.5,29.5,17,31,16.9z M26.7,18.9l2.4,2.4c-0.3,0.4-0.6,0.9-0.6,1.5h-3.3C25.2,21.3,25.8,19.9,26.7,18.9z
			 M25.1,23.3h3.3c0.1,0.6,0.3,1.1,0.6,1.5l-2.4,2.4C25.8,26.2,25.2,24.8,25.1,23.3z M27.1,27.6l2.4-2.4c0.4,0.3,0.9,0.6,1.5,0.6
			v3.3C29.5,29.1,28.2,28.5,27.1,27.6z M31.6,29.2v-3.3c0.6-0.1,1.1-0.3,1.5-0.6l2.4,2.4C34.4,28.5,33.1,29.1,31.6,29.2z M35.8,27.2
			l-2.4-2.4c0.3-0.4,0.6-0.9,0.6-1.5h3.3C37.4,24.8,36.8,26.2,35.8,27.2z"/>
		<path class="st2" d="M132.3,79.7L132.3,79.7l0-0.3c0,0,0-0.1,0-0.1c0,0,0-0.1,0-0.1v-0.3l1.3-0.3c0-0.3,0-0.5-0.1-0.7l-1.3-0.1
			c-0.1-0.6-0.2-1.1-0.4-1.6l1.2-0.7c-0.1-0.2-0.2-0.5-0.3-0.7l-1.3,0.3c-0.2-0.5-0.5-1-0.8-1.4l0.9-1c-0.1-0.2-0.3-0.4-0.5-0.6
			l-1.2,0.7c0,0-0.1-0.1-0.1-0.1l0,0l-0.6-0.6l0,0c-0.2-0.2-0.3-0.3-0.5-0.5l0.6-1.2c-0.2-0.2-0.4-0.3-0.6-0.4l-0.9,1
			c-0.5-0.3-1-0.5-1.5-0.8l0.3-1.3c-0.2-0.1-0.5-0.2-0.7-0.2l-0.6,1.2c-0.5-0.1-1.1-0.3-1.6-0.3l-0.1-1.3c-0.2,0-0.5,0-0.8,0
			l-0.2,1.3h-0.3v0c-0.5,0-0.9,0.1-1.4,0.1l-0.5-1.3c-0.2,0.1-0.5,0.1-0.7,0.2l0.1,1.3c-0.5,0.2-1,0.4-1.5,0.6l-0.8-1.1
			c-0.2,0.1-0.4,0.2-0.6,0.4l0.5,1.2c-0.4,0.3-0.8,0.6-1.2,1l0,0l-0.1,0.1l-1.1-0.8c-0.2,0.2-0.4,0.4-0.5,0.5l0.8,1.1
			c-0.4,0.4-0.7,0.9-1,1.4l-1.3-0.4c-0.1,0.2-0.2,0.4-0.3,0.7l1.1,0.8c-0.2,0.5-0.4,1-0.5,1.6l-1.3-0.1c-0.1,0.2-0.1,0.5-0.1,0.7
			l1.3,0.4c0,0.3-0.1,0.6-0.1,0.9h0v0.3c0,0,0,0.1,0,0.1c0,0,0,0.1,0,0.1v0.3l-1.3,0.3c0,0.3,0,0.5,0.1,0.7l1.3,0.1
			c0.1,0.6,0.2,1.1,0.4,1.6l-1.2,0.7c0.1,0.2,0.2,0.5,0.3,0.7l1.3-0.3c0.2,0.5,0.5,1,0.8,1.4l-0.9,1c0.1,0.2,0.3,0.4,0.5,0.6
			l1.2-0.7c0,0,0.1,0.1,0.1,0.1l0,0l0.6,0.6l0,0c0.2,0.2,0.3,0.3,0.5,0.5l-0.6,1.2c0.2,0.2,0.4,0.3,0.6,0.4l0.9-1
			c0.5,0.3,1,0.5,1.5,0.8l-0.3,1.3c0.2,0.1,0.5,0.2,0.7,0.2l0.6-1.2c0.5,0.1,1.1,0.3,1.6,0.3l0.1,1.3c0.2,0,0.5,0,0.8,0l0.2-1.3h0.3
			v0c0.5,0,0.9-0.1,1.4-0.1l0.5,1.3c0.2-0.1,0.5-0.1,0.7-0.2l-0.1-1.3c0.5-0.2,1-0.4,1.5-0.6l0.8,1.1c0.2-0.1,0.4-0.2,0.6-0.4
			l-0.5-1.2c0.4-0.3,0.8-0.6,1.2-1l0,0l0.1-0.1l1.1,0.8c0.2-0.2,0.4-0.4,0.5-0.5l-0.8-1.1c0.4-0.4,0.7-0.9,1-1.3l1.3,0.4
			c0.1-0.2,0.2-0.4,0.3-0.7l-1.1-0.8c0.2-0.5,0.4-1,0.5-1.6l1.3,0.1c0.1-0.2,0.1-0.5,0.1-0.7l-1.3-0.4
			C132.3,80.3,132.3,80,132.3,79.7z M131.3,78.9h-4.7c-0.1-0.8-0.4-1.5-0.9-2.1l3.3-3.3C130.3,74.9,131.2,76.8,131.3,78.9z
			 M122.6,82.1c-1.5,0-2.8-1.3-2.8-2.8c0-1.5,1.3-2.8,2.8-2.8c1.5,0,2.8,1.3,2.8,2.8C125.4,80.9,124.1,82.1,122.6,82.1z M128.4,72.9
			l-3.3,3.3c-0.6-0.5-1.3-0.8-2.1-0.9v-4.7C125.1,70.7,127,71.6,128.4,72.9z M122.2,70.6v4.7c-0.8,0.1-1.5,0.4-2.1,0.9l-3.3-3.3
			C118.2,71.6,120.1,70.7,122.2,70.6z M116.1,73.5l3.3,3.3c-0.5,0.6-0.8,1.3-0.9,2.1h-4.7C114,76.8,114.8,74.9,116.1,73.5z
			 M113.9,79.7h4.7c0.1,0.8,0.4,1.5,0.9,2.1l-3.3,3.3C114.8,83.7,114,81.8,113.9,79.7z M116.7,85.7l3.3-3.3c0.6,0.5,1.3,0.8,2.1,0.9
			V88C120.1,87.9,118.2,87.1,116.7,85.7z M123,88v-4.7c0.8-0.1,1.5-0.4,2.1-0.9l3.3,3.3C127,87.1,125.1,87.9,123,88z M129,85.2
			l-3.3-3.3c0.5-0.6,0.8-1.3,0.9-2.1h4.7C131.2,81.8,130.3,83.7,129,85.2z"/>
	</g>
	<path class="st0" d="M53,33.4v-6.6c2.8,0.8,4.8,3.5,4.8,6.6l1.1-1.3c-0.5-3.2-2.9-5.8-6-6.6v-1.8l-1.3-0.5v2c-0.2,0-0.4,0-0.6,0
		c-0.2,0-0.4,0-0.6,0v-1.5l-1.3-0.5v2.3c-3.5,0.9-6.1,4.1-6.1,8c0,2.9,1.5,5.5,3.7,6.9h-2.6l-1,1.3h13.5l1-1.3h-7.1
		c-3.5-0.3-6.2-3.3-6.2-6.9c0-3.2,2-5.8,4.8-6.7v6.1l1.3,0.5v-6.9c0.2,0,0.4,0,0.6,0s0.4,0,0.6,0v6.4L53,33.4z"/>
	<path class="st0" d="M143.3,69.9V66c1.7,0.5,2.9,2,2.9,3.9l0.7-0.8c-0.3-1.9-1.8-3.4-3.6-3.9v-1l-0.8-0.3v1.2c-0.1,0-0.3,0-0.4,0
		s-0.3,0-0.4,0v-0.9l-0.8-0.3v1.3c-2.1,0.5-3.7,2.4-3.7,4.7c0,1.7,0.9,3.2,2.2,4.1h-1.6l-0.6,0.8h8.2l0.6-0.8h-4.3
		c-2.1-0.2-3.8-1.9-3.8-4.1c0-1.9,1.2-3.4,2.9-4v3.6l0.8,0.3v-4.1c0.1,0,0.3,0,0.4,0c0.1,0,0.3,0,0.4,0v3.8L143.3,69.9z"/>
	<path class="st3" d="M36,34.7L36,34.7L36,34.7c0-0.1,0-0.1,0-0.1c0,0,0,0,0,0v-0.1l0.4-0.1c0-0.1,0-0.2,0-0.2l-0.4,0
		c0-0.2-0.1-0.3-0.1-0.5l0.4-0.2c0-0.1-0.1-0.1-0.1-0.2l-0.4,0.1c-0.1-0.2-0.2-0.3-0.3-0.4l0.3-0.3c0-0.1-0.1-0.1-0.1-0.2l-0.4,0.2
		c0,0,0,0,0,0l0,0L35,32.4l0,0c-0.1,0-0.1-0.1-0.2-0.1l0.2-0.4c-0.1,0-0.1-0.1-0.2-0.1l-0.3,0.3c-0.1-0.1-0.3-0.2-0.4-0.2l0.1-0.4
		c-0.1,0-0.1-0.1-0.2-0.1l-0.2,0.4c-0.2,0-0.3-0.1-0.5-0.1l0-0.4c-0.1,0-0.1,0-0.2,0L33,31.6h-0.1v0c-0.1,0-0.3,0-0.4,0l-0.2-0.4
		c-0.1,0-0.1,0-0.2,0.1l0,0.4c-0.2,0-0.3,0.1-0.5,0.2l-0.3-0.3c-0.1,0-0.1,0.1-0.2,0.1l0.2,0.4c-0.1,0.1-0.3,0.2-0.4,0.3l0,0l0,0
		l-0.3-0.2c-0.1,0.1-0.1,0.1-0.2,0.2l0.3,0.3c-0.1,0.1-0.2,0.3-0.3,0.4l-0.4-0.1c0,0.1-0.1,0.1-0.1,0.2l0.3,0.2
		c-0.1,0.2-0.1,0.3-0.2,0.5l-0.4,0c0,0.1,0,0.1,0,0.2l0.4,0.1c0,0.1,0,0.2,0,0.3h0v0.1c0,0,0,0,0,0c0,0,0,0,0,0v0.1l-0.4,0.1
		c0,0.1,0,0.2,0,0.2l0.4,0c0,0.2,0.1,0.3,0.1,0.5l-0.4,0.2c0,0.1,0.1,0.1,0.1,0.2l0.4-0.1c0.1,0.2,0.2,0.3,0.3,0.4l-0.3,0.3
		c0,0.1,0.1,0.1,0.1,0.2l0.4-0.2c0,0,0,0,0,0l0,0l0.2,0.2l0,0c0.1,0,0.1,0.1,0.2,0.1L31,37.2c0.1,0,0.1,0.1,0.2,0.1l0.3-0.3
		c0.1,0.1,0.3,0.2,0.4,0.2l-0.1,0.4c0.1,0,0.1,0.1,0.2,0.1l0.2-0.4c0.2,0,0.3,0.1,0.5,0.1l0,0.4c0.1,0,0.1,0,0.2,0l0.1-0.4h0.1v0
		c0.1,0,0.3,0,0.4,0l0.2,0.4c0.1,0,0.1,0,0.2-0.1l0-0.4c0.2,0,0.3-0.1,0.5-0.2l0.3,0.3c0.1,0,0.1-0.1,0.2-0.1L34.7,37
		c0.1-0.1,0.3-0.2,0.4-0.3l0,0l0,0l0.3,0.2c0.1-0.1,0.1-0.1,0.2-0.2l-0.3-0.3c0.1-0.1,0.2-0.3,0.3-0.4l0.4,0.1
		c0-0.1,0.1-0.1,0.1-0.2l-0.3-0.2c0.1-0.2,0.1-0.3,0.2-0.5l0.4,0c0-0.1,0-0.1,0-0.2L36,34.9C36,34.9,36,34.8,36,34.7z M35.7,34.4
		h-1.4c0-0.2-0.1-0.5-0.3-0.6l1-1C35.4,33.2,35.6,33.8,35.7,34.4z M33,35.4c-0.5,0-0.8-0.4-0.8-0.8s0.4-0.8,0.8-0.8
		c0.5,0,0.8,0.4,0.8,0.8C33.9,35,33.5,35.4,33,35.4z M34.8,32.6l-1,1c-0.2-0.1-0.4-0.2-0.6-0.3v-1.4C33.8,32,34.4,32.2,34.8,32.6z
		 M32.9,31.9v1.4c-0.2,0-0.5,0.1-0.6,0.3l-1-1C31.7,32.2,32.3,32,32.9,31.9z M31.1,32.8l1,1c-0.1,0.2-0.2,0.4-0.3,0.6h-1.4
		C30.4,33.8,30.7,33.2,31.1,32.8z M30.4,34.7h1.4c0,0.2,0.1,0.5,0.3,0.6l-1,1C30.7,35.9,30.4,35.3,30.4,34.7z M31.3,36.5l1-1
		c0.2,0.1,0.4,0.2,0.6,0.3v1.4C32.3,37.2,31.7,36.9,31.3,36.5z M33.2,37.2v-1.4c0.2,0,0.5-0.1,0.6-0.3l1,1
		C34.4,36.9,33.8,37.2,33.2,37.2z M35,36.3l-1-1c0.1-0.2,0.2-0.4,0.3-0.6h1.4C35.6,35.3,35.4,35.9,35,36.3z"/>
	<path class="st3" d="M145.1,83.2L145.1,83.2L145.1,83.2c0-0.1,0-0.1,0-0.1c0,0,0,0,0,0v-0.1l0.4-0.1c0-0.1,0-0.1,0-0.2l-0.4,0
		c0-0.2-0.1-0.3-0.1-0.5l0.3-0.2c0-0.1-0.1-0.1-0.1-0.2l-0.4,0.1c-0.1-0.1-0.2-0.3-0.2-0.4l0.3-0.3c0-0.1-0.1-0.1-0.1-0.2l-0.3,0.2
		c0,0,0,0,0,0l0,0l-0.2-0.2l0,0c-0.1,0-0.1-0.1-0.2-0.1l0.2-0.4c-0.1,0-0.1-0.1-0.2-0.1l-0.3,0.3c-0.1-0.1-0.3-0.2-0.4-0.2l0.1-0.4
		c-0.1,0-0.1-0.1-0.2-0.1l-0.2,0.4c-0.2,0-0.3-0.1-0.5-0.1l0-0.4c-0.1,0-0.1,0-0.2,0l-0.1,0.4h-0.1v0c-0.1,0-0.3,0-0.4,0l-0.1-0.4
		c-0.1,0-0.1,0-0.2,0.1l0,0.4c-0.2,0-0.3,0.1-0.5,0.2l-0.2-0.3c-0.1,0-0.1,0.1-0.2,0.1l0.2,0.4c-0.1,0.1-0.3,0.2-0.4,0.3l0,0l0,0
		l-0.3-0.2c-0.1,0.1-0.1,0.1-0.2,0.2l0.3,0.3c-0.1,0.1-0.2,0.3-0.3,0.4l-0.4-0.1c0,0.1-0.1,0.1-0.1,0.2l0.3,0.2
		c-0.1,0.1-0.1,0.3-0.2,0.5l-0.4,0c0,0.1,0,0.1,0,0.2l0.4,0.1c0,0.1,0,0.2,0,0.3h0V83c0,0,0,0,0,0c0,0,0,0,0,0v0.1l-0.4,0.1
		c0,0.1,0,0.1,0,0.2l0.4,0c0,0.2,0.1,0.3,0.1,0.5l-0.3,0.2c0,0.1,0.1,0.1,0.1,0.2l0.4-0.1c0.1,0.1,0.2,0.3,0.2,0.4l-0.3,0.3
		c0,0.1,0.1,0.1,0.1,0.2l0.3-0.2c0,0,0,0,0,0l0,0l0.2,0.2l0,0c0.1,0,0.1,0.1,0.2,0.1l-0.2,0.4c0.1,0,0.1,0.1,0.2,0.1l0.3-0.3
		c0.1,0.1,0.3,0.2,0.4,0.2l-0.1,0.4c0.1,0,0.1,0.1,0.2,0.1l0.2-0.4c0.2,0,0.3,0.1,0.5,0.1l0,0.4c0.1,0,0.1,0,0.2,0l0.1-0.4h0.1v0
		c0.1,0,0.3,0,0.4,0l0.1,0.4c0.1,0,0.1,0,0.2-0.1l0-0.4c0.2,0,0.3-0.1,0.5-0.2l0.2,0.3c0.1,0,0.1-0.1,0.2-0.1l-0.2-0.4
		c0.1-0.1,0.2-0.2,0.4-0.3l0,0l0,0l0.3,0.2c0.1-0.1,0.1-0.1,0.2-0.2l-0.2-0.3c0.1-0.1,0.2-0.3,0.3-0.4l0.4,0.1
		c0-0.1,0.1-0.1,0.1-0.2l-0.3-0.2c0.1-0.2,0.1-0.3,0.2-0.5l0.4,0c0-0.1,0-0.1,0-0.2l-0.4-0.1C145.1,83.4,145.1,83.3,145.1,83.2z
		 M144.8,82.9h-1.4c0-0.2-0.1-0.5-0.3-0.6l1-1C144.5,81.8,144.8,82.3,144.8,82.9z M142.2,83.9c-0.5,0-0.8-0.4-0.8-0.8
		c0-0.5,0.4-0.8,0.8-0.8c0.5,0,0.8,0.4,0.8,0.8C143,83.5,142.7,83.9,142.2,83.9z M143.9,81.2l-1,1c-0.2-0.1-0.4-0.2-0.6-0.3v-1.4
		C143,80.5,143.5,80.8,143.9,81.2z M142.1,80.5v1.4c-0.2,0-0.5,0.1-0.6,0.3l-1-1C140.9,80.8,141.5,80.5,142.1,80.5z M140.3,81.3l1,1
		c-0.1,0.2-0.2,0.4-0.3,0.6h-1.4C139.7,82.3,139.9,81.8,140.3,81.3z M139.6,83.2h1.4c0,0.2,0.1,0.5,0.3,0.6l-1,1
		C139.9,84.4,139.7,83.8,139.6,83.2z M140.5,85l1-1c0.2,0.1,0.4,0.2,0.6,0.3v1.4C141.5,85.6,140.9,85.4,140.5,85z M142.3,85.6v-1.4
		c0.2,0,0.5-0.1,0.6-0.3l1,1C143.5,85.4,143,85.6,142.3,85.6z M144.1,84.8l-1-1c0.1-0.2,0.2-0.4,0.3-0.6h1.4
		C144.8,83.8,144.5,84.4,144.1,84.8z"/>
	<path class="st0" d="M66.3,35.9c0-0.3,0.1-0.7,0.1-1l-1.8-0.4c0-0.4,0-0.8,0-1.2l0,0l0-0.4c0,0,0-0.1,0-0.1c0-0.1,0-0.1,0-0.2
		l0-0.4l1.7-0.6c-0.1-0.3-0.1-0.7-0.2-1l-1.8,0.1c-0.2-0.7-0.4-1.5-0.7-2.1l1.5-1.1c-0.1-0.3-0.3-0.6-0.5-0.9l-1.7,0.6
		c-0.4-0.7-0.8-1.3-1.3-1.8l1.1-1.5c-0.2-0.3-0.5-0.5-0.7-0.7l-1.5,1.1c-0.1-0.1-0.1-0.1-0.2-0.2l0,0l-0.8-0.7l0,0
		c-0.3-0.2-0.5-0.4-0.8-0.6l0.7-1.7c-0.3-0.2-0.6-0.4-0.9-0.5L57.2,22c-0.7-0.3-1.4-0.6-2.1-0.8l0.2-1.8c-0.3-0.1-0.7-0.2-1-0.2
		l-0.7,1.7c-0.7-0.1-1.5-0.2-2.3-0.2L51,18.7c-0.3,0-0.7,0-1,0.1l-0.2,1.8l-0.4,0l0,0c-0.6,0.1-1.3,0.2-1.9,0.4l-0.8-1.6
		c-0.3,0.1-0.7,0.2-1,0.3l0.4,1.8c-0.7,0.3-1.4,0.6-2,1l-1.3-1.3c-0.3,0.2-0.6,0.4-0.8,0.6l0.9,1.6c-0.6,0.4-1.1,0.9-1.6,1.5l0,0
		l-0.1,0.1l-1.6-0.9c-0.2,0.3-0.4,0.5-0.6,0.8l1.3,1.3c-0.4,0.6-0.8,1.3-1.1,2l-1.8-0.4c-0.1,0.3-0.3,0.6-0.4,1l1.6,0.9
		c-0.2,0.7-0.4,1.5-0.5,2.2L36.2,32c0,0.3-0.1,0.7-0.1,1l1.8,0.4c0,0.4,0,0.8,0,1.2h0l0,0.4c0,0,0,0.1,0,0.1c0,0.1,0,0.1,0,0.2
		l0,0.4l-1.7,0.6c0.1,0.3,0.1,0.7,0.2,1l1.8-0.1c0.2,0.7,0.4,1.5,0.7,2.1l-1.5,1.1c0.1,0.3,0.3,0.6,0.5,0.9l1.7-0.6
		c0.4,0.7,0.8,1.3,1.3,1.8L39.9,44c0.2,0.3,0.5,0.5,0.7,0.7l1.5-1.1c0.1,0.1,0.1,0.1,0.2,0.2l0,0l0.8,0.7l0,0
		c0.3,0.2,0.5,0.4,0.8,0.5l-0.7,1.7c0.3,0.2,0.6,0.4,0.9,0.5l1.1-1.5c0.7,0.3,1.4,0.6,2.1,0.8l-0.2,1.8c0.3,0.1,0.7,0.2,1,0.2
		l0.7-1.7c0.7,0.1,1.5,0.2,2.3,0.2l0.3,1.8c0.3,0,0.7,0,1-0.1l0.2-1.8l0.4,0l0,0c0.6-0.1,1.3-0.2,1.9-0.4l0.8,1.7
		c0.3-0.1,0.7-0.2,1-0.3l-0.4-1.8c0.7-0.3,1.4-0.6,2-1l1.3,1.3c0.3-0.2,0.6-0.4,0.8-0.6l-0.9-1.6c0.6-0.4,1.1-0.9,1.5-1.5l0,0
		l0.1-0.1l1.6,0.9c0.2-0.3,0.4-0.5,0.6-0.8l-1.3-1.3c0.4-0.6,0.8-1.3,1.1-2l1.8,0.4c0.1-0.3,0.3-0.6,0.4-1l-1.6-0.9
		c0.2-0.7,0.4-1.5,0.5-2.2L66.3,35.9z M51.5,45.9c-6.6,0.1-12-5.1-12.2-11.7c-0.1-6.6,5.1-12,11.7-12.2c6.6-0.1,12,5.1,12.2,11.7
		C63.3,40.3,58.1,45.7,51.5,45.9z"/>
	<path class="st1" d="M128.3,50.7L128.3,50.7l-0.1-0.4c0,0,0-0.1,0-0.1c0-0.1,0-0.1,0-0.2l-0.1-0.3l1.6-0.7
		c-0.1-0.3-0.2-0.6-0.3-0.9l-1.8,0.3c-0.2-0.7-0.5-1.3-0.9-2l1.4-1.1c-0.2-0.3-0.3-0.6-0.5-0.8l-1.6,0.7c-0.4-0.6-0.9-1.1-1.4-1.6
		l1-1.5c-0.2-0.2-0.5-0.4-0.8-0.6l-1.4,1.2c-0.1,0-0.1-0.1-0.2-0.1l0,0l-0.9-0.6l0,0c-0.3-0.2-0.5-0.3-0.8-0.5l0.5-1.7
		c-0.3-0.1-0.6-0.3-0.9-0.4l-1,1.5c-0.7-0.3-1.4-0.5-2.1-0.6l0-1.8c-0.3-0.1-0.7-0.1-1-0.1l-0.5,1.7c-0.7-0.1-1.5-0.1-2.2,0
		l-0.5-1.7c-0.3,0-0.7,0.1-1,0.1l0,1.8l-0.4,0.1l0,0c-0.6,0.1-1.2,0.3-1.8,0.5l-1-1.5c-0.3,0.1-0.6,0.3-0.9,0.4l0.5,1.7
		c-0.7,0.3-1.3,0.7-1.9,1.2l-1.3-1.2c-0.3,0.2-0.5,0.4-0.8,0.6l1,1.5c-0.5,0.5-1,1-1.4,1.5l0,0l-0.1,0.1l-1.6-0.7
		c-0.2,0.3-0.4,0.5-0.5,0.8l1.3,1.2c-0.4,0.6-0.7,1.3-0.9,2l-1.8-0.3c-0.1,0.3-0.2,0.6-0.3,0.9l1.6,0.7c-0.2,0.7-0.3,1.4-0.3,2.1
		l-1.8,0.2c0,0.3,0,0.7,0,1l1.8,0.3c0,0.4,0.1,0.7,0.1,1.1l0,0l0.1,0.4c0,0,0,0.1,0,0.1c0,0.1,0,0.1,0,0.2l0.1,0.3l-1.6,0.7
		c0.1,0.3,0.2,0.6,0.3,0.9l1.8-0.3c0.2,0.7,0.5,1.3,0.9,2l-1.4,1.2c0.2,0.3,0.4,0.6,0.5,0.8l1.6-0.7c0.4,0.6,0.9,1.1,1.4,1.6l-1,1.5
		c0.2,0.2,0.5,0.4,0.8,0.6l1.4-1.2c0.1,0,0.1,0.1,0.2,0.1l0,0l0.9,0.6l0,0c0.3,0.2,0.5,0.3,0.8,0.5l-0.5,1.7
		c0.3,0.1,0.6,0.3,0.9,0.4l1-1.5c0.7,0.3,1.4,0.5,2.1,0.6l0,1.8c0.3,0.1,0.7,0.1,1,0.1l0.5-1.7c0.7,0.1,1.5,0.1,2.2,0l0.5,1.7
		c0.3,0,0.7-0.1,1-0.1l0-1.8l0.4-0.1l0,0c0.6-0.1,1.2-0.3,1.8-0.5l1,1.5c0.3-0.1,0.6-0.3,0.9-0.4l-0.5-1.7c0.7-0.3,1.3-0.7,1.9-1.2
		l1.3,1.2c0.3-0.2,0.5-0.4,0.8-0.6l-1-1.5c0.5-0.5,1-1,1.4-1.5l0,0l0.1-0.1l1.6,0.7c0.2-0.3,0.4-0.5,0.5-0.8l-1.3-1.1
		c0.4-0.6,0.7-1.3,0.9-2l1.8,0.3c0.1-0.3,0.2-0.6,0.3-0.9l-1.6-0.7c0.2-0.7,0.3-1.4,0.3-2.1l1.8-0.2c0-0.3,0-0.7,0-1l-1.8-0.3
		C128.4,51.5,128.4,51.1,128.3,50.7z M126.8,50l-6.2,1.1c-0.3-1-0.9-1.9-1.7-2.5l3.6-5.1C124.6,45,126.1,47.3,126.8,50z M116.1,56.2
		c-2,0.4-4-0.9-4.3-2.9s1-3.9,3-4.3c2-0.4,4,0.9,4.3,2.9C119.5,53.9,118.2,55.8,116.1,56.2z M121.6,42.9l-3.6,5.1
		c-0.9-0.5-1.9-0.7-3-0.6l-1.1-6C116.7,40.9,119.4,41.6,121.6,42.9z M112.9,41.5l1.1,6c-1,0.3-1.9,0.9-2.6,1.7l-5.2-3.5
		C107.9,43.7,110.2,42.1,112.9,41.5z M105.7,46.6l5.2,3.5c-0.5,0.9-0.7,1.9-0.7,3l-6.2,1.1C103.6,51.4,104.3,48.8,105.7,46.6z
		 M104.2,55.2l6.2-1.1c0.3,1,0.9,1.9,1.7,2.5l-3.6,5.1C106.3,60.1,104.8,57.8,104.2,55.2z M109.3,62.2l3.6-5.1
		c0.9,0.5,1.9,0.7,3,0.6l1.1,6C114.2,64.2,111.5,63.6,109.3,62.2z M118,63.6l-1.1-6c1-0.3,1.9-0.9,2.6-1.7l5.2,3.5
		C123.1,61.4,120.8,63,118,63.6z M125.3,58.5l-5.2-3.5c0.5-0.9,0.7-1.9,0.7-3L127,51C127.3,53.7,126.7,56.4,125.3,58.5z"/>
	<path class="st1" d="M75.8,64.7L75.8,64.7l0-0.5c0,0,0-0.1,0-0.1c0-0.1,0-0.1,0-0.2l0-0.4l2-0.6c-0.1-0.4-0.1-0.8-0.2-1.1l-2.1,0.1
		c-0.2-0.8-0.5-1.7-0.8-2.4l1.8-1.2c-0.2-0.4-0.3-0.7-0.5-1l-2,0.7c-0.4-0.7-0.9-1.5-1.5-2.1l1.4-1.6c-0.3-0.3-0.5-0.6-0.8-0.9
		l-1.8,1.2c-0.1-0.1-0.1-0.1-0.2-0.2l0,0l-1-0.8l0,0c-0.3-0.2-0.6-0.4-0.9-0.6l0.8-1.9c-0.3-0.2-0.7-0.4-1-0.6l-1.3,1.6
		c-0.8-0.4-1.6-0.7-2.4-1l0.2-2.1c-0.4-0.1-0.8-0.2-1.1-0.3l-0.8,1.9c-0.8-0.2-1.7-0.3-2.6-0.3l-0.4-2.1c-0.4,0-0.8,0-1.2,0
		l-0.2,2.1l-0.4,0l0,0c-0.7,0.1-1.5,0.2-2.2,0.4l-0.9-1.9c-0.4,0.1-0.8,0.2-1.1,0.4l0.4,2.1c-0.8,0.3-1.6,0.7-2.3,1.1L51,50.8
		c-0.3,0.2-0.7,0.4-1,0.7l1,1.9c-0.7,0.5-1.3,1.1-1.8,1.6l0,0L49,55.1L47.2,54c-0.3,0.3-0.5,0.6-0.7,0.9l1.5,1.5
		c-0.5,0.7-1,1.4-1.3,2.2l-2.1-0.5c-0.2,0.4-0.3,0.7-0.5,1.1l1.8,1.1c-0.3,0.8-0.5,1.6-0.7,2.5l-2.1,0.1C43,63.2,43,63.6,42.9,64
		l2.1,0.5c0,0.4,0,0.9,0,1.3l0,0l0,0.5c0,0,0,0.1,0,0.1c0,0.1,0,0.1,0,0.2l0,0.4l-2,0.6c0.1,0.4,0.1,0.8,0.2,1.1l2.1-0.1
		c0.2,0.8,0.5,1.7,0.8,2.4l-1.8,1.2c0.2,0.4,0.3,0.7,0.5,1l2-0.7c0.4,0.7,0.9,1.5,1.5,2.1l-1.4,1.6c0.3,0.3,0.5,0.6,0.8,0.9l1.8-1.2
		c0.1,0.1,0.1,0.1,0.2,0.2l0,0l1,0.8l0,0c0.3,0.2,0.6,0.4,0.9,0.6l-0.8,1.9c0.3,0.2,0.7,0.4,1,0.6l1.3-1.6c0.8,0.4,1.6,0.7,2.4,1
		l-0.2,2.1c0.4,0.1,0.8,0.2,1.1,0.3l0.8-1.9c0.8,0.2,1.7,0.3,2.6,0.3l0.4,2.1c0.4,0,0.8,0,1.2,0l0.2-2.1l0.4,0v0
		c0.7-0.1,1.5-0.2,2.2-0.4l0.9,1.9c0.4-0.1,0.8-0.2,1.1-0.4l-0.4-2.1c0.8-0.3,1.6-0.7,2.3-1.1l1.4,1.5c0.3-0.2,0.7-0.4,1-0.7l-1-1.9
		c0.7-0.5,1.3-1,1.8-1.6l0,0l0.1-0.1l1.8,1.1c0.3-0.3,0.5-0.6,0.8-0.9l-1.5-1.5c0.5-0.7,1-1.4,1.3-2.2l2.1,0.5
		c0.2-0.4,0.3-0.7,0.5-1.1L75,70.3c0.3-0.8,0.5-1.6,0.7-2.5l2.1-0.1c0.1-0.4,0.1-0.8,0.1-1.2L75.8,66C75.9,65.6,75.9,65.1,75.8,64.7
		z M74.1,63.6l-7.4,0.6c-0.2-1.2-0.8-2.3-1.7-3.2l4.9-5.6C72.1,57.5,73.7,60.3,74.1,63.6z M60.8,69.6c-2.4,0.2-4.6-1.6-4.8-4
		c-0.2-2.4,1.7-4.5,4.1-4.7c2.4-0.2,4.6,1.6,4.8,4C65,67.3,63.2,69.4,60.8,69.6z M68.9,54.6L64,60.2c-1-0.7-2.2-1.1-3.5-1.1L60,51.8
		C63.3,51.7,66.5,52.7,68.9,54.6z M58.8,51.9l0.6,7.3c-1.3,0.2-2.4,0.8-3.3,1.6L50.4,56C52.5,53.8,55.5,52.3,58.8,51.9z M49.6,57
		l5.7,4.7c-0.7,1-1.1,2.2-1.1,3.4l-7.4,0.6C46.6,62.4,47.7,59.4,49.6,57z M46.8,66.9l7.4-0.6c0.2,1.2,0.8,2.3,1.7,3.2L51,75.1
		C48.7,73,47.2,70.2,46.8,66.9z M51.9,75.9l4.9-5.6c1,0.7,2.2,1.1,3.5,1.1l0.6,7.3C57.5,78.8,54.4,77.8,51.9,75.9z M62.1,78.6
		l-0.6-7.3c1.3-0.2,2.4-0.8,3.3-1.6l5.7,4.7C68.3,76.7,65.4,78.2,62.1,78.6z M71.3,73.5l-5.7-4.7c0.7-1,1.1-2.2,1.1-3.4l7.4-0.6
		C74.3,68.1,73.2,71.1,71.3,73.5z"/>
	<path class="st0" d="M150.7,72.1c0-0.2,0.1-0.4,0.1-0.6l-1-0.3c0-0.2,0-0.5,0.1-0.7h0l0-0.3c0,0,0,0,0-0.1c0,0,0-0.1,0-0.1v-0.2
		l1.1-0.3c0-0.2,0-0.4-0.1-0.6l-1.1,0c-0.1-0.4-0.2-0.9-0.3-1.3l1-0.6c-0.1-0.2-0.2-0.4-0.2-0.6l-1.1,0.3c-0.2-0.4-0.4-0.8-0.7-1.2
		l0.8-0.8c-0.1-0.2-0.3-0.3-0.4-0.5l-1,0.6c0,0-0.1-0.1-0.1-0.1l0,0l-0.5-0.5l0,0c-0.1-0.1-0.3-0.3-0.4-0.4l0.5-1
		c-0.2-0.1-0.3-0.2-0.5-0.4l-0.8,0.8c-0.4-0.2-0.8-0.4-1.2-0.6l0.2-1.1c-0.2-0.1-0.4-0.1-0.6-0.2l-0.5,1c-0.4-0.1-0.9-0.2-1.3-0.2
		l-0.1-1.1c-0.2,0-0.4,0-0.6,0l-0.2,1.1l-0.2,0v0c-0.4,0-0.8,0.1-1.1,0.1l-0.4-1c-0.2,0-0.4,0.1-0.6,0.2l0.1,1.1
		c-0.4,0.1-0.9,0.3-1.3,0.5l-0.7-0.9c-0.2,0.1-0.4,0.2-0.5,0.3l0.4,1c-0.4,0.2-0.7,0.5-1,0.8l0,0l-0.1,0.1l-0.9-0.6
		c-0.1,0.1-0.3,0.3-0.4,0.4l0.7,0.9c-0.3,0.3-0.5,0.7-0.8,1.1l-1-0.4c-0.1,0.2-0.2,0.4-0.3,0.5l0.9,0.6c-0.2,0.4-0.3,0.8-0.4,1.3
		l-1.1,0c0,0.2-0.1,0.4-0.1,0.6l1,0.3c0,0.2,0,0.5-0.1,0.7l0,0l0,0.3c0,0,0,0.1,0,0.1c0,0,0,0.1,0,0.1l0,0.2l-1.1,0.3
		c0,0.2,0,0.4,0.1,0.6l1.1,0c0.1,0.4,0.2,0.9,0.3,1.3l-1,0.6c0.1,0.2,0.2,0.4,0.2,0.6l1.1-0.3c0.2,0.4,0.4,0.8,0.7,1.2l-0.8,0.8
		c0.1,0.2,0.3,0.3,0.4,0.5l0.9-0.6c0,0,0.1,0.1,0.1,0.1l0,0l0.5,0.5l0,0c0.1,0.1,0.3,0.3,0.4,0.4l-0.5,1c0.2,0.1,0.3,0.2,0.5,0.3
		l0.8-0.8c0.4,0.2,0.8,0.4,1.2,0.6l-0.2,1.1c0.2,0.1,0.4,0.1,0.6,0.2l0.5-1c0.4,0.1,0.9,0.2,1.3,0.2l0.1,1.1c0.2,0,0.4,0,0.6,0
		l0.2-1.1l0.2,0v0c0.4,0,0.8-0.1,1.1-0.1l0.4,1c0.2,0,0.4-0.1,0.6-0.2l-0.1-1.1c0.4-0.1,0.9-0.3,1.3-0.5l0.7,0.9
		c0.2-0.1,0.4-0.2,0.5-0.3l-0.4-1c0.4-0.2,0.7-0.5,1-0.8l0,0l0.1-0.1l0.9,0.6c0.1-0.1,0.3-0.3,0.4-0.4l-0.7-0.9
		c0.3-0.3,0.5-0.7,0.8-1.1l1,0.4c0.1-0.2,0.2-0.4,0.3-0.5l-0.9-0.6c0.2-0.4,0.3-0.8,0.4-1.3L150.7,72.1z M141.4,77.3
		c-3.9-0.3-6.9-3.7-6.6-7.6c0.3-3.9,3.7-6.9,7.6-6.6c3.9,0.3,6.9,3.7,6.6,7.6C148.7,74.6,145.3,77.5,141.4,77.3z"/>
	<g>
		<path class="st0" d="M145.6,115c0,1.7-1.1,3-2.5,3h-104c-1.4,0-2.5-1.3-2.5-3v-8.3c0-1.7,1.1-3,2.5-3h104c1.4,0,2.5,1.3,2.5,3V115
			z"/>
		<g>
			<path class="st4" d="M47,113.8c0,0.1,0,0.2,0,0.2c0,0.1,0,0.1,0,0.2c0,0,0,0.1-0.1,0.1c0,0-0.1,0-0.1,0h-3.3
				c-0.1,0-0.2,0-0.3-0.1c-0.1-0.1-0.1-0.2-0.1-0.3v-5.7c0-0.1,0-0.3,0.1-0.3c0.1-0.1,0.2-0.1,0.3-0.1h3.3c0,0,0.1,0,0.1,0
				c0,0,0,0,0.1,0.1c0,0,0,0.1,0,0.2c0,0.1,0,0.2,0,0.3c0,0.1,0,0.2,0,0.2c0,0.1,0,0.1,0,0.2c0,0,0,0.1-0.1,0.1c0,0-0.1,0-0.1,0
				h-2.3v1.6h2c0,0,0.1,0,0.1,0c0,0,0,0,0.1,0.1c0,0,0,0.1,0,0.2c0,0.1,0,0.1,0,0.2c0,0.1,0,0.2,0,0.2c0,0.1,0,0.1,0,0.2
				c0,0,0,0.1-0.1,0.1c0,0-0.1,0-0.1,0h-2v1.9h2.4c0,0,0.1,0,0.1,0c0,0,0,0,0.1,0.1c0,0,0,0.1,0,0.2C47,113.6,47,113.7,47,113.8z"/>
			<path class="st4" d="M53.6,113.8c0,0.1,0,0.1,0,0.2c0,0.1-0.1,0.1-0.1,0.2c0,0-0.1,0.1-0.2,0.1c-0.1,0-0.1,0-0.2,0h-0.6
				c-0.1,0-0.2,0-0.3,0c-0.1,0-0.2-0.1-0.2-0.1c-0.1-0.1-0.1-0.1-0.2-0.3c-0.1-0.1-0.1-0.2-0.2-0.4l-1.6-3.1
				c-0.1-0.2-0.2-0.4-0.3-0.6c-0.1-0.2-0.2-0.4-0.3-0.6h0c0,0.2,0,0.5,0,0.7c0,0.2,0,0.5,0,0.8v3.4c0,0,0,0.1,0,0.1
				c0,0-0.1,0.1-0.1,0.1c0,0-0.1,0-0.2,0c-0.1,0-0.2,0-0.3,0c-0.1,0-0.2,0-0.3,0c-0.1,0-0.1,0-0.2,0c0,0-0.1,0-0.1-0.1
				c0,0,0-0.1,0-0.1v-5.9c0-0.2,0-0.3,0.1-0.4c0.1-0.1,0.2-0.1,0.3-0.1h0.7c0.1,0,0.2,0,0.3,0c0.1,0,0.2,0.1,0.2,0.1
				c0.1,0.1,0.1,0.1,0.2,0.2c0.1,0.1,0.1,0.2,0.2,0.3l1.3,2.4c0.1,0.1,0.1,0.3,0.2,0.4c0.1,0.1,0.1,0.3,0.2,0.4
				c0.1,0.1,0.1,0.3,0.2,0.4c0.1,0.1,0.1,0.3,0.2,0.4h0c0-0.2,0-0.5,0-0.7c0-0.3,0-0.5,0-0.7v-3.1c0,0,0-0.1,0-0.1
				c0,0,0.1-0.1,0.1-0.1c0,0,0.1,0,0.2,0c0.1,0,0.2,0,0.3,0c0.1,0,0.2,0,0.3,0s0.1,0,0.2,0c0,0,0.1,0,0.1,0.1c0,0,0,0.1,0,0.1
				L53.6,113.8L53.6,113.8z"/>
			<path class="st4" d="M59.4,108.3c0,0.1,0,0.2,0,0.3c0,0.1,0,0.1,0,0.2s0,0.1-0.1,0.1s-0.1,0-0.1,0h-1.6v5.3c0,0,0,0.1,0,0.1
				c0,0-0.1,0-0.1,0.1c-0.1,0-0.1,0-0.2,0c-0.1,0-0.2,0-0.3,0s-0.2,0-0.3,0c-0.1,0-0.2,0-0.2,0c-0.1,0-0.1,0-0.1-0.1
				c0,0,0-0.1,0-0.1v-5.3h-1.6c0,0-0.1,0-0.1,0c0,0,0-0.1-0.1-0.1c0,0,0-0.1,0-0.2c0-0.1,0-0.2,0-0.3c0-0.1,0-0.2,0-0.3
				c0-0.1,0-0.1,0-0.2c0,0,0-0.1,0.1-0.1c0,0,0.1,0,0.1,0h4.6c0,0,0.1,0,0.1,0c0,0,0,0,0.1,0.1c0,0,0,0.1,0,0.2
				C59.4,108.1,59.4,108.2,59.4,108.3z"/>
			<path class="st4" d="M64.1,113.8c0,0.1,0,0.2,0,0.2c0,0.1,0,0.1,0,0.2c0,0,0,0.1-0.1,0.1c0,0-0.1,0-0.1,0h-3.3
				c-0.1,0-0.2,0-0.3-0.1c-0.1-0.1-0.1-0.2-0.1-0.3v-5.7c0-0.1,0-0.3,0.1-0.3c0.1-0.1,0.2-0.1,0.3-0.1h3.3c0,0,0.1,0,0.1,0
				s0,0,0.1,0.1c0,0,0,0.1,0,0.2c0,0.1,0,0.2,0,0.3c0,0.1,0,0.2,0,0.2c0,0.1,0,0.1,0,0.2c0,0,0,0.1-0.1,0.1c0,0-0.1,0-0.1,0h-2.3
				v1.6h2c0,0,0.1,0,0.1,0c0,0,0,0,0.1,0.1c0,0,0,0.1,0,0.2c0,0.1,0,0.1,0,0.2c0,0.1,0,0.2,0,0.2s0,0.1,0,0.2c0,0,0,0.1-0.1,0.1
				c0,0-0.1,0-0.1,0h-2v1.9h2.4c0,0,0.1,0,0.1,0c0,0,0,0,0.1,0.1c0,0,0,0.1,0,0.2C64.1,113.6,64.1,113.7,64.1,113.8z"/>
			<path class="st4" d="M70.1,114.1C70.1,114.2,70.1,114.2,70.1,114.1c0,0.1-0.1,0.1-0.1,0.2s-0.1,0-0.2,0c-0.1,0-0.2,0-0.4,0
				c-0.1,0-0.3,0-0.3,0c-0.1,0-0.2,0-0.2,0c0,0-0.1,0-0.1-0.1c0,0,0-0.1-0.1-0.1l-0.6-1.5c-0.1-0.2-0.1-0.3-0.2-0.4
				c-0.1-0.1-0.1-0.2-0.2-0.3c-0.1-0.1-0.2-0.2-0.3-0.2c-0.1,0-0.2-0.1-0.4-0.1h-0.4v2.5c0,0,0,0.1,0,0.1c0,0-0.1,0-0.1,0.1
				c-0.1,0-0.1,0-0.2,0c-0.1,0-0.2,0-0.3,0c-0.1,0-0.2,0-0.3,0c-0.1,0-0.2,0-0.2,0c-0.1,0-0.1,0-0.1-0.1c0,0,0-0.1,0-0.1v-6
				c0-0.1,0-0.3,0.1-0.3c0.1-0.1,0.2-0.1,0.3-0.1h1.7c0.2,0,0.3,0,0.4,0c0.1,0,0.2,0,0.3,0c0.3,0,0.5,0.1,0.7,0.2
				c0.2,0.1,0.4,0.2,0.5,0.4c0.1,0.1,0.3,0.3,0.3,0.5c0.1,0.2,0.1,0.4,0.1,0.7c0,0.2,0,0.4-0.1,0.6c-0.1,0.2-0.1,0.3-0.2,0.5
				c-0.1,0.1-0.2,0.3-0.4,0.4c-0.2,0.1-0.3,0.2-0.5,0.3c0.1,0,0.2,0.1,0.3,0.2c0.1,0.1,0.2,0.1,0.2,0.2c0.1,0.1,0.1,0.2,0.2,0.3
				c0.1,0.1,0.1,0.3,0.2,0.4l0.6,1.3c0.1,0.1,0.1,0.2,0.1,0.3C70.1,114.1,70.1,114.1,70.1,114.1z M68.4,109.7c0-0.2-0.1-0.4-0.1-0.5
				c-0.1-0.1-0.3-0.3-0.5-0.3c-0.1,0-0.1,0-0.2,0c-0.1,0-0.2,0-0.4,0h-0.6v1.9h0.7c0.2,0,0.4,0,0.5-0.1c0.1,0,0.3-0.1,0.4-0.2
				c0.1-0.1,0.2-0.2,0.2-0.3C68.4,109.9,68.4,109.8,68.4,109.7z"/>
			<path class="st4" d="M75.6,109.7c0,0.4-0.1,0.7-0.2,1c-0.1,0.3-0.3,0.5-0.5,0.7c-0.2,0.2-0.5,0.3-0.8,0.4
				c-0.3,0.1-0.7,0.2-1.1,0.2h-0.5v2.1c0,0,0,0.1,0,0.1c0,0-0.1,0-0.1,0.1c-0.1,0-0.1,0-0.2,0c-0.1,0-0.2,0-0.3,0
				c-0.1,0-0.2,0-0.3,0c-0.1,0-0.2,0-0.2,0c-0.1,0-0.1,0-0.1-0.1c0,0,0-0.1,0-0.1v-5.9c0-0.2,0-0.3,0.1-0.4c0.1-0.1,0.2-0.1,0.3-0.1
				h1.5c0.2,0,0.3,0,0.4,0c0.1,0,0.3,0,0.5,0.1c0.2,0,0.4,0.1,0.6,0.2c0.2,0.1,0.4,0.2,0.5,0.4c0.1,0.2,0.3,0.3,0.3,0.6
				C75.6,109.2,75.6,109.5,75.6,109.7z M74.2,109.8c0-0.2,0-0.4-0.1-0.6c-0.1-0.1-0.2-0.3-0.3-0.3c-0.1-0.1-0.2-0.1-0.4-0.1
				c-0.1,0-0.3,0-0.4,0h-0.6v2.2H73c0.2,0,0.4,0,0.5-0.1c0.1-0.1,0.3-0.1,0.4-0.2c0.1-0.1,0.2-0.2,0.2-0.4
				C74.2,110.2,74.2,110,74.2,109.8z"/>
			<path class="st4" d="M81.5,114.1C81.5,114.2,81.5,114.2,81.5,114.1c0,0.1-0.1,0.1-0.1,0.2s-0.1,0-0.2,0c-0.1,0-0.2,0-0.4,0
				c-0.1,0-0.3,0-0.3,0c-0.1,0-0.2,0-0.2,0c0,0-0.1,0-0.1-0.1c0,0,0-0.1-0.1-0.1l-0.6-1.5c-0.1-0.2-0.1-0.3-0.2-0.4
				s-0.1-0.2-0.2-0.3c-0.1-0.1-0.2-0.2-0.3-0.2c-0.1,0-0.2-0.1-0.4-0.1H78v2.5c0,0,0,0.1,0,0.1c0,0-0.1,0-0.1,0.1
				c-0.1,0-0.1,0-0.2,0c-0.1,0-0.2,0-0.3,0c-0.1,0-0.2,0-0.3,0c-0.1,0-0.2,0-0.2,0c-0.1,0-0.1,0-0.1-0.1c0,0,0-0.1,0-0.1v-6
				c0-0.1,0-0.3,0.1-0.3c0.1-0.1,0.2-0.1,0.3-0.1h1.7c0.2,0,0.3,0,0.4,0c0.1,0,0.2,0,0.3,0c0.3,0,0.5,0.1,0.7,0.2
				c0.2,0.1,0.4,0.2,0.5,0.4c0.1,0.1,0.3,0.3,0.3,0.5c0.1,0.2,0.1,0.4,0.1,0.7c0,0.2,0,0.4-0.1,0.6c-0.1,0.2-0.1,0.3-0.2,0.5
				c-0.1,0.1-0.2,0.3-0.4,0.4c-0.2,0.1-0.3,0.2-0.5,0.3c0.1,0,0.2,0.1,0.3,0.2c0.1,0.1,0.2,0.1,0.2,0.2c0.1,0.1,0.1,0.2,0.2,0.3
				c0.1,0.1,0.1,0.3,0.2,0.4l0.6,1.3c0.1,0.1,0.1,0.2,0.1,0.3C81.5,114.1,81.5,114.1,81.5,114.1z M79.8,109.7c0-0.2,0-0.4-0.1-0.5
				c-0.1-0.1-0.3-0.3-0.5-0.3c-0.1,0-0.1,0-0.2,0c-0.1,0-0.2,0-0.4,0H78v1.9h0.7c0.2,0,0.4,0,0.5-0.1c0.1,0,0.3-0.1,0.4-0.2
				c0.1-0.1,0.2-0.2,0.2-0.3C79.8,109.9,79.8,109.8,79.8,109.7z"/>
			<path class="st4" d="M83.8,114.1C83.8,114.2,83.8,114.2,83.8,114.1c-0.1,0.1-0.1,0.1-0.1,0.2c-0.1,0-0.1,0-0.2,0
				c-0.1,0-0.2,0-0.3,0c-0.1,0-0.2,0-0.3,0c-0.1,0-0.2,0-0.2,0c-0.1,0-0.1,0-0.1-0.1c0,0,0-0.1,0-0.1v-6.2c0,0,0-0.1,0-0.1
				c0,0,0.1,0,0.1-0.1c0.1,0,0.1,0,0.2,0c0.1,0,0.2,0,0.3,0c0.1,0,0.2,0,0.3,0c0.1,0,0.2,0,0.2,0c0.1,0,0.1,0,0.1,0.1
				c0,0,0,0.1,0,0.1V114.1z"/>
			<path class="st4" d="M89.1,112.3c0,0.3-0.1,0.6-0.2,0.9c-0.1,0.3-0.3,0.5-0.5,0.7c-0.2,0.2-0.5,0.3-0.8,0.4
				c-0.3,0.1-0.6,0.1-0.9,0.1c-0.2,0-0.4,0-0.6-0.1c-0.2,0-0.4-0.1-0.5-0.1c-0.2-0.1-0.3-0.1-0.4-0.2c-0.1-0.1-0.2-0.1-0.2-0.2
				c0,0-0.1-0.1-0.1-0.2c0-0.1,0-0.2,0-0.4c0-0.1,0-0.2,0-0.3c0-0.1,0-0.1,0-0.2c0,0,0-0.1,0.1-0.1c0,0,0.1,0,0.1,0
				c0,0,0.1,0,0.2,0.1c0.1,0.1,0.2,0.1,0.3,0.2c0.1,0.1,0.3,0.1,0.5,0.2c0.2,0.1,0.4,0.1,0.7,0.1c0.2,0,0.3,0,0.4-0.1
				c0.1,0,0.2-0.1,0.3-0.2c0.1-0.1,0.2-0.2,0.2-0.3c0-0.1,0.1-0.2,0.1-0.4c0-0.1,0-0.3-0.1-0.4s-0.2-0.2-0.3-0.3
				c-0.1-0.1-0.3-0.2-0.4-0.2c-0.2-0.1-0.3-0.1-0.5-0.2c-0.2-0.1-0.3-0.2-0.5-0.3c-0.2-0.1-0.3-0.2-0.4-0.4
				c-0.1-0.1-0.2-0.3-0.3-0.5c-0.1-0.2-0.1-0.4-0.1-0.7c0-0.3,0.1-0.6,0.2-0.8c0.1-0.2,0.3-0.4,0.5-0.6c0.2-0.2,0.4-0.3,0.7-0.4
				c0.3-0.1,0.6-0.1,0.9-0.1c0.2,0,0.3,0,0.5,0c0.2,0,0.3,0.1,0.4,0.1c0.1,0,0.3,0.1,0.4,0.1c0.1,0.1,0.2,0.1,0.2,0.1
				c0,0,0.1,0.1,0.1,0.1c0,0,0,0.1,0,0.1s0,0.1,0,0.1s0,0.1,0,0.2c0,0.1,0,0.2,0,0.3c0,0.1,0,0.1,0,0.2c0,0,0,0.1-0.1,0.1
				c0,0-0.1,0-0.1,0s-0.1,0-0.2-0.1c-0.1,0-0.2-0.1-0.3-0.2c-0.1-0.1-0.3-0.1-0.4-0.2c-0.2,0-0.3-0.1-0.5-0.1c-0.1,0-0.3,0-0.4,0.1
				c-0.1,0-0.2,0.1-0.3,0.1c-0.1,0.1-0.1,0.1-0.2,0.2c0,0.1-0.1,0.2-0.1,0.3c0,0.1,0,0.3,0.1,0.4c0.1,0.1,0.2,0.2,0.3,0.3
				c0.1,0.1,0.3,0.2,0.5,0.2c0.2,0.1,0.3,0.1,0.5,0.2c0.2,0.1,0.3,0.2,0.5,0.3c0.2,0.1,0.3,0.2,0.5,0.4c0.1,0.1,0.2,0.3,0.3,0.5
				C89.1,111.8,89.1,112.1,89.1,112.3z"/>
			<path class="st4" d="M94.1,113.8c0,0.1,0,0.2,0,0.2c0,0.1,0,0.1,0,0.2c0,0,0,0.1-0.1,0.1c0,0-0.1,0-0.1,0h-3.3
				c-0.1,0-0.2,0-0.3-0.1c-0.1-0.1-0.1-0.2-0.1-0.3v-5.7c0-0.1,0-0.3,0.1-0.3c0.1-0.1,0.2-0.1,0.3-0.1h3.3c0,0,0.1,0,0.1,0
				c0,0,0,0,0.1,0.1c0,0,0,0.1,0,0.2c0,0.1,0,0.2,0,0.3c0,0.1,0,0.2,0,0.2c0,0.1,0,0.1,0,0.2c0,0,0,0.1-0.1,0.1c0,0-0.1,0-0.1,0
				h-2.3v1.6h2c0,0,0.1,0,0.1,0c0,0,0,0,0.1,0.1c0,0,0,0.1,0,0.2c0,0.1,0,0.1,0,0.2c0,0.1,0,0.2,0,0.2c0,0.1,0,0.1,0,0.2
				c0,0,0,0.1-0.1,0.1c0,0-0.1,0-0.1,0h-2v1.9h2.4c0,0,0.1,0,0.1,0c0,0,0,0,0.1,0.1c0,0,0,0.1,0,0.2
				C94.1,113.6,94.1,113.7,94.1,113.8z"/>
			<path class="st4" d="M105.2,108.8c0,0.1,0,0.2,0,0.3c0,0.1,0,0.1,0,0.2c0,0,0,0.1-0.1,0.1c0,0,0,0-0.1,0c0,0-0.1,0-0.2-0.1
				c-0.1-0.1-0.2-0.1-0.4-0.2c-0.2-0.1-0.4-0.1-0.6-0.2c-0.2-0.1-0.5-0.1-0.8-0.1c-0.3,0-0.6,0.1-0.9,0.2c-0.3,0.1-0.5,0.3-0.7,0.5
				s-0.3,0.4-0.4,0.7c-0.1,0.3-0.1,0.6-0.1,0.9c0,0.4,0,0.7,0.1,1c0.1,0.3,0.2,0.5,0.4,0.7c0.2,0.2,0.4,0.3,0.6,0.4
				c0.3,0.1,0.5,0.1,0.8,0.1c0.1,0,0.3,0,0.4-0.1c0.1,0,0.3-0.1,0.4-0.2v-1.5h-1.2c-0.1,0-0.1,0-0.1-0.1c0-0.1-0.1-0.2-0.1-0.4
				c0-0.1,0-0.2,0-0.2c0-0.1,0-0.1,0-0.2c0,0,0-0.1,0.1-0.1c0,0,0.1,0,0.1,0h2.2c0.1,0,0.1,0,0.1,0c0,0,0.1,0,0.1,0.1
				c0,0,0.1,0.1,0.1,0.1c0,0.1,0,0.1,0,0.2v2.6c0,0.1,0,0.2-0.1,0.3c0,0.1-0.1,0.1-0.2,0.2c-0.1,0-0.2,0.1-0.4,0.1
				c-0.2,0-0.3,0.1-0.5,0.1c-0.2,0-0.3,0.1-0.5,0.1c-0.2,0-0.4,0-0.5,0c-0.5,0-1-0.1-1.4-0.2c-0.4-0.2-0.8-0.4-1.1-0.7
				c-0.3-0.3-0.5-0.6-0.7-1c-0.2-0.4-0.2-0.9-0.2-1.4c0-0.5,0.1-1,0.2-1.5c0.2-0.4,0.4-0.8,0.7-1.1c0.3-0.3,0.7-0.5,1.1-0.7
				c0.4-0.2,0.9-0.2,1.4-0.2c0.3,0,0.5,0,0.8,0.1c0.2,0,0.4,0.1,0.6,0.1c0.2,0.1,0.3,0.1,0.4,0.2c0.1,0.1,0.2,0.1,0.2,0.2
				c0,0,0.1,0.1,0.1,0.2C105.2,108.5,105.2,108.6,105.2,108.8z"/>
			<path class="st4" d="M110.5,113.8c0,0.1,0,0.2,0,0.2c0,0.1,0,0.1,0,0.2c0,0,0,0.1-0.1,0.1c0,0-0.1,0-0.1,0H107
				c-0.1,0-0.2,0-0.3-0.1c-0.1-0.1-0.1-0.2-0.1-0.3v-5.7c0-0.1,0-0.3,0.1-0.3c0.1-0.1,0.2-0.1,0.3-0.1h3.3c0,0,0.1,0,0.1,0
				c0,0,0,0,0.1,0.1c0,0,0,0.1,0,0.2c0,0.1,0,0.2,0,0.3c0,0.1,0,0.2,0,0.2c0,0.1,0,0.1,0,0.2c0,0,0,0.1-0.1,0.1c0,0-0.1,0-0.1,0
				h-2.3v1.6h2c0,0,0.1,0,0.1,0c0,0,0,0,0.1,0.1c0,0,0,0.1,0,0.2c0,0.1,0,0.1,0,0.2c0,0.1,0,0.2,0,0.2s0,0.1,0,0.2s0,0.1-0.1,0.1
				s-0.1,0-0.1,0h-2v1.9h2.4c0,0,0.1,0,0.1,0c0,0,0,0,0.1,0.1c0,0,0,0.1,0,0.2C110.5,113.6,110.5,113.7,110.5,113.8z"/>
			<path class="st4" d="M117.4,110.9c0,0.5-0.1,1-0.2,1.5c-0.1,0.4-0.3,0.8-0.6,1.1c-0.3,0.3-0.6,0.5-1,0.7
				c-0.4,0.2-0.9,0.2-1.4,0.2c-0.5,0-1-0.1-1.3-0.2c-0.4-0.1-0.7-0.3-1-0.6c-0.3-0.3-0.4-0.6-0.6-1c-0.1-0.4-0.2-0.9-0.2-1.5
				c0-0.5,0.1-1,0.2-1.4c0.1-0.4,0.3-0.8,0.6-1.1c0.3-0.3,0.6-0.5,1-0.7c0.4-0.2,0.9-0.2,1.4-0.2c0.5,0,0.9,0.1,1.3,0.2
				c0.4,0.1,0.7,0.3,1,0.6c0.3,0.3,0.4,0.6,0.6,1C117.3,109.9,117.4,110.4,117.4,110.9z M116,111c0-0.3,0-0.7-0.1-0.9
				c-0.1-0.3-0.1-0.5-0.3-0.7c-0.1-0.2-0.3-0.4-0.5-0.5c-0.2-0.1-0.5-0.2-0.8-0.2c-0.3,0-0.6,0.1-0.8,0.2c-0.2,0.1-0.4,0.3-0.5,0.5
				c-0.1,0.2-0.2,0.4-0.3,0.7s-0.1,0.6-0.1,0.9c0,0.4,0,0.7,0.1,1c0.1,0.3,0.1,0.5,0.3,0.7s0.3,0.4,0.5,0.5c0.2,0.1,0.5,0.2,0.8,0.2
				c0.3,0,0.6-0.1,0.8-0.2c0.2-0.1,0.4-0.3,0.5-0.5c0.1-0.2,0.2-0.5,0.3-0.7C115.9,111.6,116,111.3,116,111z"/>
			<path class="st4" d="M123.4,114.1C123.4,114.2,123.4,114.2,123.4,114.1c0,0.1-0.1,0.1-0.1,0.2c-0.1,0-0.1,0-0.2,0
				c-0.1,0-0.2,0-0.4,0c-0.1,0-0.3,0-0.3,0c-0.1,0-0.2,0-0.2,0c-0.1,0-0.1,0-0.1-0.1c0,0,0-0.1-0.1-0.1l-0.6-1.5
				c-0.1-0.2-0.1-0.3-0.2-0.4c-0.1-0.1-0.1-0.2-0.2-0.3c-0.1-0.1-0.2-0.2-0.3-0.2c-0.1,0-0.2-0.1-0.4-0.1h-0.4v2.5c0,0,0,0.1,0,0.1
				c0,0-0.1,0-0.1,0.1c-0.1,0-0.1,0-0.2,0c-0.1,0-0.2,0-0.3,0c-0.1,0-0.2,0-0.3,0c-0.1,0-0.2,0-0.2,0c-0.1,0-0.1,0-0.1-0.1
				c0,0,0-0.1,0-0.1v-6c0-0.1,0-0.3,0.1-0.3c0.1-0.1,0.2-0.1,0.3-0.1h1.7c0.2,0,0.3,0,0.4,0c0.1,0,0.2,0,0.3,0
				c0.3,0,0.5,0.1,0.7,0.2c0.2,0.1,0.4,0.2,0.5,0.4c0.1,0.1,0.3,0.3,0.3,0.5s0.1,0.4,0.1,0.7c0,0.2,0,0.4-0.1,0.6
				c-0.1,0.2-0.1,0.3-0.2,0.5c-0.1,0.1-0.2,0.3-0.4,0.4c-0.2,0.1-0.3,0.2-0.5,0.3c0.1,0,0.2,0.1,0.3,0.2c0.1,0.1,0.2,0.1,0.2,0.2
				c0.1,0.1,0.1,0.2,0.2,0.3c0.1,0.1,0.1,0.3,0.2,0.4l0.6,1.3c0.1,0.1,0.1,0.2,0.1,0.3C123.4,114.1,123.4,114.1,123.4,114.1z
				 M121.7,109.7c0-0.2-0.1-0.4-0.1-0.5c-0.1-0.1-0.3-0.3-0.5-0.3c-0.1,0-0.1,0-0.2,0c-0.1,0-0.2,0-0.4,0h-0.6v1.9h0.7
				c0.2,0,0.4,0,0.5-0.1c0.1,0,0.3-0.1,0.4-0.2c0.1-0.1,0.2-0.2,0.2-0.3C121.6,109.9,121.7,109.8,121.7,109.7z"/>
			<path class="st4" d="M129.5,108.8c0,0.1,0,0.2,0,0.3c0,0.1,0,0.1,0,0.2c0,0,0,0.1-0.1,0.1c0,0,0,0-0.1,0c0,0-0.1,0-0.2-0.1
				c-0.1-0.1-0.2-0.1-0.4-0.2c-0.2-0.1-0.4-0.1-0.6-0.2c-0.2-0.1-0.5-0.1-0.8-0.1c-0.3,0-0.6,0.1-0.9,0.2c-0.3,0.1-0.5,0.3-0.7,0.5
				c-0.2,0.2-0.3,0.4-0.4,0.7c-0.1,0.3-0.1,0.6-0.1,0.9c0,0.4,0.1,0.7,0.1,1c0.1,0.3,0.2,0.5,0.4,0.7c0.2,0.2,0.4,0.3,0.6,0.4
				c0.3,0.1,0.5,0.1,0.8,0.1c0.1,0,0.3,0,0.4-0.1c0.1,0,0.3-0.1,0.4-0.2v-1.5H127c-0.1,0-0.1,0-0.1-0.1c0-0.1-0.1-0.2-0.1-0.4
				c0-0.1,0-0.2,0-0.2c0-0.1,0-0.1,0-0.2c0,0,0-0.1,0.1-0.1c0,0,0.1,0,0.1,0h2.2c0.1,0,0.1,0,0.1,0c0,0,0.1,0,0.1,0.1
				c0,0,0.1,0.1,0.1,0.1c0,0.1,0,0.1,0,0.2v2.6c0,0.1,0,0.2-0.1,0.3c0,0.1-0.1,0.1-0.2,0.2c-0.1,0-0.2,0.1-0.4,0.1
				c-0.2,0-0.3,0.1-0.5,0.1c-0.2,0-0.3,0.1-0.5,0.1c-0.2,0-0.4,0-0.5,0c-0.5,0-1-0.1-1.4-0.2c-0.4-0.2-0.8-0.4-1.1-0.7
				c-0.3-0.3-0.5-0.6-0.7-1c-0.2-0.4-0.2-0.9-0.2-1.4c0-0.5,0.1-1,0.2-1.5c0.2-0.4,0.4-0.8,0.7-1.1c0.3-0.3,0.7-0.5,1.1-0.7
				c0.4-0.2,0.9-0.2,1.4-0.2c0.3,0,0.5,0,0.8,0.1c0.2,0,0.4,0.1,0.6,0.1c0.2,0.1,0.3,0.1,0.4,0.2c0.1,0.1,0.2,0.1,0.2,0.2
				c0,0,0.1,0.1,0.1,0.2C129.5,108.5,129.5,108.6,129.5,108.8z"/>
			<path class="st4" d="M132.2,114.1C132.2,114.2,132.2,114.2,132.2,114.1c-0.1,0.1-0.1,0.1-0.1,0.2c-0.1,0-0.1,0-0.2,0
				c-0.1,0-0.2,0-0.3,0c-0.1,0-0.2,0-0.3,0c-0.1,0-0.2,0-0.2,0c-0.1,0-0.1,0-0.1-0.1c0,0,0-0.1,0-0.1v-6.2c0,0,0-0.1,0-0.1
				c0,0,0.1,0,0.1-0.1c0.1,0,0.1,0,0.2,0c0.1,0,0.2,0,0.3,0c0.1,0,0.2,0,0.3,0c0.1,0,0.2,0,0.2,0c0.1,0,0.1,0,0.1,0.1
				c0,0,0,0.1,0,0.1V114.1z"/>
			<path class="st4" d="M139.1,113.8c0,0.1,0.1,0.2,0.1,0.3c0,0.1,0,0.1,0,0.2c0,0-0.1,0.1-0.2,0.1c-0.1,0-0.2,0-0.4,0
				c-0.2,0-0.3,0-0.4,0c-0.1,0-0.2,0-0.2,0c-0.1,0-0.1,0-0.1-0.1c0,0,0-0.1-0.1-0.1l-0.4-1.3h-2.5l-0.4,1.3c0,0,0,0.1-0.1,0.1
				c0,0-0.1,0.1-0.1,0.1c-0.1,0-0.1,0-0.2,0c-0.1,0-0.2,0-0.4,0c-0.2,0-0.3,0-0.4,0c-0.1,0-0.1,0-0.2-0.1c0,0,0-0.1,0-0.2
				c0-0.1,0-0.2,0.1-0.3l2-5.8c0-0.1,0-0.1,0.1-0.1c0,0,0.1-0.1,0.1-0.1c0.1,0,0.1,0,0.2,0c0.1,0,0.2,0,0.4,0c0.2,0,0.4,0,0.5,0
				c0.1,0,0.2,0,0.3,0c0.1,0,0.1,0,0.1,0.1c0,0,0.1,0.1,0.1,0.2L139.1,113.8z M136,109L136,109l-0.9,2.8h1.9L136,109z"/>
		</g>
	</g>
</g>
<rect x="180.7" y="36.5" class="st5" width="159.3" height="67"/>
<text transform="matrix(1 0 0 1 180.7235 49.4614)" class="st6 st7 st8"> </text>
<text transform="matrix(1 0 0 1 180.7235 49.4614)" class="st9 st7 st8"> </text>
<text transform="matrix(1 0 0 1 180.7235 70.8965)" class="st6 st7 st8"></text>
<text transform="matrix(1 0 0 1 180.7235 70.8965)" class="st9 st7 st8"></text>
<text transform="matrix(1 0 0 1 180.7235 92.332)" class="st6 st7 st8">!</text>
<text transform="matrix(1 0 0 1 180.7235 92.332)" class="st9 st7 st8">!</text>
</svg>
