<?xml version="1.0" encoding="utf-8"?>
<!-- Generator: Adobe Illustrator 15.0.0, SVG Export Plug-In . SVG Version: 6.00 Build 0)  -->
<!DOCTYPE svg PUBLIC "-//W3C//DTD SVG 1.1//EN" "http://www.w3.org/Graphics/SVG/1.1/DTD/svg11.dtd">
<svg version="1.1" id="Layer_1" xmlns="http://www.w3.org/2000/svg" xmlns:xlink="http://www.w3.org/1999/xlink" x="0px" y="0px"
	 width="760px" height="430px" viewBox="0 0 760 430" enable-background="new 0 0 760 430" xml:space="preserve">
<g>
	<defs>
		<rect id="SVGID_1_" x="-49.947" y="-30" width="859.947" height="490.048"/>
	</defs>
	<clipPath id="SVGID_2_">
		<use xlink:href="#SVGID_1_"  overflow="visible"/>
	</clipPath>
	<path clip-path="url(#SVGID_2_)" fill="none" stroke="#AD7730" stroke-width="2" d="M440.583,181.981
		c0,0-11.633-8.133-13.118-7.423c-1.485,0.708-5.734,2.874-7.471,1.647c-1.737-1.224-0.946-4.456-2.828-5.388
		c-1.879-0.933-2.921-1.642-1.729-2.35c1.187-0.708,2.918-0.111,4.354-2.463"/>
	<path clip-path="url(#SVGID_2_)" fill="none" stroke="#FF4E07" stroke-width="2" d="M383.182,273.059
		c2.508,0,4.939,0.54,5.609,1.497c0.669,0.958,2.339,1.755,3.677,1.755c1.339,0,1.503-0.638,3.01,0.637
		c1.503,1.272,2.172,1.274,2.172,2.709c0,1.436-1.672,2.392,0.167,3.026c1.838,0.639,2.507,0.159,2.507,0.957
		c0,0.799-1.002,0.639-0.167,2.071c0.837,1.435,0.334,1.115,1.338,2.072c1.002,0.956-1.84,0.639,1.837,1.115
		c3.677,0.479,2.175-0.955,3.677,0.479c1.506,1.434,0.166,3.028,2.341,3.985c2.172,0.957,3.677,3.026,4.846,3.026
		s0.669,0.16,3.846,0.319c3.174,0.16,4.341-0.638,6.182,0.317c1.839,0.957,1.338,0.957,4.178,2.391
		c2.841,1.436,3.677-0.795,5.015,0.957c1.337,1.751,4.347,3.188,6.182,3.823c1.839,0.639,3.179,0.639,5.517,0.639
		c2.34,0,2.34-0.319,5.016,0.319c2.672,0.638,4.344,0.316,6.016,0.316c1.671,0,0.165-0.477,4.012-0.477
		c3.844,0,3.844-1.753,5.848-1.113c2.006,0.635,2.34,1.113,3.845,0.794c1.506-0.317,1.505-0.159,3.008-0.317
		c1.505-0.161,0.836,0.478,2.506,0.317c1.672-0.159,0.671-0.794,2.845-1.114c2.17-0.319,2.338-1.116,3.673-1.593
		c1.339-0.479,2.173-1.597,2.843-0.319c0.667,1.274,2.173,4.144,5.515,3.984c3.343-0.162,5.682,1.274,6.686-0.319
		c1.002-1.594,0.344-1.329,1.342-2.814"/>
	<path clip-path="url(#SVGID_2_)" fill="none" stroke="#FF4E07" stroke-width="2" d="M195.955,273.933
		c0.897,0.612,1.318,1.312,2.729,0.943c1.413-0.366,1.67-0.856,2.44-0.489c0.771,0.367,0.643,0.979,1.798,1.103
		c1.157,0.122,0.514-0.123,2.312-0.123c1.798,0,1.671,0.489,3.084,0.489s1.541,0,2.824-0.489c1.286-0.49,0.642-1.47,3.083-0.736
		c2.441,0.736,2.698,0.981,3.211,1.839s0.257,0.979,0.642,2.569c0.384,1.594,0.127,3.188,1.155,3.677
		c1.028,0.49,5.522,3.063,6.421,3.551c0.9,0.491,0.643,0.857,1.542,1.102c0.899,0.247,1.671-0.122,2.184,0.981
		c0.512,1.101,0.384,2.327,1.797,1.958c1.413-0.367,1.541-2.207,2.954-2.571c1.413-0.368,3.468,0.123,3.982,0.613
		c0.513,0.488,0.512,0.733,2.438,0.367c1.929-0.367,2.441-0.369,3.341,0.243c0.899,0.613,1.028,0.98,1.925,1.838
		c0.9,0.855,0.771,2.326,2.055,1.837c1.285-0.488,2.441-1.591,3.468-1.715c1.029-0.122,3.339,1.348,4.752,0.245
		c1.412-1.101,2.569-1.959,3.21-1.959c0.643,0,3.982,0.856,4.496-0.489c0.514-1.349,0.514-2.206,1.798-2.328
		c1.284-0.122,2.569-0.122,3.083,0.492c0.514,0.608,1.027,0.734,1.027,1.469c0,0.733-2.44,1.715,0.386,2.082
		c2.825,0.366,4.496,0.733,4.496,0.733s1.669,1.959,2.953,1.47c1.286-0.488,1.671-0.611,3.726-0.611
		c2.055,0,2.698,0.488,4.109,0.857c1.413,0.365,2.184,0.857,2.827,0.12c0.641-0.733,0.898-1.223,1.284-2.693
		c0.385-1.47,0.514-2.205,1.155-2.327c0.642-0.123,3.21,0.857,4.495-0.123c1.284-0.977,0.83,0.119,1.216-0.496"/>
	<path clip-path="url(#SVGID_2_)" fill="none" stroke="#FF4E07" stroke-width="2" d="M248.853,241.592
		c-0.332,2.226-1.166,7.789-0.167,8.741c1,0.954,2.833,1.748,3.666,2.066c0.834,0.316,3.334,1.589,5.168,1.749
		c1.833,0.158,2.5,0.953,2.832,0c0.335-0.956,1.167-2.227,1.167-2.227s3.167,0.478,3.834,0.636c0.667,0.158,2.5,0.158,2.832,1.431
		c0.334,1.271,1.002,2.386,1.002,3.975c0,1.588-0.335,2.066,0,3.019c0.333,0.952,0.333,1.589,1.165,2.226
		c0.833,0.636,3.166-0.797,4-0.319c0.833,0.477,3.833,3.972,4.333,4.608c0.501,0.636,1.501,0.794,3.501,1.114
		c2,0.317,2.333,0.953,3.5,1.43c1.167,0.476-1.167,0.157,2.667,0.476c3.833,0.32,3.166-0.479,4.665,0.953
		c1.5,1.429,4,5.404,3.5,8.107c-0.499,2.699-1.5,6.675-0.166,7.784c1.333,1.116,1.834,1.116,3.667,2.386
		c1.833,1.27,0.833,2.384,4.167,1.904c3.333-0.474,3,0.161,4.5-1.108c1.5-1.271,1.333-0.637,2-1.907
		c0.667-1.274,1.834-1.274,3.167-0.796c1.332,0.477,1.498,0.796,2.499,1.114c1,0.318,2,0.793,3.333,0.952
		c1.333,0.158,1.333-1.747,3.166-1.271c1.834,0.475,3.834,3.495,5.001,3.177c1.167-0.32,2.667-3.653,4.833-3.496
		c2.166,0.161,9.166,1.588,11.166,1.113c2-0.476,1.833-0.794,3.833-0.794c2,0,1.167-1.113,3.168-1.113c2,0,4.666-0.161,5.665-1.271
		c1-1.113,3-1.431,4.667-1.75c1.667-0.316,2.834-0.316,3.832-1.111c1.001-0.794,2.501-0.478,3.834-1.272
		c1.333-0.794,1.333-1.113,3.832-2.064c2.502-0.954,2.668-2.064,3.834-2.385c1.169-0.318,1.169,0.158,2.167-0.795
		c1-0.953,2.334-1.429,3.001-2.066c0.668-0.635,1.498-0.955,1.498-1.748c0-0.794-2.332-3.336-1.332-4.607
		c0.999-1.271,3.501-2.385,3.501-2.385s1.499-1.114,2.5-2.224c0.999-1.112,1.664-1.272,1.664-3.182c0-1.904-2.165-2.382-1.165-3.493
		c1-1.114,1.833-3.02,1.999-4.132c0.166-1.114,1.17-0.955,2.001-1.433c0.832-0.477,1.666-0.634,3.001-2.063
		c1.334-1.433,4.03-8.438,6.196-12.409"/>
	<path clip-path="url(#SVGID_2_)" fill="none" stroke="#FF4E07" stroke-width="2" d="M295.43,176.267
		c-1.756,0.28-2.194,0.976-4.387,2.231c-2.194,1.254-2.486,0-4.826,0.14c-2.34,0.138-2.047,0.278-2.047,2.649
		s-1.315,1.395-2.341,2.371c-1.023,0.977-1.606,2.649-2.047,4.323c-0.438,1.673-0.438,1.812-1.9,2.231
		c-1.462,0.417-1.462,1.254-1.755,1.952c-0.292,0.698-0.292,1.117-0.292,2.37c0,1.257-0.878,1.395-1.463,1.952
		c-0.584,0.559-0.146,1.813,0,2.371c0.146,0.558,0.146,1.535-0.146,2.092c-0.292,0.558-2.925,3.486-4.096,4.603
		c-1.169,1.114-2.923,3.625-4.68,6.833c-1.753,3.205-4.678,8.088-5.849,9.76c-1.169,1.674-1.902,2.788-3.217,4.184
		c-1.316,1.394,0.585,3.767,0.585,6.972c0,3.209,0.146,0.978,0.586,4.185c0.438,3.207-0.44,1.254-0.44,2.789
		c0,1.534-0.731,2.649-1.17,3.347c-0.438,0.698-1.169,0-3.071,0c-1.9,0-2.193-1.396-2.924-1.674s-2.194,0.278-3.948,1.114
		c-1.756,0.838-2.487,0.142-3.218,0.142s-1.316-0.142-2.777-0.142c-1.463,0-1.756-0.138-2.049-0.558
		c-0.292-0.419-0.292-1.114-0.292-2.648s-0.439-0.698-1.608-1.255c-1.17-0.558-1.171-0.417-3.51-0.417
		c-2.34,0-1.17-0.42-1.609-0.977c-0.438-0.561-4.68-1.396-4.68-1.396s-1.315-0.557-3.362-0.557c-2.047,0-3.218,0.418-3.948,0.418
		c-0.732,0-1.023-0.838-2.487-0.838c-1.461,0-1.169,0.698-1.461,1.675c-0.292,0.976-2.193,1.114-3.218,1.393
		c-1.024,0.278-2.486,0.281-3.949,0c-1.462-0.278-1.462,0.281-2.34,0.561c-0.876,0.276-2.485,0-3.363-0.42
		c-0.876-0.419-1.315-0.695-2.046-0.695s-1.024,0.695-1.755,0.974c-0.73,0.279-1.024,0.558-1.024,0.977s0.878,1.673,0.878,1.673
		l-0.73,0.278c-0.731,0.279-0.733,1.117-1.026,1.535c-0.29,0.419-2.338,0.419-3.069,0.277c-0.731-0.138-2.34,1.116-1.901,2.234
		c0.438,1.114,0.731,2.926,0.731,2.926s0.213,1.763-0.215,3.045c-0.458,1.372-1.529,1.574-1.529,1.574"/>
	<path clip-path="url(#SVGID_2_)" fill="none" stroke="#FF4E07" stroke-width="2" d="M489.238,258.019
		c5.077,0.358,10.53,2.332,11.66,6.099c1.127,3.765,1.318,7.352,2.069,8.786c0.75,1.436,2.258,3.588,2.632,4.484
		c0.376,0.897,2.258,5.561,1.88,7.173c-0.374,1.617-2.442,0.898-3.385,0.898c-0.938,0-2.069,0.356-2.632,0.898
		c-0.564,0.537-2.068,0.537-2.068,1.073c0,0.54,2.256,1.255,2.256,1.975c0,0.716,0,3.049-0.752,4.485
		c-0.754,1.432-1.504,2.69-2.256,4.481c-0.754,1.795-0.564,3.587-0.379,4.127c0.189,0.536,1.315-0.181,4.514,0.179
		c3.198,0.357,7.9,3.408,8.466,5.38c0.563,1.972,1.129,4.842,3.76,4.125c2.635-0.718,3.575-1.255,5.269-2.331
		c1.691-1.075,1.128-1.972,4.7-3.229c3.573-1.256,6.586-2.511,8.464-2.69c1.884-0.177,4.893-0.715,6.396-0.896
		c1.506-0.18,2.633-0.717,2.819-2.332c0.188-1.613,1.51-3.586,1.881-4.483c0.377-0.897,1.13-2.688,0.377-3.766
		c-0.748-1.075-0.939-1.793,1.693-2.511c2.634-0.717,2.633-2.149,4.326-2.331s3.199,2.331,7.148,2.152
		c3.948-0.181,6.948,0.258,6.948,0.258"/>
	<path clip-path="url(#SVGID_2_)" fill="none" stroke="#FF4E07" stroke-width="2" d="M619.279,184.326
		c0.101,0.093,0.187,0.189,0.279,0.286c0.046-0.009,0.093-0.013,0.139-0.023C619.715,184.601,619.393,184.405,619.279,184.326z
		 M619.279,184.326c-0.01-0.009-0.019-0.019-0.029-0.029C619.225,184.287,619.243,184.301,619.279,184.326z M625.502,189.122
		c0.094,0.065,0.182,0.118,0.275,0.177c0.016-0.004,0.026-0.007,0.043-0.012C625.714,189.231,625.606,189.177,625.502,189.122z
		 M750.044,372.592c-0.303-1.632-3.122-5.086-3.523-6.908c-0.402-1.823-2.815-4.317-4.225-5.565s-1.409-2.494-4.226-3.839
		c-2.818-1.344,0.4,0-4.933-1.824c-5.332-1.822-0.301,0.771-7.646-2.685c-7.346-3.455-6.943-2.591-9.055-5.183
		c-2.113-2.59-3.021-3.452-4.932-4.413c-1.913-0.959-3.22-0.861-3.724-2.206s-1.508-2.11-2.719-3.549
		c-1.207-1.44-2.011-1.823-2.312-2.591c-0.303-0.768-1.712-3.647-0.402-4.605c1.305-0.96,1.812-2.304,1.408-2.688
		c-0.403-0.383-0.805-2.302-3.321-2.492c-2.515-0.194-1.509,0.19-4.626,0c-3.123-0.194-4.429,0-5.035-1.635
		c-0.604-1.629-1.204-3.74-1.005-5.85c0.202-2.113-1.607-6.719-1.71-9.886c-0.103-3.166,0.604-4.029,1.21-4.795
		c0.603-0.769,0.603-1.536,2.313-1.44c1.71,0.095,0.504,0.385,2.516-0.192c2.012-0.575,4.227-1.058,4.63-1.439
		c0.4-0.383,1.608-0.861,3.019-2.11c1.409-1.245,1.607-0.769,4.629-3.74c3.018-2.978,4.426-2.017,5.432-5.186
		c1.005-3.164,1.409-4.315,1.609-5.756c0.201-1.438,0.1-2.589,0-3.069l-0.008-2.137c-0.444-0.737-0.185-0.513-1.939-2.188
		c-0.876,0-0.876-0.835-1.754-0.835c-5.267,0-12.283,1.674-14.917-4.182c0-1.675,0.878-3.349-0.878-5.021
		c-0.875,0-1.754-0.838-1.754-0.838c-4.386,2.511-10.528,2.511-14.915,1.674c-1.755,0-1.755-4.182-3.51-5.855
		c-2.633-0.838-1.755,3.348-4.388,3.348c-0.878-1.674-1.754-4.186-2.631-3.348c-2.634,0-6.143,3.348-8.777,0
		c-0.876-0.838-0.876-1.673-0.876-2.511c0-1.673,0.876-3.347,0.876-4.183c-2.63-4.183-8.772-4.183-14.037-2.511
		c-1.754,0-2.63-1.672-3.51-2.511c-2.632-3.346-4.387-7.528-7.897-9.203c-4.384-1.672-8.773-3.347-9.649-7.53
		c0-1.672,0.876-3.346,1.754-5.019c0.877-0.838,1.756-1.674,3.512-2.509c4.384-1.675,13.161-0.838,11.404-8.368
		c-0.878-1.675-1.755-3.347-1.755-5.021c0-4.182,1.755-8.366,3.512-11.711c0-1.674,0.876-5.021-0.88-5.856
		c-1.755-0.837-5.264,0.835-7.019,0c-2.542-2.422-5.08-1.736-7.603-3.332c-4.482,1.561-3.884-2.2-6.219-4.688
		c-6.434,1.271-11.668-2.015-17.766-1.185c-1.755,0.836-4.386,1.673-6.142,3.347c-1.756,0.836-3.508-0.837-3.508-1.674
		c0-1.673,0-4.183-0.88-5.02c-0.193-0.132-0.377-0.271-0.567-0.406l-0.214,0.626c0,0-3.973,4.839-4.047,5.961
		c-0.072,1.123,0.368,3.087,0.146,5.473c-0.219,2.385,0.736,2.246-0.663,3.647c-1.395,1.403-4.56,3.016-4.854,4.911
		c-0.295,1.894-0.221,2.527,0,4.771c0.221,2.245-0.44,3.299,0.516,4.279c0.958,0.982,1.84,1.333,1.618,3.578
		c-0.222,2.246,1.177,4.631-1.545,4.49c-2.723-0.14-4.78-0.561-5.589,0.422c-0.811,0.979-2.43,2.807-3.165,3.577
		c-0.738,0.772-0.809,1.475-1.693,2.176c-0.884,0.701-1.324,1.543-1.618,3.157c-0.295,1.611-2.06,2.244-2.722,5.681
		c-0.661,3.439-0.146,4.632-1.031,6.666c-0.883,2.032-1.472,0.702-1.323,3.297c0.146,2.596-1.398,3.299-2.428,4.7
		c-1.03,1.403-0.369,3.086,0.515,3.578c0.882,0.493,2.723,0.631,2.06,1.474c-0.66,0.84-4.267,1.686-2.354,5.191
		c1.912,3.508,3.53,3.508,4.119,5.261c0.59,1.755-3.089,0.982-3.089,3.511c0,2.524-0.222,7.294,3.017,7.363
		c3.236,0.071,3.163-1.053,5.002,0.071c1.842,1.123,1.987,2.032,3.459,1.894c1.471-0.142,4.044,0.002,3.016,1.896
		c-1.03,1.893-3.898,3.928-5.149,4.14c-1.252,0.209-1.765-0.772-3.681-2.317c-1.912-1.542-2.132-3.437-3.53-2.173
		c-1.398,1.261-1.987,2.243-3.531,2.877c-1.545,0.628-2.649,0.137-3.091,1.19c-0.439,1.052-0.218,2.454,1.398,2.664
		c1.619,0.211,2.869,0.563,3.018,1.194c0.147,0.632-0.957,0.912-0.957,1.684s-0.441,1.754,0.663,2.526
		c1.102,0.771,1.396-0.422,2.058,0.913c0.663,1.331,0.663,7.786,3.532,10.311c2.87,2.524,2.722,2.598,3.165,2.036
		c0.441-0.562,0.146-1.334,1.104-1.541c0.956-0.214,2.354-0.424,2.279,1.749c-0.071,2.177-1.027,3.229,0.368,4
		c1.399,0.772,1.694,1.124,1.84,1.755c0.147,0.631,1.326,1.401,1.251,2.315c-0.073,0.912-1.471,0.982-1.618,1.473
		c-0.146,0.491-1.176,0.069,0.147,2.877c1.182,2.507,2.536,5.229,2.813,5.785c-0.099,0.078-0.224,0.18-0.386,0.317
		c-1.253,1.052-3.972,2.104-4.048,3.857c-0.072,1.757,1.105,2.946,1.547,3.648c0.44,0.702-0.735-0.49,1.103,1.684
		c1.839,2.177,2.133,2.735,2.942,3.228c0.81,0.491,0.369,0.351,2.282,0.982c1.912,0.632,3.973,1.121,4.708,2.388
		c0.734,1.261,1.028,2.522,1.176,3.648c0.149,1.119,0.662,4.348,0.958,4.839c0.104,0.173,0.307,0.791,0.527,1.518
		c0.219-0.024,0.432-0.056,0.645-0.109c1.106-0.289,2.516-0.099,3.924,1.148c1.408,1.249,2.114,2.017,3.118,2.688
		c1.007,0.672,0.602,2.208,2.716,1.536c2.114-0.67,4.429-2.496,4.73-2.879c0.301-0.383-0.502-1.438,1.108-0.769
		c1.609,0.673,3.121,1.537,3.723,2.111c0.603,0.575,5.232,3.069,6.842,4.128c1.609,1.054,2.818,1.438,2.92,2.781
		c0.098,1.343-0.906,1.822,0.603,2.878c1.51,1.056,5.03-0.672,6.035-0.575c1.01,0.095,1.813,0.479,2.819,1.439
		c1.005,0.96,1.308,1.151,2.918,1.343c1.608,0.191,1.005-0.381,3.22-0.191c2.214,0.191,3.724,0.191,3.321,1.345
		c-0.404,1.149-1.609,2.012-2.213,3.068c-0.606,1.054-2.315,0.577-2.516,3.358c-0.204,2.783,0.102,2.783,4.427,6.524
		c4.325,3.742,7.346,6.429,9.157,6.909c1.811,0.479,3.519,0.096,5.535,0.96c2.011,0.86,3.317,2.588,4.728,3.549
		c1.408,0.959,3.419,3.166,5.233,2.782c1.81-0.383,2.916-1.343,6.54-2.207c3.622-0.863,5.131-0.863,6.642,0.287
		c1.509,1.153,1.912,2.016,3.824,0c1.909-2.012-2.214-4.124,3.821-3.069c6.039,1.058,6.542,1.823,9.056,1.919
		c2.517,0.098,4.23-0.67,5.637,0.192c1.41,0.862,2.617,2.014,3.522,2.88c0.903,0.862,2.215,1.823,3.722,3.452
		c1.51,1.63,3.222,3.07,3.726,3.937c0.501,0.86,0.602,1.917,1.609,2.11c1.003,0.192,5.937,0.095,7.042-0.097
		c1.107-0.19,1.811,0.77,2.617,2.781c0.804,2.017,0.399,3.168,1.407,3.168s1.41,1.248,2.719-0.288
		c1.308-1.535,3.017-3.933,3.925-5.372c0.904-1.442,0.403-1.633,1.81-1.824c1.409-0.192,1.912,0.384,2.716,0.481
		c0.807,0.095,1.612,0.863,3.323,0.67c1.708-0.191,2.917,2.014,3.821-1.438c0.905-3.456,0.403-6.814,0.403-7.39
		s1.812-3.358,1.712-5.277c-0.103-1.918-0.705-1.728,0.803-3.456c1.509-1.723,5.131-4.891,4.829-6.712
		C748.634,373.841,750.347,374.224,750.044,372.592z"/>
	<path clip-path="url(#SVGID_2_)" fill="none" stroke="#FF4E07" stroke-width="2" d="M174.193,196.609c0,0,2.276-1.913,2.946-2.808
		c0.669-0.894,2.142-0.512,7.229-0.384c5.087,0.13,1.605-1.021,2.276-1.531c0.667-0.51,0.935-1.149,1.204-2.171
		c0.268-1.021-0.133-1.787-0.133-2.552c0-0.766,3.212-1.915,4.284-2.682c1.07-0.765,8.568-3.446,10.576-4.722
		c2.007-1.276,5.756-5.233,8.433-9.957c2.678-4.723,4.686-3.957,5.891-4.468c1.204-0.509,2.142-1.02,1.739-2.17
		c-0.402-1.148,0.536-2.425,1.742-3.957c1.205-1.532-0.268-2.042-0.939-3.702c-0.669-1.66-0.267-1.022-0.668-2.425
		c-0.401-1.405-1.607-2.17-1.873-3.446c-0.268-1.277,1.604-1.149,3.614-1.915c2.008-0.768,0.803-1.788,0.669-2.936
		c-0.135-1.149-0.669-2.298-1.071-2.937c-0.402-0.638-2.143,0.256-3.212-0.127c-1.071-0.384-0.938-1.404-0.268-3.319
		c0.669-1.914,0.4-1.405,0.268-2.808c-0.134-1.404-2.009-2.682-1.742-3.83c0.267-1.148,1.474-1.53,3.615-2.299
		c2.141-0.765,3.749-1.658,4.685-2.552c0.938-0.894-1.07-2.681-2.81-2.681c-1.74,0-2.946-2.298-3.348-2.808
		c-0.4-0.512,0.133-2.937,1.072-4.723c0.937-1.787,0.401-2.169-1.339-4.085c-1.74-1.916-2.81-0.384-3.347-1.276
		c-0.535-0.894,1.472-4.725,3.748-5.873c2.276-1.148,2.544,0,3.883,0c1.339,0,2.008-0.254,4.016-1.532
		c2.008-1.276,2.008-1.404,2.678-1.787c0.669-0.382,3.616-0.382,4.954-0.511c1.337-0.129,1.337-1.788,1.74-2.425
		c0.402-0.638,0.402-0.511,0.536-2.17c0.134-1.661,0.668-1.021,3.079-4.084c2.409-3.065,1.874-3.447,2.544-4.724
		c0.667-1.276,3.078-2.68,3.88-4.338c0.805-1.66-1.473-5.619-1.473-5.619"/>
	<path clip-path="url(#SVGID_2_)" fill="none" stroke="#FF4E07" stroke-width="2" d="M424.343,152.85c0,0-2.82,5.26-3.611,6.014
		c-0.792,0.754-8.178,2.767-8.966,3.27c-0.794,0.502-0.794,0.502-2.375,2.515c-1.585,2.011-3.166,3.52-4.749,4.023
		c-1.582,0.503-2.636,0.755-3.429,1.761c-0.79,1.005-1.847,2.768-2.64,3.772c-0.788,1.006-3.69-0.754-2.898,3.019
		c0.79,3.773,2.11,5.533,2.11,7.795c0,2.264,0.263,5.032-0.265,8.049c-0.527,3.019-1.585,11.82-0.527,13.581
		c1.055,1.761,1.846,3.27,1.055,4.022c-0.792,0.757-2.375,0.253-1.848,2.769c0.527,2.513,0.793,3.521,2.639,4.023
		c1.848,0.504,5.803,0.504,5.803,2.265c0,1.759-7.121,6.286-6.068,9.807c1.058,3.521,2.376,6.29,2.903,7.797
		c0.529,1.508,1.583,4.78,3.165,5.783c1.583,1.008,4.221,2.519,4.749,3.272c0.526,0.754,3.953,4.021,5.011,2.765
		c1.053-1.257,0.527-7.544,3.164-6.792c2.639,0.755,2.639,4.53,2.639,5.285c0,0.753,0.527,1.761,2.109,2.263
		c1.581,0.503,2.638,1.005,3.428,0.253c0.792-0.755,3.167-4.781,3.167-4.781s1.316-1.006,2.372-1.257s2.636,1.005,3.165-0.753
		c0.527-1.762-1.319-2.518,1.053-3.774c2.377-1.257,3.695-1.759,5.014-2.013c1.317-0.251,1.844,0,3.166-0.501
		c1.315-0.503,2.107-0.756,3.166-1.257c1.053-0.505,5.274-2.265,5.274-2.265s2.636,3.771,3.427,4.526
		c0.792,0.753,3.428,6.54,4.484,7.799c1.054,1.256-1.057,1.758,1.581,3.267c2.638,1.511,6.331-1.76,7.123-2.011
		c0.79-0.253,3.691-0.253,3.691-0.253l3.165,2.518c0,0-2.122,5.554-1.856,6.812c0.261,1.253,1.692,1.994,1.692,1.994l3.388-1.899
		c0,0,1.694,0.76,2.193,5.13c0.171,1.522,4.382-4.561,10.46-3.04c2.373-1.508,12.606-4.723,13.662-5.727
		c1.056-1.008,3.692-4.025,4.483-5.283c0.794-1.257,1.319-1.51,2.375-3.27c1.056-1.763,1.056-1.763,2.109-3.271
		c1.057-1.507,1.847,1.26,1.847-3.27c0-4.526-1.057-13.076-1.32-13.832c-0.263-0.754-1.052-5.028-1.052-5.028s0-3.522-0.265-4.276
		c-0.264-0.754-4.22-5.282-4.748-6.54c-0.526-1.257-12.132-3.271-12.66-4.023c-0.527-0.755-1.319-3.522-1.844-4.527
		c-0.529-1.007-0.792-1.762-2.112-2.013c-1.317-0.25-3.693-0.25-3.693-0.25l-1.847-3.522c0,0-1.58-0.251-0.263-1.258
		c1.32-1.005,2.109-0.25,1.582-2.012c-0.527-1.76-3.94-3.845-3.94-3.845s0.666-2.191,0.139-3.197
		c-0.525-1.005-6.18-7.072-6.18-7.072l-4.449-0.589l-2.72-3.655"/>
	<path clip-path="url(#SVGID_2_)" fill="none" stroke="#FF4E07" stroke-width="2" d="M410.91,143.291
		c-2.454-0.171-3.197,2.804-4.088,1.104c-0.891-1.699-1.781-0.566-2.523-4.106c-0.743-3.539-0.594-3.398-2.822-4.673
		c-2.229-1.275-3.712-1.416-8.314-1.698c-4.605-0.284-5.643-1.558-10.1-2.975c-4.455-1.417-2.675,0-6.831-1.274
		c-4.158-1.276-5.197-2.69-6.236-3.257c-1.039-0.568-3.108-0.867-4.303-1.213c-1.193-0.345-3.568,0.788-4.608-0.062
		c-1.039-0.851-3.564-2.55-3.711-3.399c-0.149-0.849-1.783-3.397-1.783-3.397s-1.484,1.982-4.306,3.116
		c-2.821,1.131-3.267,2.124-4.009,3.823c-0.743,1.698-3.119,6.939-3.119,6.939s-1.04,1.698-1.485,0.707
		c-0.445-0.991,0.147-2.69-0.594-2.974c-0.743-0.282-2.822,0-3.861,0c-1.041,0-1.633-0.282-3.713,0.425
		c-2.08,0.708-3.565,1.557-5.346,0.708c-1.783-0.849-1.485-0.284-2.822-1.7c-1.335-1.416-2.079-1.98-3.267-2.547
		c-1.187-0.567-5.347-1.983-5.939-2.267c-0.594-0.284-0.892,0.567-2.822,1.274c-1.932,0.709-2.229,2.973-3.268,2.549
		c-1.04-0.424-3.861-0.565-4.751-0.565c-0.892,0-1.782,0.425-2.526,0.284c-0.74-0.143-2.375-1.416-2.969-1.841
		c-0.594-0.426-3.267-2.125-3.86-2.125c-0.595,0-3.12,0.001-3.862,0.285c-0.742,0.282-1.188,0.424-2.228,0.282
		c-1.039-0.142-4.158-1.699-4.307-2.124c-0.148-0.425-2.078-1.7-3.118-1.841c-1.038-0.143-1.188-0.991-2.228,0
		c-1.039,0.991-1.93,1.84-1.634,3.114c0.298,1.275,1.188,2.833,1.04,3.683c-0.148,0.849-1.188,1.133-2.227,1.133
		c-1.04,0-2.822-0.708-4.456-0.141c-1.635,0.565-2.078-1.417-3.416-0.143c-1.336,1.276-1.336,3.965-2.078,4.107
		c-0.743,0.143-1.041,0.709-1.041,1.984v3.54c0,0.425-0.592,0.565,0.594,1.84c1.188,1.275,4.752,3.399,6.832,4.673
		c2.08,1.275,2.227,2.266,4.901,2.407c2.673,0.143,3.118,0.283,3.711,0.708c0.594,0.425,0.891,1.417,2.079,2.409
		c1.188,0.991,1.633,0.849,2.376,1.982c0.743,1.133,1.039,0.85,1.039,2.125c0,1.272,0.594,0.849-0.296,1.84
		c-0.891,0.991-1.783,0.708-2.228,2.124c-0.446,1.416-0.742,2.124-1.188,2.55c-0.445,0.424-1.041,0.707-0.596,1.274
		c0.447,0.567,0.596,0.424,1.634,1.273c1.04,0.85,1.486,1.274,1.486,2.125c0,0.85-1.633,0.567,0,1.558
		c1.632,0.992,2.228,0.142,2.228,1.275c0,1.133,1.188,2.974,1.782,3.965c0.593,0.99-0.743,1.416,0.593,2.69
		c1.337,1.274,2.08,0.989,2.822,1.982c0.742,0.991,1.039,0.565,0.742,1.842c-0.295,1.273-2.822,5.379-1.931,7.646
		c0.89,2.266,0.89,2.691,0.89,3.539c0,0.85-2.079,1.417,0.297,1.7c2.377,0.283,2.823,0.425,3.714,0
		c0.89-0.425,1.484-0.425,2.82-0.991c1.337-0.567,1.931-1.417,2.525-2.267c0.594-0.849,2.229-1.131,3.267-1.557
		c1.04-0.424,1.336,0.284,2.971,1.275c1.632,0.991,2.078,1.557,3.563,1.415s1.634,0,2.227-0.707c0.593-0.708,0-0.991,1.932-0.708
		c1.93,0.282,4.454,0.991,6.831,2.407c2.375,1.415,1.781,0,4.604,2.689c2.821,2.692,5.643,5.524,4.305,6.23
		c-1.336,0.708-4.008,0.994-3.266,3.117c0.742,2.123,1.93,2.125,3.564,1.841c1.633-0.283,2.524-0.992,3.564,0
		c1.04,0.991,0.891,1.133,1.93,1.842c1.041,0.707,1.041,0.849,1.782,0.989c0.743,0.142,1.039,0.852,3.118,0.852
		s3.713-0.144,4.307-0.427c0.593-0.283-0.892,0.708,2.375-0.142c3.267-0.849,3.12-1.981,4.455-2.407
		c1.337-0.423,1.93-1.274,2.822-2.123c0.891-0.85,0.446-1.274,1.93-2.408c1.486-1.134,1.04-1.414,2.375-1.84
		c1.338-0.425,2.673-2.832,5.497-3.4c2.819-0.565,0.889-0.141,4.749-0.141c3.862,0,6.386,0.141,7.275,1.133
		c0.894,0.991,1.042,0.567,2.675,0.567s2.823,1.132,4.307,1.273c1.485,0.143,0.891,1.417,2.227-0.141
		c1.338-1.557,2.822-2.265,2.822-2.265s2.575-0.408,2.972,1.274c0.286,1.224,0.821,1.563,1.266,2.072"/>
	<path clip-path="url(#SVGID_2_)" fill="none" stroke="#FF4E07" stroke-width="2" d="M433.415,300.373c0,0-1.169,1.275-2.005,1.751
		c-0.837,0.481-1.005,1.437-1.005,2.233s-0.168,1.275-0.836,1.595c-0.667,0.318-1.17,0.957-2.34,1.593
		c-1.169,0.637-1.003,0.955-1.67,2.55c-0.67,1.595-1.002-0.319-3.344-1.116c-2.339-0.797-2.339-2.069-3.676-2.708
		c-1.337-0.638-2.673,0.639-3.343,0.956c-0.668,0.318-1.003,0.795-2.005,2.072c-1.003,1.274,0,3.346,0.167,5.099
		c0.167,1.752-0.335,6.217-0.335,7.331c0,1.116-0.333,2.39-0.836,4.304c-0.502,1.911-1.169,1.593-1.67,2.708
		c-0.503,1.114-0.335,2.071-0.335,3.666c0,1.593-1.84,0.954-2.508,1.275c-0.669,0.317,0.503,1.274,0.503,1.274
		s2.174,1.593,4.177,1.913c2.005,0.317,5.35-0.479,5.854-0.479c0.499,0,2.839-0.639,5.345-1.594
		c2.505-0.958,2.006,0.636,2.842,1.114c0.834,0.479,0.834,0.638,2.672,2.391c1.839,1.753,0.671,2.39,1.338,4.143
		c0.669,1.753,2.341,1.915,2.676,3.349c0.334,1.435,0.668,2.549,0.165,4.145c-0.5,1.593-0.332,1.432-0.667,2.866
		c-0.333,1.435,0.167,1.435,0.335,2.391c0.167,0.956,1.335,1.434,2.841,2.391c1.502,0.957,2.673,5.101,3.172,7.811
		c0.506,2.708-3.007,7.649-4.007,9.719c-1.004,2.073,1.333,2.868,3.173,7.013c1.841,4.144,2.007,10.36,0.502,9.403
		c-1.503-0.958-4.346-0.319-10.695,0.158c-6.351,0.479-5.35,1.754-7.688,2.868c-2.339,1.116-4.679,3.508-6.017,4.942
		c-1.335,1.434-2.674,1.115-5.349-0.957c-2.672-2.07-2.004-1.274-6.519-0.956c-4.511,0.319-4.511-1.753-6.683-3.186
		c-2.172-1.437-5.684,2.229-10.195,2.867c-4.514,0.638-0.836-1.593-1.735-5.635c-0.897-4.039-3.11-4.245-10.799-6.158
		c-7.689-1.91-6.018,0.318-8.191,0.796c-2.172,0.477-6.518,3.188-7.02,2.709c-0.5-0.479-2.673-10.199-3.174-11.474
		c-0.501-1.276-5.182-2.073-4.846-3.03c0.333-0.956,4.011-2.229,4.846-3.503c0.836-1.276-1.671-1.276-3.844-2.552
		c-2.174-1.272-3.675-1.272-5.18-3.504c-1.505-2.229-5.515-4.463-5.515-4.463s-2.84-2.232-3.844-2.552
		c-1.004-0.318-2.507-0.955-3.343-3.027c-0.835-2.073-7.02-9.242-8.538-11.009c-1.521-1.77-0.988-2.536-1.322-3.651
		c-0.334-1.114-3.343-1.114-3.564-1.303c-0.22-0.189-3.117,2.674-3.117,2.674l-2.511,0.54l-4.012-3.346l1.839-7.173
		c0,0,1.838-4.623,1.838-5.098c0-0.48-0.835-0.48-1.338-0.48c-0.501,0-4.512,0.48-5.691,0.294c-1.177-0.186-2.832-0.929-3.333-1.248
		c-0.501-0.322-2.339-0.319-3.176-0.319c-0.835,0-9.525-1.116-10.025-1.116c-0.503,0-2.507,0.162-2.507,0.162
		s-1.003-3.189-1.506-4.623c-0.502-1.435-1.838-3.188-3.341-4.942c-1.504-1.754-3.175-0.796-4.513-2.229
		c-1.337-1.434,0-4.782-0.668-5.897c-0.669-1.115,0.668-2.551,0.668-2.551s1.003-3.188,1.338-4.302
		c0.334-1.114-1.004-3.666-1.338-4.463c-0.334-0.798-1.041-1.882-1.041-1.882"/>
	<path clip-path="url(#SVGID_2_)" fill="none" stroke="#FF4E07" stroke-width="2" d="M713.702,278.942
		c0.021,0.108-0.244,1.056-0.226,1.223c0.067,0.592,0.098,0.733-0.061,1.85c-0.201,1.44-0.604,2.592-1.609,5.756
		c-1.006,3.169-2.414,2.208-5.432,5.186c-3.021,2.972-3.22,2.493-4.629,3.74c-1.41,1.249-2.618,1.729-3.019,2.11
		c-0.403,0.382-2.618,0.864-4.63,1.439c-2.012,0.577-0.806,0.287-2.517,0.192c-1.71-0.096-1.71,0.672-2.312,1.44
		c-0.605,0.766-1.313,1.629-1.21,4.795c0.103,3.167,1.912,7.772,1.71,9.886c-0.199,2.109,0.4,4.221,1.005,5.85
		c0.607,1.633,1.912,1.44,5.035,1.635c3.117,0.19,2.111-0.194,4.626,0c2.517,0.19,2.918,2.109,3.321,2.492
		c0.404,0.384-0.104,1.728-1.408,2.688c-1.309,0.958,0.1,3.838,0.402,4.605c0.301,0.768,1.104,1.152,2.313,2.591
		c1.21,1.438,2.214,2.204,2.718,3.549s1.811,1.247,3.724,2.206c1.911,0.961,2.818,1.823,4.932,4.413
		c2.111,2.592,1.709,1.728,9.055,5.183c7.346,3.456,2.314,0.862,7.646,2.685c5.333,1.824,2.114,0.48,4.933,1.824
		c2.816,1.345,2.816,2.591,4.225,3.839c1.41,1.248,3.823,3.742,4.226,5.565c0.401,1.822,3.221,5.276,3.523,6.908
		s-1.409,1.249-1.108,3.072c0.302,1.821-3.319,4.989-4.829,6.712c-1.508,1.729-0.907,1.538-0.803,3.456
		c0.1,1.919-1.711,4.702-1.711,5.277s0.501,3.934-0.403,7.39c-0.905,3.452-2.114,1.247-3.822,1.438
		c-1.713,0.193-2.517-0.575-3.323-0.67c-0.803-0.098-1.305-0.674-2.716-0.481c-1.407,0.191-0.905,0.382-1.81,1.824
		c-0.908,1.439-2.617,3.837-3.925,5.372c-1.309,1.536-1.711,0.288-2.72,0.288c-1.007,0-0.603-1.151-1.406-3.168
		c-0.807-2.012-1.51-2.972-2.617-2.781c-1.105,0.191-6.039,0.289-7.042,0.097c-1.008-0.193-1.108-1.25-1.609-2.11
		c-0.505-0.866-2.215-2.307-3.726-3.937c-1.507-1.629-2.818-2.59-3.722-3.452c-0.905-0.863-2.112-2.018-3.522-2.88
		c-1.406-0.862-3.12-0.095-5.637-0.192c-2.514-0.096-3.017-0.861-9.056-1.919c-6.035-1.055-1.912,1.058-3.821,3.069
		c-1.912,2.016-2.315,1.153-3.824,0c-1.511-1.15-3.02-1.15-6.642-0.287c-3.624,0.864-4.73,1.824-6.54,2.207
		c-1.813,0.384-3.825-1.823-5.233-2.782c-1.41-0.961-2.717-2.688-4.728-3.549c-2.015-0.864-3.725-0.481-5.535-0.96
		c-1.812-0.48-4.831-3.167-9.157-6.909c-4.326-3.741-4.631-3.741-4.427-6.524c0.199-2.781,1.909-2.305,2.517-3.358
		c0.603-1.057,1.808-1.917,2.212-3.068c0.402-1.153-1.108-1.153-3.321-1.345c-2.215-0.189-1.611,0.383-3.22,0.191
		c-1.61-0.191-1.913-0.383-2.918-1.343c-1.007-0.961-1.81-1.345-2.818-1.439c-1.006-0.097-4.526,1.631-6.036,0.575
		c-1.508-1.056-0.505-1.535-0.603-2.878c-0.102-1.344-1.31-1.728-2.92-2.781c-1.609-1.059-6.239-3.553-6.842-4.126
		c-0.604-0.576-2.113-1.44-3.723-2.111c-1.61-0.672-0.808,0.384-1.108,0.767c-0.302,0.383-2.615,2.209-4.73,2.879
		c-2.114,0.672-1.709-0.864-2.716-1.534c-1.004-0.673-1.71-1.44-3.118-2.689c-1.408-1.247-2.817-1.438-3.924-1.148
		c-1.109,0.287-2.213,0.096-4.125-0.385c-1.912-0.481-2.216,1.15-2.416,2.206c-0.201,1.055-3.321,3.742-5.031,4.99
		c-1.711,1.247-2.716,0.96-3.923,0.96c-1.209,0-4.127,4.798-4.328,5.371c-0.2,0.577-4.023,4.414-5.032,5.471
		c-1.007,1.057-5.836,4.99-6.438,5.564c-0.602,0.575-4.024,1.632-5.536,3.455c-1.506,1.823-2.916,3.551-4.93,4.223
		c-2.014,0.674-3.622-0.48-4.526-1.345c-0.906-0.864-0.304-1.534-3.223-1.918c-2.917-0.384-3.621-0.768-3.621-0.768
		c-0.906-0.095-0.402-0.961-2.314-2.016c-1.91-1.053-1.006,0.386-1.81,1.151c-0.806,0.77-0.203,1.44,0.099,4.031
		c0.303,2.589,2.141,1.116,2.341,3.128c0.2,2.019,1.375,0.968,2.58,1.732c1.212,0.769-0.794,0.989-2.102,1.275
		c-1.309,0.29-0.805,0.484-2.819,0.292c-2.012-0.193-4.428,0.287-6.943,1.726c-2.515,1.44-3.418-1.055-5.131-1.247
		c-1.711-0.191-0.703-1.055-1.911-2.783c-1.207-1.725-1.41,0.097-2.112,0.194c-0.705,0.097-2.717-1.344-5.232-1.823
		c-2.514-0.481-0.504,5.468-3.221,7.676c-2.718,2.206-1.206-3.071-1.206-3.071s-1.21,0.479-1.711,1.823
		c-0.505,1.343-2.92,1.727-3.122,0.48c-0.202-1.247,0-3.07-0.806-2.591c-0.804,0.479-2.715,3.551-2.918,3.936
		c-0.198,0.382-2.915,0.86-4.83,0.766c-1.91-0.096-3.259-1.022-5.547-2.706c-2.287-1.687-5.195-3.667-6.755-3.768
		c-1.559-0.097-0.521,2.281-1.559,3.371c-1.04,1.088-2.805-0.396-3.949-1.488c-1.144-1.089-0.934,0.1-2.286,0.398
		c-1.354,0.298-1.664-0.694-2.703-1.093c-1.039-0.396-1.143-2.277-2.184-3.171c-1.039-0.892-1.974,0.398-3.432,0.792
		c-1.452,0.396-1.557-1.584-2.804-1.882c-1.246-0.297-1.245,5.153-1.869,7.233c-0.623,2.084-3.847,0.794-4.678,1.39
		c-0.831,0.593-3.741-0.198-5.611-0.496c-1.872-0.298-3.119,0.496-6.236,1.287c-3.118,0.793-4.157,2.083-5.716,2.975
		c-1.56,0.891-1.352-1.092-3.43-1.586c-2.078-0.496-3.222,0.494-4.572,0.992c-1.354,0.495-2.809-0.498-7.38,0.594
		c-4.573,1.088-6.029,5.154-8.523,7.232c-2.494,2.083-4.157-0.394-7.484-2.278c-3.323-1.882-5.195-0.596-8.209-0.396
		c-3.014,0.198-1.247,0.298-2.91-1.685c-1.664-1.983-2.6-0.693-4.988-0.298c-2.389,0.398-6.756,2.578-8.106,2.479
		c-1.354-0.101,0.207-2.677-0.417-5.552c-0.623-2.873-4.366-3.368-6.65-5.252c-2.286-1.883-4.055-0.793-7.276-1.09
		s-2.493,0.894-5.3,1.585c-2.807,0.694-5.405,2.677-6.652,2.874c-1.247,0.198-0.728-0.595-0.728-2.576s0-0.793-0.103-1.486
		c-0.104-0.693-0.624-1.882-1.872-4.458c-1.246-2.579-0.831-2.677-1.558-3.868c-0.727-1.187-1.767-1.09-3.533-0.989
		c-1.767,0.1-2.91,0.693-3.014-0.299c-0.104-0.988,4.365-2.478,5.82-3.171c1.455-0.694,1.87-1.387,2.391-2.181
		c0.52-0.791-1.664-0.991-2.287-1.088c-0.624-0.1-0.935-0.992-4.158-1.982c-3.222-0.993-2.389-1.884-3.534-3.569
		c-1.144-1.684-1.04-1.782-2.078-2.279c-1.039-0.494-1.873-0.99-5.092-3.269c-3.223-2.279-2.911-1.092-3.64-1.092
		c-0.726,0-2.182-1.684-2.285-2.181c-0.104-0.493-0.625-2.575-0.728-2.874c-0.104-0.297-2.598-3.765-3.742-5.251
		c-1.144-1.487-1.767-2.183-3.429-3.271c-1.664-1.093-3.119-1.982-3.014-2.874c0.104-0.895-0.104-1.884-1.872-2.08
		c-1.767-0.201-1.974,0.789-3.117,2.674c-1.143,1.885-2.91,0.395-3.637-0.198c-0.728-0.595-2.391-0.593-3.327-4.362
		c-0.933-3.764,0.312-1.88,0.936-3.764c0.623-1.883,2.183-3.866,3.013-5.156c0.833-1.287,0-1.484-0.622-2.576
		c-0.625-1.088-3.43,0.2-6.237,0.794c-2.805,0.597-1.871-0.99-3.118-1.882c-1.248-0.893-1.456-0.101-5.819,0.1
		c-4.365,0.195-3.639-0.794-6.132-0.695c-2.495,0.099-2.808,1.386-4.573,2.082c-1.768,0.693-0.832,1.883-1.145,2.874
		c-0.312,0.99-0.831,3.169-0.831,4.26c0,1.09,0.311,2.28-1.04,4.164c-1.351,1.883-2.909,2.278-4.573,3.964
		c-1.663,1.686,0.208,2.576,0.208,3.765c0,1.19-1.247,1.487-2.806,1.389c-1.559-0.1-1.351,0.596-3.429,0.893
		c-2.079,0.297-2.39-0.297-3.743-1.489c-1.35-1.187-3.428-1.98-6.65-3.27c-3.222-1.287-3.43,0.099-5.093,0.398
		c-1.663,0.297-3.118-1.686-4.156-2.874c-1.041-1.189-2.184-1.089-3.743-1.686c-1.559-0.595-3.119,0.296-4.569,0.541
		c-1.208,0.204-2.018-0.963-3.229-2.31s-0.604-0.772-1.816-0.772c-1.211,0-1.817,0-2.624,0.388
		c-0.808,0.385-2.422-0.388-3.027-0.388c-0.606,0-4.038-0.769-5.048-0.574c-1.009,0.192-3.431,1.732-4.441,2.308
		c-1.009,0.58-1.413-0.575-3.836-1.733c-2.421-1.152-0.806-2.113-2.018-3.653c-1.21-1.539-1.008-0.772-3.432,0
		c-2.421,0.768-4.239,2.501-5.248,4.426c-1.009,1.926-1.817,4.425-2.625,5.39c-0.806,0.964-2.624,0.964-5.449,2.501
		c-2.827,1.543-2.424,0-4.241-0.961c-1.816-0.962-1.009-0.771-2.019-1.731c-1.009-0.965-0.604-1.154-1.614-2.505
		c-1.01-1.347-1.817-0.384-3.835-0.384s-1.211-0.963-2.019-2.117c-0.81-1.155-0.81-1.155-2.222-0.965
		c-1.412,0.194-1.614,0.388-3.229,0.772c-1.615,0.386-3.229-0.963-5.046-1.733c-1.817-0.771-5.938-2.863-8.16-5.175l-1.602-0.926
		l0.803-1.142c0.241-0.844,0.645-0.997,0.886-1.534c0.243-0.539,0.323-0.77,0.564-1.307c0.242-0.539,0.645-1.153,0.726-1.921
		c0.081-0.769,0.323-1.384,0.627-2.135c0.305-0.751,0.018-1.172,0.018-1.785c0-0.614,0.081-1.537,0.081-2.458
		c0-0.923,1.047-2.384,1.934-3.997c0.887-1.615,3.304-2.92,3.304-2.92l2.498-1.309l2.579-0.69l1.451-0.846l1.45-0.689
		c0,0,0.564-0.464,1.611-1.539c1.047-1.074,0.483-0.769,2.095-3.226c1.613-2.458,1.048-1.691,1.628-2.77
		c0.58-1.078,1.435-3.148,1.435-3.148l1.208-2.383l2.902-6.148c0,0,0.564-1.767,0.564-3.15c0-1.383,0.322-1.383,0.322-2.765
		c0-1.385-0.645-2.615-1.127-4.305c-0.484-1.69-0.484-6.377-0.324-8.298c0.162-1.922,0-1.462-0.323-3.074
		c-0.322-1.614,0.323-1.922-0.08-3.306c-0.403-1.383-0.485-1.46-1.452-1.536c-0.967-0.078-0.402-0.845-0.645-1.615
		c-0.241-0.768-0.724-2.15-2.014-4.381c-1.29-2.228-4.11-10.372-4.433-11.602c-0.322-1.23-0.403-1.844-0.322-2.306
		c0.08-0.464,0.322-1.461-0.081-3.074c-0.403-1.612-0.322-3.458-0.886-4.382c-0.565-0.92-0.726-1.612-1.129-2.227
		c-0.403-0.614,0.081-1,0.081-1.691c0-0.69,0.725-1.153,1.128-2.383s-2.337-13.908-2.337-13.908s-2.338-5.61-3.465-7.301
		c-1.128-1.69-1.048-1.844-1.934-2.228c-0.886-0.385-2.177-1.768-2.58-3.306c-0.403-1.536-0.242-5.378-0.322-6.07
		s0.483-1.383,0.483-3.074c0-1.69,0-3.227-0.08-4.917c-0.081-1.69-0.242-2.459-0.484-3.611c-0.242-1.152-0.645-2.076-0.887-3.151
		c-0.242-1.076-0.645-2.459-0.484-3.536c0.162-1.076-1.451-7.991-2.499-9.759c-1.047-1.768-0.886-2.305-1.611-4.15
		c-0.726-1.844-0.483-2.536-1.612-3.919c-1.128-1.383-0.725-1.844-0.967-3.073c-0.241-1.23-0.323-1.153-1.209-1.844
		c-0.887-0.692-1.612-1.922-1.612-1.922s-1.53-1.46-2.497-1.691c-0.967-0.229-2.821-0.844-5.238-1.075
		c-2.418-0.231-6.77-3.688-8.06-4.688c-1.289-0.999-3.511-2.757-3.511-2.757c-1.444-0.55-2.021-0.275-4.333,0.552
		c-2.31,0.824-2.599-0.277-4.043-1.102c-1.444-0.827-1.155-2.205-2.022-3.581c-0.865-1.376-1.444-0.826-2.311-2.753
		c-0.867-1.928-1.732-3.581-1.732-3.581s-0.867-2.754-1.883-5.164c-1.016-2.411-0.716-2.823-1.005-4.75
		c-0.289-1.927-0.867-3.855-2.223-5.167c-1.355-1.312-2.109-1.993-4.131-2.269c-2.021-0.276-5.198-0.826-5.198-0.826
		s-1.444-0.551-3.581-1.009c-2.137-0.46-1.041-2.02-1.619-3.673c-0.577-1.652-2.599-2.479-4.12-4.878
		c-1.521-2.397-2.234-1.181-3.678-2.559c-1.444-1.376-2.6-1.927-5.289-1.544c-2.688,0.382-2.797-0.659-4.662,0.342
		c-1.864,1-4.778-1.552-4.778-1.552l-1.734-0.275l-3.171-0.226c-3.17-0.225-3.471-1.427-3.471-1.427l-1.444,0.551
		c-1.444,0.551-1.898,0.876-1.898,0.876s-2.145-1.152-3.877-1.979c-1.733-0.826-1.155-0.826-3.756-2.753
		c-2.599-1.929,0,0-2.021-1.653c-2.022-1.652-3.257-1.139-3.257-1.139s-1.652-1.064-2.519-1.89
		c-0.867-0.827-1.732-0.275-3.219-0.504c-1.485-0.229-1.402-1.424-3.135-3.077c-1.732-1.652-3.177-0.55-4.621,0.275
		c-1.444,0.825-1.444,0.276-3.754-0.551c-2.311-0.827-2.888-3.305-3.465-4.131c-0.579-0.827-0.579-2.479-1.155-3.304
		c-0.579-0.827-1.733-4.407-1.733-4.407s-1.155-2.754-2.021-4.682c-0.867-1.928-1.445-2.754-2.708-3.037
		c-1.264-0.284-1.336-1.646-2.87-0.343c-1.533,1.303-1.355-1.026-3.665-1.578c-2.311-0.551-2.599-1.928-4.943-3.551
		c-2.342-1.624-11.566-6.031-11.566-6.031s2.12-17.615,3.717-18.577c1.599-0.963,2.406-1.155,2.406-2.503
		c0-1.347,1.009-3.272,2.221-5.004c1.211-1.731,2.421-2.695,3.23-4.043c0.807-1.346,1.614-2.31,1.412-4.234
		c-0.202-1.925,0.404-3.85,2.018-4.234c1.616-0.385,4.038-0.193,4.644-0.385c0.605-0.193,3.229-0.963,4.441-0.963
		c1.212,0,3.633-0.769,5.046-0.577c1.412,0.191,3.835,2.117,5.247,2.31c1.414,0.194,3.836,0,5.855,1.155
		c2.019,1.154,2.222,1.346,4.644,2.308c2.422,0.963,5.449,1.927,6.863,1.927c1.412,0,2.826,0.577,3.634,1.154
		c0.808,0.578,0,1.732,2.623,2.118c2.625,0.383,4.441,1.155,5.249,0.577c0.808-0.577,2.018-1.155,2.624-1.54
		c0.607-0.386-0.201-0.769,1.415-1.347c1.614-0.576,1.009-0.769,2.42-0.769c1.415,0,2.828-0.77,3.836-0.963
		c1.01-0.193,1.414-0.192,2.423,0.578c1.009,0.769,1.009,2.501,1.816,2.886c0.808,0.386,2.423,1.155,3.835,1.733
		c1.413,0.579,2.423,0.192,3.231,1.732c0.807,1.54-1.011,1.54,1.815,2.502c2.826,0.963-0.404,0.193,2.826,0.963
		c3.23,0.771,3.23,1.156,5.249,1.347c2.019,0.193,3.029-1.347,4.037,0.193c1.009,1.539-1.008,4.234,0,4.813
		c1.009,0.578,2.019-0.771,2.826,1.155c0.809,1.924-0.202,3.465,0.809,3.656c1.008,0.194,1.614,0.771,2.421,0.386
		c0.808-0.386,2.019-1.924,3.836-1.348c1.817,0.577,2.221,0.962,2.624,2.118c0.403,1.153,2.422,3.272,3.23,4.042
		c0.808,0.77,3.432,2.695,5.249,1.54c1.817-1.156,3.633-2.503,4.845-2.311s1.615,1.155,1.615,2.503c0,1.347,1.614,1.54,3.634,1.54
		c2.019,0,2.825-0.193,3.431,0.77c0.607,0.962,0,1.732,1.414,1.924c1.412,0.192,0.808-1.155,3.23,0.385
		c2.422,1.541,1.816,2.118,2.624,2.695c0.808,0.576-0.202,0.769,3.028-0.193c3.229-0.962,4.239-2.117,6.46-2.311
		c2.22-0.192,3.026-1.347,3.632,0.962c0.606,2.311,0.606,3.081,0.808,4.622c0.203,1.539,0,1.923,3.432,2.117
		c3.432,0.192,2.827,2.501,3.432,3.272c0.606,0.77,1.614,2.309,2.826,2.694c1.211,0.385,1.211,0.385,2.22,0.77
		c1.01,0.385-1.21-2.309,1.01,0.385c2.221,2.695,1.816,2.888,3.633,4.427c1.818,1.54,3.634,2.695,3.634,2.695s2.221,1.54,3.23,0.963
		c1.01-0.579,0.808-0.963,2.02-1.156c1.209-0.192,1.816,1.349,3.229,1.733c1.413,0.386,2.02,0.579,3.027-0.963
		c1.009-1.539-0.202-2.309,2.019-2.116c2.22,0.191,1.413,2.695,3.634,2.695s2.623,1.54,2.623,1.54s1.212,1.154,2.222,0.962
		c1.01-0.192,1.01-0.962,2.421-0.962c1.414,0,2.021,0.385,2.221-0.769c0.203-1.156,0.405-1.35,0.808-1.926
		c0.404-0.577-1.008-1.156,1.01-1.732c2.019-0.578,1.815-1.349,2.826-0.578c1.009,0.771-0.606,3.464,1.211,3.657
		c1.816,0.193,2.423-0.192,3.432,0.961c1.01,1.156,2.422,1.349,3.23,1.349c0.808,0,1.211-0.192,3.229-0.192
		c2.02,0,2.02-0.962,3.229,0c1.212,0.961,0.606,4.427,3.433,2.695c2.826-1.733,3.23-2.888,4.845-2.695
		c1.616,0.192,1.817,0.769,3.835,0.576c2.019-0.191,1.615-0.576,3.028-0.769c1.413-0.192,1.816-0.386,2.421-0.77
		c0.605-0.385,1.415-0.578,1.415-0.578s0.403-0.77,2.624,0c2.22,0.771,3.432,2.502,4.239,2.694c0.807,0.193,2.018,0.578,4.037-0.385
		c2.018-0.962,2.625-0.769,3.634-1.348c1.01-0.578,1.212-1.154,1.818-1.923c0.604-0.771-2.423-1.542,1.613-1.734
		c4.038-0.192,1.616,0.192,4.038-0.192c2.422-0.386,4.038-0.962,4.844-0.386c0.807,0.578,0.807,2.696,0.605,4.235
		c-0.202,1.54,0.606,3.081,1.816,3.273c1.212,0.193,0.808,0.193,2.827,0.962c2.019,0.77,2.018,0,3.634,1.54
		c1.614,1.54-0.808,1.155,2.825,2.117c3.634,0.963,0.404-1.732,5.451,1.349c5.045,3.078,5.248,3.464,6.257,4.04
		c1.01,0.58,1.211-1.924,2.22-3.848c1.009-1.924,3.835-1.54,6.056-1.924c2.22-0.385,1.817-0.577,3.23-0.577s2.825,0.385,4.036,1.731
		c1.211,1.347,1.211,0.578,3.431,0.193c2.221-0.385,3.433,0.77,4.037,1.347c0.607,0.578-1.009,1.154,1.211,1.54
		c2.221,0.384,3.028-0.386,3.836,0.576c0.807,0.962,1.414,2.12,1.414,3.273c0,1.154-2.222,0.771,1.614,1.925
		c3.836,1.154,8.679,2.694,8.478,4.618c-0.202,1.927-1.212,0.771-0.808,3.082c0.405,2.309-0.605,0.771,0.606,3.465
		c1.21,2.694,2.421,5.004,4.643,5.774c2.22,0.771,2.22,1.155,3.431,2.117c1.211,0.962,1.615,1.155,2.825,2.503
		c1.212,1.347,2.424,2.31,2.424,2.31c2.421,0.963,3.028,1.155,3.23,2.695c0.2,1.54,0.807,2.887,2.421,3.273
		c1.614,0.385,3.027-0.193,4.441,0.385c1.413,0.577-1.009,0,1.413,0.577c2.424,0.577,2.02,0.192,3.231,0.77
		c1.21,0.577,1.411-0.193,2.623,0.962s1.414,0.963,2.019,1.733c0.606,0.77,1.212,2.116,2.423,1.54
		c1.211-0.578,1.211-0.77,3.834-0.193c2.625,0.578,3.229,0.193,6.058,1.347c2.826,1.155,2.625,0.963,4.238,1.732
		c1.615,0.77,2.222,1.349,4.039,1.349c1.813,0,3.027-1.155,4.843,0c1.817,1.155,2.02,2.501,3.027,2.886
		c1.01,0.385,1.818,1.347,1.818,2.118v1.731c0,0-0.605,1.925,0.805,1.925c1.414,0,0.608-1.155,1.414,0
		c0.807,1.154,0.605,1.925,1.616,2.117c1.009,0.193,2.22-2.31,3.229-1.925c1.009,0.386,1.412,1.348,1.412,2.118
		c0,0.77-0.605,0.963,0.403,1.733c1.011,0.769,2.625,0.96,4.239,1.539c1.615,0.579,0.808,0,4.241,2.118
		c3.432,2.116,3.026,0.771,3.432,2.116c0.403,1.349,0.403,1.349,0.135,3.456c-0.636,5.028-2.762,6.171-3.566,7.326
		c-0.808,1.154-0.201,1.925-1.415,2.308c-1.211,0.386-2.421,0.963-2.421,0.963s-2.624,0.771-2.425,2.118
		c0.203,1.347,2.221,1.732,2.221,1.732s1.212,1.731,1.616,2.309c0.402,0.579,0.605,3.079,1.213,3.079
		c0.604,0,1.815-0.576,2.823-0.961c1.011-0.384,1.414-0.384,2.424-0.384c1.009,0,2.624-0.77,4.037,0
		c1.413,0.769,3.431,2.31,3.431,2.31s1.817,0.962,2.827,1.539c1.01,0.579,2.02,1.348,2.827,1.925
		c0.804,0.577,0.604,0.962,2.22,1.346c1.613,0.385,1.21,1.541,2.423,0.193c1.209-1.347,3.028-2.886,3.028-2.886
		s1.21-4.043,2.824-4.043c1.615,0,1.616,0.192,2.827,0c1.211-0.193,1.412,0,2.423-0.384l1.011-0.387c0,0,1.61-1.731,3.024-1.925
		c1.413-0.192,1.413,0,3.432,0.385c2.02,0.384,3.432,0.771,3.836-0.192c0.403-0.963,1.817-2.31,1.817-2.31s3.431,1.734,4.439,0
		c1.012-1.731,0.809-5.774,1.818-6.736c1.009-0.962,2.624-1.733,2.624-1.733l2.419-1.923c0,0,0.812-0.58,1.014-1.157
		c0.199-0.578,0.402-1.155,1.007-1.54c0.606-0.385-3.027-1.54,1.414-0.385c4.441,1.157,5.854,1.925,6.459,1.925
		c0.607,0,3.835-0.385,3.835-0.385s1.617-0.576,3.635,0c2.019,0.578,4.037,1.926,4.642,1.926c0.606,0,1.415,0,1.415-1.541
		c0-1.54-0.608-2.118-0.202-3.464c0.403-1.347,2.623-2.695,3.23-3.658c0.604-0.962,2.422-0.191,2.422-0.191s1.612,1.539,2.217,1.732
		c0.607,0.193,1.415,0.386,2.427,0c1.006-0.387,2.018-0.387,2.018-0.387s1.613,0.387,2.421,0.387c0.809,0,1.615-0.193,2.626-0.387
		l1.009-0.191c0,0,1.212-0.771,2.02,0c0.805,0.771,1.411,0.77,1.614,1.348c0.2,0.577,0.2,0.963,1.008,1.347
		c0.809,0.385,3.028,1.347,3.028,1.347l1.213,0.963c0,0,0.4,0.387,0.201,1.541C529,160.423,529,160.615,529,161.579
		c0,0.962-0.202,1.54,0,2.117c0.201,0.577,0.201,0.962,0.807,2.308c0.606,1.349,0.806,2.312,0.806,2.312l0.809,2.116l1.816,1.733
		c0,0-0.201,2.502,1.615,1.924c1.818-0.577,2.02-1.347,2.02-1.347s-0.606-3.273,0-5.198c0.604-1.924,1.008-2.693,1.614-3.08
		c0.604-0.385,1.614-0.577,2.018-1.347c0.406-0.771,0.606-1.347,0.81-2.31c0.201-0.963,0.201-1.155,0.201-2.118v-1.732
		c0-0.77,0-1.924,2.421-3.079c2.422-1.157,3.835-0.964,4.644-0.964c0.808,0,2.623,0.771,2.623,0.771s3.028,0.578,3.635,2.309
		c0.604,1.733,1.814,2.695,1.814,2.695l1.011,0.963c0,0,0.809,0.77,1.617,1.154c0.806,0.385-0.606,0.192,0.806,0.385
		c1.414,0.193-0.806,1.349,1.414,0.193c2.219-1.156,2.22-1.732,3.431-2.118c1.21-0.386,1.008-0.193,3.23-0.193
		c2.219,0,4.845-0.384,5.65,0.771c0.807,1.155,1.212,1.924,1.413,2.502c0.202,0.578,1.01,1.155,1.01,1.155s0,0.385,1.413,1.541
		c1.415,1.154-0.202-0.963,1.415,1.154c1.614,2.118,3.229,3.273,3.229,4.042c0,0.77,1.614,2.502,1.816,3.273
		c0.2,0.769,1.21,1.924,1.21,1.924s2.221-1.348,2.221,0.191c0,1.542-0.402,3.273,0.404,3.658c0.807,0.386,1.211-1.347,2.826,0.771
		c1.615,2.117,1.614,3.079,1.815,4.232c0.202,1.157,0.202,2.695,1.615,2.695s2.624-0.577,3.635-0.962
		c1.009-0.384,0.402-1.733,2.623-2.118c2.22-0.383,2.22,0.385,4.844,0.578c2.627,0.193,5.049,0.193,6.46,0.386
		c1.415,0.193-0.197,0.384,3.028,0c3.229-0.386,3.229-1.347,4.441-0.579c1.213,0.772-0.607-1.346,1.615,1.925
		c2.221,3.273-3.025,3.081,2.221,3.273c5.248,0.193,1.008-0.962,3.024-0.001c2.02,0.963,4.042,0.001,5.048,0.771
		c1.013,0.771,0.204,2.117,2.424,2.695c2.22,0.576,3.835,0,5.654-0.386c1.815-0.384,2.219,0.386,2.219,1.54
		c0,1.155-1.009,4.621-1.009,4.621s0,4.042-0.606,5.389c-0.604,1.347-2.422,2.119-2.02,4.237c0.405,2.116,1.617,4.234,1.617,5.387
		c0,1.156-0.002,4.429-0.201,5.197c-0.202,0.771-0.81,2.117-1.416,2.312c-0.604,0.191-1.007,0.578-2.22,0.769
		c-1.211,0.192-6.256,0.58-6.256,0.58s-2.222,0-2.829,1.155c-0.603,1.153-1.411,2.693-1.815,3.657
		c-0.403,0.959-1.211,2.691-1.413,3.462s-0.402,1.926-0.402,1.926s-1.413,0.768,0,1.153c1.412,0.387,2.017,0.002,3.226,0.772
		c1.214,0.77,0.205,1.924,4.042,3.271c3.833,1.35,4.845,2.694,5.853,3.849c1.008,1.155,1.616,1.155,1.616,2.311
		c0,1.154,0.805-0.191,1.615,1.54c0.806,1.73,2.622,1.733,3.228,2.886c0.606,1.156-0.404,2.311,2.219,1.54
		c2.626-0.769,0.609-2.115,4.646-0.577c4.033,1.542,5.248,0,6.863,0.963c1.613,0.964,2.017,1.924,1.613,3.081
		c-0.403,1.154-2.017,2.502-0.603,3.463c1.412,0.965,1.815,0.772,1.815,2.119c0,1.348,1.412,3.272,3.026,2.694
		c1.615-0.577,2.224-3.079,3.836-2.886c1.614,0.191,2.623,0.577,2.827,2.309c0.203,1.732,0.403,2.116,1.617,1.541
		c1.209-0.577,2.218-3.658,3.83-2.696c1.618,0.964,0.608,1.349,1.214,3.465c0.606,2.116,1.613,3.464,3.833,2.886
		c2.223-0.575,3.028-2.31,4.442-1.731c1.412,0.577,1.617,1.733,3.231,1.156c1.615-0.579,2.221-0.771,3.432-1.156
		c1.212-0.385,0.806-1.923,2.622-1.154c1.82,0.77,2.221,1.923,2.018,2.886c-0.197,0.966-1.21,1.927,0,2.889
		c1.215,0.961,3.029,2.31,3.837,3.271c0.809,0.964-0.603,1.352,1.212,1.734c1.815,0.384,2.02,0.77,3.432,0.384
		c1.415-0.384,2.624-1.154,4.038-0.961c1.413,0.19,1.815-1.157,3.429,0.383c1.619,1.541,2.604,2.193,2.86,3.233L713.702,278.942z"/>
</g>
<text transform="matrix(1 0 0 1 140.2036 98.2744)" font-family="'BPGSuperSquare'" font-size="10">აფხაზეთი</text>
<circle cx="131.655" cy="94.517" r="3.297"/>
<text transform="matrix(1 0 0 1 202.2036 205.2744)" font-family="'BPGSuperSquare'" font-size="10">სამეგრელო</text>
<circle cx="194.655" cy="202.517" r="3.297"/>
<text transform="matrix(1 0 0 1 307.2031 156.6079)" font-family="'BPGSuperSquare'" font-size="10">რაჭა ლეჩხუმი</text>
<circle cx="298.655" cy="153.517" r="3.297"/>
<text transform="matrix(1 0 0 1 306.8696 238.5176)" font-family="'BPGSuperSquare'" font-size="10">იმერეთი</text>
<circle cx="298.655" cy="235.518" r="3.297"/>
<text transform="matrix(1 0 0 1 224.2026 265.4814)" font-family="'BPGSuperSquare'" font-size="10">გურია</text>
<circle cx="216.655" cy="263.518" r="3.297"/>
<text transform="matrix(1 0 0 1 213.3569 314.1484)" font-family="'BPGSuperSquare'" font-size="10">აჭარა</text>
<circle cx="205.655" cy="310.518" r="3.297"/>
<text transform="matrix(1 0 0 1 339.0239 324.1484)"><tspan x="0" y="0" font-family="'Roboto-Regular'" font-size="12">Samckhe</tspan><tspan x="0" y="14.4" font-family="'Roboto-Regular'" font-size="12">Javakheti</tspan></text>
<circle cx="329.655" cy="320.518" r="3.297"/>
<text transform="matrix(1 0 0 1 419.5352 273.8506)" font-family="'BPGSuperSquare'" font-size="10">შიდა ქართლი</text>
<circle cx="412.655" cy="270.518" r="3.297"/>
<text transform="matrix(1 0 0 1 470.8691 342.1836)" font-family="'BPGSuperSquare'" font-size="10">ქვემო ქართლი</text>
<circle cx="461.655" cy="338.518" r="3.297"/>
<text transform="matrix(1 0 0 1 424.6563 213)" font-family="'BPGSuperSquare'" font-size="10">სამაჩაბლო</text>
<circle cx="417.655" cy="209.518" r="3.297"/>
<text transform="matrix(1 0 0 1 518.3223 190.5166)"><tspan x="0" y="0" font-family="'BPGSuperSquare'" font-size="10">მცხეთა</tspan><tspan x="0" y="12" font-family="'BPGSuperSquare'" font-size="10">მთიანეთი</tspan></text>
<circle cx="510.655" cy="187.518" r="3.297"/>
<text transform="matrix(1 0 0 1 617.6563 293.1846)" font-family="'BPGSuperSquare'" font-size="10">კახეთი</text>
<circle cx="609.655" cy="289.518" r="3.297"/>
</svg>
